<svg width="375" height="255" viewBox="0 0 375 255" fill="none" xmlns="http://www.w3.org/2000/svg">
<path opacity="0.1" d="M187.5 255C291.053 255 375 249.982 375 243.793C375 237.604 291.053 232.586 187.5 232.586C83.9466 232.586 0 237.604 0 243.793C0 249.982 83.9466 255 187.5 255Z" fill="#37877D"/>
<path d="M345.589 235.493C345.592 236.379 345.496 237.262 345.304 238.128C345.268 238.291 345.229 238.468 345.189 238.607C344.175 242.475 341.314 245.304 337.9 245.484C337.786 245.484 337.671 245.484 337.543 245.484C333.932 245.484 330.879 242.523 329.871 238.444C329.843 238.336 329.818 238.227 329.793 238.105C329.6 237.238 329.504 236.355 329.507 235.469C329.507 229.944 333.104 225.468 337.543 225.468C341.982 225.468 345.589 229.974 345.589 235.493Z" fill="#3F3D56"/>
<path opacity="0.1" d="M345.589 235.493C345.592 236.379 345.496 237.262 345.304 238.128C345.268 238.291 345.229 238.468 345.189 238.607C345.068 238.607 344.95 238.607 344.832 238.607C343.948 238.562 343.069 238.448 342.204 238.268C341.437 238.493 340.654 238.663 339.861 238.777C339.253 238.864 338.64 238.919 338.025 238.94H337.404C336.668 238.94 335.933 238.894 335.204 238.801C334.024 238.651 332.866 238.378 331.75 237.986C331.139 238.179 330.517 238.338 329.886 238.461C329.857 238.353 329.832 238.244 329.807 238.122C329.615 237.255 329.519 236.372 329.522 235.486C329.522 229.961 333.118 225.485 337.557 225.485C341.997 225.485 345.589 229.974 345.589 235.493Z" fill="black"/>
<path d="M362.732 216.866C362.735 214.435 362.136 212.039 360.982 209.87L351.532 212.665L359.829 208.026C358.438 206.114 356.613 204.523 354.489 203.372C352.365 202.22 349.996 201.537 347.557 201.373C347.168 200.813 346.742 200.278 346.282 199.77L332.711 203.787L343.843 197.566C341.713 196.013 339.214 194.982 336.566 194.566C333.918 194.149 331.203 194.36 328.661 195.178C326.119 195.997 323.828 197.398 321.991 199.259C320.154 201.119 318.828 203.381 318.129 205.845L329.754 218.574L317.143 209.897C313.945 212.05 311.668 215.225 310.727 218.841C309.785 222.458 310.242 226.276 312.015 229.599C313.787 232.922 316.756 235.529 320.381 236.944C324.006 238.358 328.044 238.487 331.761 237.307C335.122 238.478 338.794 238.574 342.218 237.578C344.605 238.08 347.08 238.067 349.46 237.538C351.841 237.01 354.067 235.98 355.973 234.525C357.879 233.069 359.418 231.226 360.475 229.13C361.532 227.034 362.082 224.739 362.082 222.415C362.082 222.075 362.082 221.736 362.047 221.396C362.509 219.926 362.74 218.4 362.732 216.866Z" fill="#37877D"/>
<path opacity="0.1" d="M362.45 219.749C357.46 218.848 352.342 218.786 347.329 219.566C341.654 220.459 335.854 222.422 330.304 220.985C327.046 220.143 324.232 218.194 321.05 217.114C317.981 216.092 314.673 215.903 311.497 216.567C310.285 219.32 309.933 222.347 310.483 225.285C311.033 228.224 312.46 230.949 314.596 233.137C316.731 235.324 319.484 236.881 322.524 237.62C325.565 238.359 328.765 238.251 331.743 237.307C335.104 238.478 338.776 238.574 342.2 237.578C344.587 238.08 347.062 238.067 349.443 237.538C351.823 237.01 354.049 235.98 355.955 234.525C357.861 233.069 359.4 231.226 360.457 229.13C361.515 227.034 362.064 224.739 362.064 222.415C362.064 222.075 362.064 221.736 362.029 221.396C362.201 220.855 362.342 220.305 362.45 219.749Z" fill="black"/>
<path d="M249.5 58.4021H247.454C247.002 58.4021 246.636 58.7502 246.636 59.1797V86.4977C246.636 86.9272 247.002 87.2754 247.454 87.2754H249.5C249.952 87.2754 250.318 86.9272 250.318 86.4977V59.1797C250.318 58.7502 249.952 58.4021 249.5 58.4021Z" fill="#3F3D56"/>
<path d="M125.732 35.7809H124.736C124.44 35.7809 124.2 36.009 124.2 36.2903V44.7771C124.2 45.0584 124.44 45.2865 124.736 45.2865H125.732C126.028 45.2865 126.268 45.0584 126.268 44.7771V36.2903C126.268 36.009 126.028 35.7809 125.732 35.7809Z" fill="#3F3D56"/>
<path d="M125.85 53.1857H124.729C124.395 53.1857 124.125 53.4427 124.125 53.7597V69.1574C124.125 69.4744 124.395 69.7313 124.729 69.7313H125.85C126.183 69.7313 126.454 69.4744 126.454 69.1574V53.7597C126.454 53.4427 126.183 53.1857 125.85 53.1857Z" fill="#3F3D56"/>
<path d="M125.804 75.5182H124.736C124.418 75.5182 124.161 75.763 124.161 76.065V91.6597C124.161 91.9616 124.418 92.2064 124.736 92.2064H125.804C126.121 92.2064 126.379 91.9616 126.379 91.6597V76.065C126.379 75.763 126.121 75.5182 125.804 75.5182Z" fill="#3F3D56"/>
<path d="M235.875 4.37073H138.118C131.078 4.37073 125.371 9.79728 125.371 16.4913V230.44C125.371 237.134 131.078 242.56 138.118 242.56H235.875C242.915 242.56 248.621 237.134 248.621 230.44V16.4913C248.621 9.79728 242.915 4.37073 235.875 4.37073Z" fill="#3F3D56"/>
<path d="M191.411 11.4821H176.014C175.513 11.4821 175.107 11.8683 175.107 12.3447V13.9442C175.107 14.4206 175.513 14.8068 176.014 14.8068H191.411C191.912 14.8068 192.318 14.4206 192.318 13.9442V12.3447C192.318 11.8683 191.912 11.4821 191.411 11.4821Z" fill="#E6E8EC"/>
<path d="M196.904 15.0276C197.998 15.0276 198.886 14.1837 198.886 13.1428C198.886 12.1018 197.998 11.2579 196.904 11.2579C195.809 11.2579 194.921 12.1018 194.921 13.1428C194.921 14.1837 195.809 15.0276 196.904 15.0276Z" fill="#E6E8EC"/>
<path d="M241.011 19.8805V227.04C241.01 229.508 239.978 231.875 238.142 233.62C236.307 235.365 233.817 236.345 231.221 236.345H142.771C140.176 236.345 137.686 235.365 135.851 233.62C134.015 231.875 132.983 229.508 132.982 227.04V19.8805C132.982 18.6581 133.235 17.4477 133.727 16.3183C134.219 15.1889 134.94 14.1627 135.849 13.2984C136.758 12.434 137.838 11.7483 139.025 11.2805C140.213 10.8127 141.486 10.5719 142.771 10.5719H156.007V12.1885C156.011 14.2193 156.862 16.1657 158.373 17.6008C159.884 19.0358 161.932 19.8423 164.068 19.8432H209.068C210.126 19.8432 211.175 19.6449 212.153 19.2597C213.131 18.8745 214.019 18.3099 214.768 17.5982C215.516 16.8864 216.11 16.0414 216.515 15.1115C216.92 14.1816 217.129 13.1848 217.129 12.1783V10.5719H231.239C233.832 10.5764 236.318 11.5591 238.15 13.3044C239.982 15.0496 241.011 17.4147 241.011 19.8805Z" fill="white"/>
<path opacity="0.2" d="M241.786 105.424V175.868H241.011V175.94H132.982V89.8767C133.675 89.1251 134.377 88.3451 135.089 87.5368C150.261 70.3086 170.882 65.7749 186.843 65.2994C197.779 64.9598 208.664 67.1095 219.057 71.3784C224.546 73.6334 232.425 76.1057 241.011 76.3502V102.982C241.536 104.405 241.786 105.424 241.786 105.424Z" fill="#37877D"/>
<path opacity="0.2" d="M241.786 105.424V175.868H132.982V129.723C136.857 128.796 142.268 125.23 149.211 115.378C157.514 103.59 168.796 100.489 177.529 100.163C183.511 99.9393 189.468 101.4 195.154 104.324C201.55 107.608 213.879 111.567 223.246 100.072C233.604 87.3603 239.111 97.8439 241.011 102.982C241.536 104.405 241.786 105.424 241.786 105.424Z" fill="#37877D"/>
<path d="M226.071 162.967H148.214C145.847 162.967 143.929 164.791 143.929 167.042V184.702C143.929 186.952 145.847 188.777 148.214 188.777H226.071C228.438 188.777 230.357 186.952 230.357 184.702V167.042C230.357 164.791 228.438 162.967 226.071 162.967Z" fill="#736E9E"/>
<path d="M47.8786 232.195L54.7143 228.361C53.7899 226.86 52.6081 225.516 51.2179 224.385L38.3215 228.212L48.4286 222.561C45.9267 221.258 43.1109 220.596 40.2586 220.642C37.4062 220.688 34.6156 221.439 32.1613 222.822C29.707 224.205 27.6737 226.171 26.2614 228.528C24.8492 230.885 24.1068 233.551 24.1072 236.264C24.1072 244.893 31.4607 245.192 40.5357 245.192C49.6108 245.192 56.9643 244.893 56.9643 236.264C56.9675 234.081 56.4868 231.922 55.5536 229.927L47.8786 232.195Z" fill="#37877D"/>
<path opacity="0.1" d="M49.6179 240.587C48.8904 239.893 48.0773 239.285 47.1964 238.777C45.9536 237.993 44.6714 237.194 43.2072 236.926C41.9214 236.692 40.5964 236.889 39.2786 236.821C37.0048 236.688 34.8646 235.754 33.275 234.203C32.3429 233.286 31.6072 232.165 30.4857 231.455C29.275 230.701 27.7393 230.538 26.3036 230.725C25.8875 230.785 25.4751 230.865 25.0679 230.966C24.4233 232.666 24.0946 234.46 24.0964 236.267C24.0964 244.897 31.45 245.196 40.525 245.196C44.9286 245.196 48.925 245.124 51.875 244.065L51.3822 243.188C50.9121 242.254 50.3193 241.38 49.6179 240.587Z" fill="black"/>
<path d="M81.5143 197.753C80.9923 198.188 80.5901 198.738 80.3428 199.356C79.7321 201.169 81.4393 202.949 81.6036 204.847C81.7321 206.355 80.8893 207.761 80.4107 209.208C79.8706 211.005 79.9056 212.914 80.5111 214.692C81.1166 216.47 82.2653 218.037 83.8107 219.192C84.1397 219.457 84.5282 219.648 84.9464 219.749C85.2915 219.788 85.6415 219.761 85.9749 219.667C86.3084 219.574 86.6183 219.417 86.8857 219.206C87.7151 218.632 88.3475 217.838 88.7036 216.923C88.9998 216.025 89.1598 215.09 89.1786 214.149L89.4321 210.515C89.6964 206.722 89.9357 202.809 88.9643 199.084C88.6464 197.861 88.0571 195.053 86.5714 194.883C85.0857 194.713 82.5 196.836 81.5143 197.753Z" fill="#3F3D56"/>
<path d="M106.429 182.144C104.645 188.102 103.351 194.182 102.561 200.33C102.446 201.196 102.329 202.106 101.779 202.806C100.682 204.209 98.4857 204.12 96.6643 203.893C96.2271 203.871 95.8009 203.755 95.4179 203.553C94.7322 203.112 94.5822 202.229 94.5 201.444C93.2524 189.879 92.4191 178.284 92 166.658C91.9822 166.213 107.246 166.173 108.554 167.337C109.861 168.502 108.846 172.859 108.554 174.344C108.075 176.986 107.211 179.56 106.429 182.144Z" fill="#FBBEBE"/>
<path opacity="0.05" d="M106.429 182.144C104.645 188.102 103.351 194.182 102.561 200.33C102.446 201.196 102.329 202.106 101.779 202.806C100.682 204.209 98.4857 204.12 96.6643 203.893C96.2271 203.871 95.8009 203.755 95.4179 203.553C94.7322 203.112 94.5822 202.229 94.5 201.444C93.2524 189.879 92.4191 178.284 92 166.658C91.9822 166.213 107.246 166.173 108.554 167.337C109.861 168.502 108.846 172.859 108.554 174.344C108.075 176.986 107.211 179.56 106.429 182.144Z" fill="black"/>
<path d="M74.6428 165.004L80.825 177.933C82.8821 182.233 84.9535 186.58 85.9357 191.208C86.3297 193.142 86.5815 195.1 86.6892 197.067C86.8385 198.753 86.7833 200.449 86.525 202.123C86.3 203.366 85.8857 204.575 85.7035 205.825C84.9892 210.807 87.9571 215.494 89.9892 220.129C91.745 224.111 92.8622 228.32 93.3035 232.617C93.4892 234.447 93.5928 236.39 94.6928 237.901C96.7035 237.327 98.6678 236.831 100.764 237.055C101.139 234.131 99.1964 231.438 98.4821 228.565C97.1714 223.301 100.068 217.769 99.0821 212.441C98.5464 209.554 96.8857 206.837 97.0214 203.91C97.275 198.571 98.3285 193.178 97.2571 187.948C96.05 182.036 92.5785 176.66 91.8107 170.683C91.2214 166.091 92.1678 161.014 89.4785 157.156C83.6035 156.827 77.5285 160.124 74.6428 165.004Z" fill="#FBBEBE"/>
<path d="M94.9607 246.197C94.3429 246.218 93.6214 246.197 93.2393 245.732C93.0528 245.462 92.9456 245.149 92.9286 244.825C92.636 242.778 92.4928 240.714 92.5 238.648C92.5 237.894 92.5357 237.093 92.9786 236.471C93.3035 236.092 93.6739 235.75 94.0822 235.452C95.0286 234.62 95.7179 233.415 96.9393 233.031C97.4744 232.883 98.0418 232.876 98.5808 233.01C99.1198 233.145 99.6104 233.416 100 233.795C100.771 234.576 101.248 235.578 101.357 236.644C101.536 237.908 101.386 239.283 102.089 240.38C102.368 240.804 102.757 241.151 103.071 241.552C104.143 242.91 105.104 245.569 102.893 246.119C100.55 246.7 97.3929 246.123 94.9607 246.197Z" fill="#3F3D56"/>
<path d="M100.321 88.4912C101.571 86.1954 100.825 83.2408 99.0393 81.2915C97.2536 79.3422 94.6429 78.2554 91.9786 77.6679C88.4072 76.8732 84.5786 76.88 81.1608 78.1298C78.4358 79.1248 76.0893 80.8466 73.575 82.2526C69.1317 84.7398 64.1586 86.2485 59.0215 86.6675C53.3072 87.1259 46.925 86.4128 42.5072 89.8734C34.4143 96.2104 40.05 110.491 32.5072 117.405C30.4715 119.27 27.7536 120.278 25.4215 121.796C23.0893 123.314 21.0036 125.743 21.3786 128.405C21.5572 129.685 22.2929 130.84 23.1429 131.849C26.7929 136.185 32.9215 138.457 38.7179 137.782C44.5143 137.106 49.8215 133.567 52.6465 128.697C53.3608 127.478 53.9393 126.143 55.0643 125.257C57.3179 123.488 60.625 124.204 63.5465 124.119C70.0429 123.929 75.9429 118.635 76.5108 112.474C76.7536 109.842 76.2822 106.779 78.2715 104.931C79.875 103.437 82.3822 103.451 84.575 102.992C88.6036 102.154 91.5358 99.3823 93.375 95.9999C94.2179 94.4445 94.1322 92.7057 95.3822 91.4152C96.7143 89.9956 99.1322 90.6714 100.321 88.4912Z" fill="#3F3D56"/>
<g opacity="0.1">
<path opacity="0.1" d="M53.6965 87.744C56.0659 87.5519 58.4082 87.1274 60.6858 86.4773C60.0429 86.5622 59.4001 86.6335 58.7536 86.6844C54.2751 87.041 49.3751 86.6844 45.3394 88.1821C48.0894 87.9138 50.9715 87.9614 53.6965 87.744Z" fill="black"/>
<path opacity="0.1" d="M49.7107 126.333C48.5857 127.216 47.9929 128.554 47.2929 129.774C45.1285 133.484 41.6625 136.353 37.5 137.88C37.8179 137.86 38.1357 137.833 38.4536 137.795C44.25 137.116 49.5571 133.584 52.3821 128.714C53.0964 127.495 53.6714 126.157 54.8 125.274L54.9929 125.131C53.0321 125.087 51.1536 125.199 49.7107 126.333Z" fill="black"/>
<path opacity="0.1" d="M98.7715 81.3119C96.9858 79.3625 94.3572 78.2792 91.7108 77.6883C88.1393 76.8936 84.3108 76.9038 80.8893 78.1535L80.6608 78.2418C82.6736 78.1329 84.6924 78.3034 86.6536 78.7479C89.3 79.3388 91.9322 80.4221 93.7143 82.3748C95.4965 84.3276 96.2465 87.2787 94.9965 89.5745C93.8072 91.7548 91.3893 91.0755 90.0286 92.4849C88.7786 93.772 88.8643 95.5142 88.0215 97.0696C86.4393 99.98 84.0429 102.432 80.8429 103.597C81.9608 103.346 83.1608 103.233 84.275 103.003C88.3036 102.16 91.2358 99.3925 93.075 96.01C93.9215 94.4546 93.8358 92.7124 95.0822 91.4253C96.4465 90.016 98.8643 90.6918 100.05 88.5149C101.3 86.226 100.554 83.2714 98.7715 81.3119Z" fill="black"/>
<path opacity="0.1" d="M79.2215 104.065C77.0286 104.521 74.5215 104.51 72.9179 106.001C70.9286 107.852 71.4 110.915 71.1572 113.547C70.7322 118.149 67.3286 122.268 62.925 124.14H63.2501C69.7465 123.949 75.6429 118.652 76.2108 112.495C76.4572 109.859 75.9858 106.796 77.975 104.948C78.4309 104.535 78.9671 104.21 79.5536 103.991L79.2215 104.065Z" fill="black"/>
</g>
<path d="M100.429 119.399C100.132 119.898 99.5214 120.129 98.9535 120.329C93.0749 122.387 86.8892 124.483 80.6892 123.617C80.4571 122.689 80.2285 121.759 79.9999 120.832C79.669 119.487 79.3357 118.142 78.9999 116.797C78.8428 116.155 78.6821 115.507 78.5535 114.855C78.332 113.825 78.2611 112.772 78.3428 111.724C78.3806 111.344 78.4523 110.968 78.5571 110.599C78.7405 109.93 79.0477 109.296 79.4642 108.728C79.5357 108.637 79.6107 108.545 79.6892 108.457C80.0424 108.052 80.471 107.712 80.9535 107.455C82.0071 106.905 83.4535 106.67 83.8785 105.604C84.0429 105.046 84.0267 104.455 83.8321 103.906C83.4749 102.547 82.8285 101.271 82.4285 99.9257C81.9214 98.2277 82.6857 98.3329 84.4107 97.922C87.5178 97.1783 90.7678 96.6451 93.9571 97.2428C93.8071 98.7405 93.6607 100.275 94.0571 101.736C94.4535 103.196 95.5142 104.582 97.0392 104.986C97.2642 105.047 97.5035 105.084 97.7535 105.135C98.0847 105.186 98.399 105.309 98.6714 105.495C98.8593 105.643 99.0085 105.83 99.1071 106.042C99.2623 106.4 99.3645 106.778 99.4107 107.163C99.9702 110.726 100.374 114.307 100.621 117.904V118.04C100.695 118.501 100.628 118.973 100.429 119.399Z" fill="#FBBEBE"/>
<path d="M70.1643 113.547C68.8286 115.48 68.3786 117.83 67.9714 120.112L65.3786 134.409C65.0214 136.365 64.7036 138.515 65.7571 140.23C66.1143 140.811 66.6143 141.313 66.875 141.928C67.072 142.547 67.2012 143.183 67.2607 143.827C67.8678 147.104 71.2571 149.315 74.6571 150.109C75.8857 150.398 77.3214 150.51 78.2893 149.732C79.3607 148.887 79.3607 147.277 78.7286 146.116C78.0964 144.954 76.9428 144.132 75.825 143.355L72.1214 140.76L74.2643 125.138C74.4214 124.004 74.9786 122.533 76.1857 122.659C77.2857 122.771 78.1321 124.296 79.1107 123.803C79.4174 123.606 79.6333 123.305 79.7143 122.961C80.1428 121.681 80.025 120.302 79.9036 118.961L79.4607 114.118C79.3143 112.545 79.7393 111.367 79.9393 109.89C80.1714 108.168 78.9643 108.691 77.475 109.061C74.6143 109.781 71.8178 111.15 70.1643 113.547Z" fill="#FBBEBE"/>
<path d="M116.218 137.028C115.946 137.463 115.543 137.811 115.061 138.026C112.169 139.576 108.768 140.031 105.539 139.3C104.795 139.092 104.039 138.924 103.275 138.797C102.054 138.654 100.811 138.885 99.5785 138.797C97.0785 138.617 94.8821 137.133 93.1499 135.401C92.1071 134.382 91.1607 132.715 92.1321 131.621C92.4035 131.357 92.7405 131.163 93.112 131.056C93.4835 130.949 93.8774 130.933 94.2571 131.01C95.0133 131.17 95.7427 131.428 96.4249 131.777C98.8152 132.831 101.372 133.501 103.993 133.761C105.779 133.937 108.05 133.649 108.668 132.035C108.968 131.251 108.757 130.382 108.546 129.57C107.97 127.347 107.394 125.122 106.818 122.897C106.778 122.702 106.706 122.515 106.604 122.343C106.574 122.296 106.539 122.253 106.5 122.214C106.272 122.034 105.997 121.916 105.704 121.874C104.371 121.562 103.039 121.056 102.086 120.122C101.461 119.459 100.963 118.697 100.614 117.87C100.514 117.663 100.421 117.453 100.325 117.242C99.5928 115.619 98.8214 113.955 98.2249 112.25C97.8086 111.098 97.5014 109.912 97.3071 108.708C97.1499 107.665 97.0642 107.186 97.6642 106.725C97.8251 106.609 97.996 106.507 98.175 106.419C98.45 106.28 98.7607 106.14 99.0892 106.008L99.4071 105.882C100.384 105.511 101.388 105.207 102.411 104.972C104.889 104.425 107.536 105.567 109.236 107.37C110.936 109.173 111.818 111.533 112.382 113.894C112.946 116.254 113.236 118.672 113.943 120.995C114.218 121.905 114.561 122.802 114.796 123.712C115.049 124.794 115.229 125.891 115.336 126.996C115.671 129.81 116.006 132.624 116.339 135.438C116.462 135.968 116.42 136.52 116.218 137.028Z" fill="#FBBEBE"/>
<path d="M79.5464 135.805C80.2607 140.138 78.2072 144.4 76.2214 148.37C77.3464 149.152 78.7214 149.539 80.0643 149.875C89.0521 152.122 98.3955 152.79 107.636 151.848C107.857 150.381 108.064 148.826 107.432 147.474C107.039 146.635 106.361 145.952 105.929 145.131C105.214 143.772 105.286 142.193 105.364 140.685L106.004 127.838C101.571 125.895 96.4321 127.716 91.5571 127.977C89.0321 128.113 86.475 127.821 83.9857 128.245C82.6929 128.466 78.6286 129.074 78.0179 130.341C77.4071 131.608 79.3286 134.426 79.5464 135.805Z" fill="#FBBEBE"/>
<path opacity="0.05" d="M79.5464 135.805C80.2607 140.138 78.2072 144.4 76.2214 148.37C77.3464 149.152 78.7214 149.539 80.0643 149.875C89.0521 152.122 98.3955 152.79 107.636 151.848C107.857 150.381 108.064 148.826 107.432 147.474C107.039 146.635 106.361 145.952 105.929 145.131C105.214 143.772 105.286 142.193 105.364 140.685L106.004 127.838C101.571 125.895 96.4321 127.716 91.5571 127.977C89.0321 128.113 86.475 127.821 83.9857 128.245C82.6929 128.466 78.6286 129.074 78.0179 130.341C77.4071 131.608 79.3286 134.426 79.5464 135.805Z" fill="black"/>
<path d="M91.2893 148.241C86.4858 147.291 81.7643 145.718 76.8608 145.609C76.6145 145.586 76.3663 145.631 76.1465 145.739C75.9072 145.927 75.7474 146.191 75.6965 146.482C75.1893 148.146 74.7358 149.823 74.3358 151.512C73.0072 157.126 72.3536 163.327 75.275 168.367C75.2465 166.73 76.3286 165.198 77.775 164.291C79.2215 163.385 80.9536 163.018 82.6679 162.868C84.3822 162.719 86.2143 162.78 87.8108 163.449C88.9264 163.931 89.889 164.684 90.6018 165.632C91.3146 166.58 91.7525 167.689 91.8715 168.849L108.746 169.368C108.845 169.396 108.95 169.399 109.05 169.379C109.151 169.358 109.244 169.314 109.322 169.25C109.4 169.186 109.461 169.105 109.497 169.014C109.534 168.922 109.546 168.823 109.532 168.727C110.154 163.579 110.132 158.379 109.464 153.237C109.279 151.801 109.254 149.807 107.554 149.267C105.525 148.622 102.318 149.376 100.15 149.287C97.1715 149.168 94.2081 148.819 91.2893 148.241Z" fill="#3F3D56"/>
<path d="M106.607 123.083L106.553 130.215L89.4821 130.755C86.3499 130.857 83.1928 130.959 80.1392 131.621C79.2606 131.811 78.3928 132.049 77.5285 132.283C76.6285 129.149 75.7428 125.865 75.9785 122.669C76.0436 121.807 76.2016 120.954 76.4499 120.122C76.9928 118.329 78.0106 116.638 78.5535 114.865C78.7723 114.175 78.8924 113.46 78.9106 112.739C78.8701 112.019 78.7504 111.306 78.5535 110.61C78.3969 110.039 78.3224 109.451 78.3321 108.861L79.6856 108.463C79.7249 108.616 79.7571 108.766 79.7856 108.922C79.8428 109.244 79.8892 109.574 79.9214 109.903C79.9978 110.72 80.0217 111.54 79.9928 112.359C79.9464 113.996 79.7142 115.819 80.7892 117.113C82.1856 118.774 84.8714 118.516 87.0642 118.101L92.8071 117.011C94.6213 116.672 96.6464 116.189 97.5928 114.678C97.9966 113.944 98.2097 113.129 98.2142 112.301V112.138C98.2997 110.334 98.1108 108.528 97.6535 106.776C97.5142 106.225 97.3428 105.682 97.1499 105.149H97.7249C98.0561 105.199 98.3704 105.323 98.6428 105.509C98.8307 105.656 98.9799 105.844 99.0785 106.056L99.3963 105.93C100.663 110.855 102.752 115.556 105.582 119.854C105.946 120.346 106.235 120.884 106.439 121.453C106.524 121.762 106.572 122.079 106.582 122.397C106.611 122.598 106.607 122.839 106.607 123.083Z" fill="#FF6F61"/>
<path d="M88.5714 101.498C94.2915 101.498 98.9285 97.0887 98.9285 91.6495C98.9285 86.2103 94.2915 81.8009 88.5714 81.8009C82.8513 81.8009 78.2142 86.2103 78.2142 91.6495C78.2142 97.0887 82.8513 101.498 88.5714 101.498Z" fill="#FBBEBE"/>
<path d="M70.1643 113.547C68.8286 115.48 68.3786 117.83 67.9714 120.112L65.3786 134.409C65.0214 136.365 64.7036 138.515 65.7571 140.23C66.1143 140.811 66.6143 141.313 66.875 141.928C67.072 142.547 67.2012 143.183 67.2607 143.827C67.8678 147.104 71.2571 149.315 74.6571 150.109C75.8857 150.398 77.3214 150.51 78.2893 149.732C79.3607 148.887 79.3607 147.277 78.7286 146.116C78.0964 144.954 76.9428 144.132 75.825 143.355L72.1214 140.76L74.2643 125.138C74.4071 124.014 71.8178 111.15 70.1643 113.547Z" fill="#FBBEBE"/>
<path d="M112.386 113.914C112.95 116.274 113.239 118.692 113.946 121.015C114.221 121.929 114.564 122.822 114.8 123.732C115.053 124.814 115.233 125.909 115.339 127.013L116.343 135.455C116.458 135.977 116.415 136.519 116.218 137.017C115.945 137.452 115.542 137.799 115.061 138.016C112.168 139.562 108.769 140.017 105.539 139.289C104.796 139.078 104.04 138.91 103.275 138.787C102.054 138.641 100.811 138.875 99.5785 138.787C97.0785 138.607 94.8821 137.126 93.1499 135.408C92.1071 134.389 91.1607 132.718 92.1321 131.625C92.4035 131.361 92.7405 131.166 93.112 131.059C93.4835 130.953 93.8774 130.937 94.2571 131.013C95.0134 131.175 95.7429 131.434 96.4249 131.784C98.8159 132.835 101.373 133.504 103.993 133.764C105.779 133.944 108.05 133.655 108.668 132.039C108.968 131.254 108.757 130.385 108.546 129.573L106.818 122.9C106.746 122.669 111.821 111.557 112.386 113.914Z" fill="#FBBEBE"/>
<path d="M82.1607 94.6822C81.7 93.1098 81.0536 91.1435 82.35 90.0771C82.8159 89.7351 83.3773 89.5308 83.9643 89.4896C86.875 89.15 89.8857 90.7801 92.6714 89.9107C93.56 89.6346 94.3455 89.1199 94.9332 88.4287C95.5209 87.7374 95.8857 86.8992 95.9835 86.0152C96.0813 85.1312 95.9079 84.2392 95.4844 83.4468C95.0608 82.6544 94.4051 81.9955 93.5964 81.5496C92.3786 80.8704 90.925 80.7379 89.5214 80.6191C85.825 80.2965 81.9714 79.9976 78.5143 81.2983C75.0571 82.599 72.1428 85.9475 72.8571 89.4149C73.1893 91.0688 74.2643 92.4917 75.3571 93.8094C76.1964 94.8112 79.5643 99.5827 80.9178 99.5148C82.825 99.4129 82.4607 95.7044 82.1607 94.6822Z" fill="#3F3D56"/>
<path opacity="0.1" d="M93.5965 81.5496C93.3901 81.4362 93.1752 81.3374 92.9536 81.2541C93.5807 81.7952 94.0474 82.4835 94.307 83.2499C94.5666 84.0164 94.61 84.8342 94.4328 85.6216C94.2556 86.409 93.8641 87.1384 93.2974 87.7368C92.7307 88.3351 92.0087 88.7814 91.2036 89.0311C88.4179 89.9005 85.4072 88.2704 82.4965 88.61C81.9095 88.6512 81.3481 88.8555 80.8822 89.1975C79.5858 90.2639 80.2322 92.2302 80.6929 93.8026C80.9929 94.8214 81.3572 98.5333 79.4572 98.6352H79.425C80.0143 99.1819 80.5465 99.5385 80.925 99.5181C82.825 99.4163 82.4608 95.7078 82.1608 94.6856C81.7 93.1132 81.0536 91.1469 82.35 90.0805C82.816 89.7385 83.3773 89.5342 83.9643 89.493C86.875 89.1534 89.8858 90.7835 92.6715 89.9141C93.56 89.638 94.3455 89.1233 94.9333 88.432C95.521 87.7408 95.8857 86.9026 95.9835 86.0186C96.0813 85.1346 95.908 84.2426 95.4844 83.4502C95.0608 82.6578 94.4051 81.9989 93.5965 81.553V81.5496Z" fill="black"/>
<path d="M245.714 204.059H129.286V238.359H245.714V204.059Z" fill="#3F3D56"/>
<path d="M182.5 215.144V227.268L192.5 221.206L182.5 215.144Z" fill="white"/>
<path d="M93.2142 11.5907L87.6714 14.9325L91.0356 9.11502C90.0822 8.39132 88.902 7.99093 87.6821 7.97734H87.5928C87.2077 7.98269 86.8228 7.95542 86.4428 7.89583L84.5642 9.02672L85.3714 7.63434C84.0386 7.19348 82.8879 6.36092 82.0856 5.25709L78.7214 7.29473L80.8464 3.62359C78.8785 1.37879 76.2285 0.00338745 73.3142 0.00338745C69.8178 0.00338745 66.7035 1.97989 64.6928 5.06012C64.0982 5.985 63.2556 6.7429 62.2515 7.25612C61.2474 7.76934 60.1178 8.01942 58.9785 7.98073H58.7892C54.9285 7.98073 51.7999 12.1409 51.7999 17.2758C51.7999 22.4106 54.9285 26.5708 58.7892 26.5708C59.6385 26.567 60.4742 26.3677 61.2249 25.99C62.5383 25.3822 63.975 25.0534 65.4354 25.0264C66.8958 24.9994 68.3449 25.2749 69.6821 25.8338C70.8135 26.3151 72.039 26.5639 73.2785 26.5639C74.518 26.5639 75.7435 26.3151 76.8749 25.8338C78.2027 25.2865 79.6388 25.0171 81.0857 25.0441C82.5326 25.071 83.9564 25.3937 85.2606 25.99C86.0036 26.3598 86.8292 26.5543 87.6678 26.5572C91.5285 26.5572 94.6571 22.3936 94.6571 17.2622C94.6836 15.2866 94.1874 13.3364 93.2142 11.5907Z" fill="#F2F2F2"/>
<path opacity="0.03" d="M82.7642 25.192C80.751 24.8289 78.6698 25.0441 76.7857 25.8101C75.6539 26.2903 74.4285 26.5385 73.1892 26.5385C71.9499 26.5385 70.7245 26.2903 69.5928 25.8101C68.2552 25.2524 66.806 24.9778 65.3458 25.0054C63.8855 25.0329 62.449 25.362 61.1357 25.9697C60.3845 26.3459 59.5489 26.544 58.7 26.547C55.2714 26.547 52.4178 23.263 51.825 18.9296C52.5085 18.4532 53.0903 17.8574 53.5392 17.1739C55.55 14.0903 58.6642 12.1138 62.1607 12.1138C65.6571 12.1138 68.7321 14.0665 70.7321 17.1162C71.3339 18.0334 72.1744 18.7875 73.1723 19.3057C74.1701 19.8238 75.2917 20.0885 76.4285 20.0741H76.5178C79.25 20.0741 81.6142 22.1559 82.7642 25.192Z" fill="black"/>
<path d="M282.857 87.3365L280.093 89.0039L281.771 86.1003C281.296 85.7401 280.708 85.5406 280.1 85.5332H280.054C279.862 85.5362 279.671 85.5237 279.482 85.4958L278.529 86.0664L278.932 85.3702C278.268 85.1511 277.694 84.7373 277.293 84.1883L275.614 85.2072L276.686 83.3767C276.24 82.8293 275.671 82.3832 275.021 82.0707C274.371 81.7582 273.657 81.5872 272.929 81.57C271.186 81.57 269.632 82.5548 268.643 84.0932C268.345 84.5551 267.924 84.9333 267.422 85.1893C266.92 85.4453 266.355 85.5699 265.786 85.5502H265.693C263.768 85.5502 262.207 87.6285 262.207 90.1858C262.207 92.743 263.768 94.8248 265.693 94.8248C266.116 94.8231 266.533 94.724 266.907 94.5361C267.562 94.2329 268.278 94.0685 269.007 94.0544C269.735 94.0404 270.458 94.1769 271.125 94.4546C271.686 94.6961 272.295 94.8222 272.911 94.8248C273.526 94.8227 274.134 94.7002 274.696 94.4648C275.359 94.1918 276.075 94.0572 276.796 94.0701C277.518 94.083 278.228 94.2431 278.879 94.5395C279.249 94.7252 279.66 94.823 280.079 94.8248C282.004 94.8248 283.564 92.7464 283.564 90.1858C283.585 89.1945 283.342 88.2143 282.857 87.3365Z" fill="#F2F2F2"/>
<path opacity="0.03" d="M277.632 94.1218C276.627 93.9384 275.587 94.046 274.646 94.4309C274.085 94.6691 273.476 94.7922 272.861 94.7922C272.245 94.7922 271.637 94.6691 271.075 94.4309C270.408 94.1535 269.685 94.0169 268.957 94.0304C268.229 94.0438 267.513 94.2071 266.857 94.509C266.483 94.6983 266.067 94.7985 265.643 94.801C263.932 94.801 262.511 93.1607 262.214 91.0008C262.555 90.7636 262.845 90.4661 263.068 90.1247C264.072 88.5862 265.625 87.6014 267.354 87.6014C269.082 87.6014 270.632 88.576 271.639 90.0941C271.94 90.5557 272.361 90.9352 272.862 91.1954C273.362 91.4556 273.926 91.5875 274.497 91.5782H274.539C275.879 91.568 277.061 92.6072 277.632 94.1218Z" fill="black"/>
<path d="M288.975 44.0333L293.414 46.7128L290.714 42.05C291.478 41.4716 292.423 41.1514 293.4 41.1399H293.471C293.78 41.1442 294.088 41.1227 294.393 41.0753L295.9 41.9821L295.254 40.8682C296.319 40.5127 297.24 39.8474 297.886 38.9664L300.582 40.5897L298.879 37.6487C300.454 35.8488 302.579 34.7485 304.914 34.7485C307.718 34.7485 310.211 36.3311 311.821 38.8C312.298 39.5388 312.971 40.1445 313.774 40.5555C314.576 40.9665 315.478 41.1681 316.389 41.1399H316.539C319.632 41.1399 322.139 44.4748 322.139 48.5874C322.139 52.7001 319.639 56.035 316.539 56.035C315.859 56.0316 315.19 55.872 314.589 55.5697C313.536 55.0813 312.383 54.8171 311.211 54.7954C310.039 54.7737 308.876 54.9951 307.804 55.4441C306.897 55.8291 305.916 56.0281 304.923 56.0281C303.931 56.0281 302.949 55.8291 302.043 55.4441C300.979 55.0049 299.829 54.7885 298.67 54.8096C297.511 54.8307 296.37 55.0888 295.325 55.5663C294.728 55.8618 294.066 56.0178 293.393 56.0214C290.3 56.0214 287.793 52.6865 287.793 48.5738C287.781 46.9902 288.188 45.429 288.975 44.0333Z" fill="#F2F2F2"/>
<path opacity="0.03" d="M297.343 54.9313C298.959 54.6385 300.63 54.8112 302.143 55.4271C303.049 55.8122 304.031 56.0112 305.023 56.0112C306.016 56.0112 306.997 55.8122 307.903 55.4271C308.977 54.9795 310.14 54.7592 311.311 54.7815C312.483 54.8038 313.636 55.0681 314.689 55.5562C315.291 55.8574 315.96 56.0158 316.639 56.018C319.386 56.018 321.671 53.3861 322.15 49.9051C321.599 49.5254 321.132 49.0465 320.775 48.4957C319.164 46.0302 316.668 44.4442 313.868 44.4442C311.068 44.4442 308.6 46.0098 306.989 48.4516C306.508 49.1879 305.835 49.7936 305.035 50.21C304.236 50.6265 303.337 50.8396 302.425 50.8288H302.353C300.161 50.8322 298.264 52.4997 297.343 54.9313Z" fill="black"/>
</svg>
