<svg width="50" height="50" viewBox="0 0 50 50" fill="none" xmlns="http://www.w3.org/2000/svg">
<path d="M27.5066 3.75936V3.80934C27.5066 5.48386 28.6312 6.88345 30.2058 7.3833C37.3287 9.60765 42.5022 16.2307 42.5022 24.0784C42.5022 25.3781 42.3522 26.6027 42.0773 27.8024C41.7274 29.4019 42.3772 31.0514 43.8018 31.9012L43.8268 31.9262C45.9762 33.1758 48.7754 32.0511 49.3502 29.6518C49.7751 27.8523 50 25.9779 50 24.0784C50 12.8317 42.5522 3.2845 32.3052 0.160408C29.9308 -0.564381 27.5066 1.26009 27.5066 3.75936ZM22.3581 41.3734C14.8852 40.2987 8.812 34.2255 7.71232 26.7777C7.06439 22.6346 7.92701 18.3967 10.1429 14.8365C12.3588 11.2764 15.7804 8.63125 19.7838 7.3833C21.3833 6.90844 22.508 5.48386 22.508 3.80934V3.75936C22.508 1.26009 20.0837 -0.564381 17.6844 0.160408C11.9962 1.90896 7.11661 5.62597 3.91996 10.6454C0.723302 15.6648 -0.581452 21.6585 0.239502 27.5524C1.71407 38.4992 10.5615 47.3467 21.5083 48.8212C29.356 49.8709 36.6039 47.2967 41.8274 42.4981C43.6768 40.7986 43.3519 37.7744 41.1776 36.5248C39.728 35.6751 37.9285 35.95 36.6789 37.0747C33.005 40.4237 27.9064 42.1982 22.3581 41.3734Z" fill="white"/>
</svg>
