<svg width="215" height="200" viewBox="0 0 215 200" fill="none" xmlns="http://www.w3.org/2000/svg">
<g clip-path="url(#clip0)">
<path d="M197.19 171.106L187.342 179.202L195.168 167.476C189.002 157.49 178.917 148.861 178.917 148.861C178.917 148.861 157.995 166.761 157.995 180.831C157.995 194.902 167.362 199.815 178.917 199.815C190.472 199.815 199.84 194.902 199.84 180.831C199.84 177.699 198.802 174.378 197.19 171.106Z" fill="#F2F2F2"/>
<path d="M184.809 179.641V180.334C184.763 188.396 183.24 194.686 180.253 199.115C180.21 199.181 180.164 199.242 180.122 199.308L179.787 199.126L179.468 198.947C182.783 194.164 183.955 187.404 183.998 180.372C184.002 180.145 184.005 179.915 184.002 179.685C183.99 176.709 183.786 173.697 183.459 170.772C183.436 170.546 183.409 170.315 183.382 170.085C182.929 166.226 182.275 162.539 181.606 159.335C181.56 159.109 181.51 158.882 181.46 158.659C180.303 153.241 179.122 149.316 178.853 148.448C178.822 148.341 178.803 148.283 178.799 148.269L179.165 148.176L179.168 148.173L179.538 148.08C179.541 148.094 179.607 148.29 179.714 148.654C180.126 150.013 181.195 153.704 182.244 158.573C182.291 158.793 182.341 159.019 182.387 159.246C182.933 161.845 183.467 164.75 183.89 167.799C183.998 168.564 184.094 169.32 184.178 170.065C184.209 170.295 184.236 170.525 184.259 170.752C184.613 173.914 184.796 176.877 184.809 179.641Z" fill="white"/>
<path d="M182.244 158.573C181.987 158.604 181.725 158.635 181.46 158.659C180.739 158.725 180.016 158.758 179.291 158.758C176.205 158.762 173.156 158.147 170.371 156.959C170.21 157.141 170.048 157.323 169.883 157.509C172.813 158.786 176.031 159.448 179.291 159.445C180.065 159.445 180.837 159.408 181.606 159.335C181.868 159.311 182.129 159.28 182.387 159.246C184.513 158.974 186.581 158.414 188.519 157.588C188.354 157.399 188.193 157.213 188.035 157.031C186.2 157.797 184.249 158.317 182.244 158.573Z" fill="white"/>
<path d="M184.179 170.065C183.913 170.079 183.648 170.085 183.383 170.085C183.302 170.089 183.217 170.089 183.137 170.089C179.792 170.089 176.497 169.367 173.532 167.984C170.568 166.601 168.022 164.599 166.111 162.147C165.957 162.35 165.803 162.552 165.654 162.758C167.645 165.239 170.27 167.26 173.31 168.654C176.35 170.048 179.719 170.775 183.137 170.776C183.244 170.776 183.352 170.776 183.46 170.772C183.729 170.769 183.994 170.762 184.259 170.752C188.365 170.564 192.322 169.324 195.66 167.181C195.536 166.978 195.413 166.776 195.287 166.573C192.043 168.677 188.183 169.891 184.179 170.065Z" fill="white"/>
<path d="M184.809 179.641C184.54 179.661 184.271 179.675 184.001 179.685C183.713 179.696 183.425 179.703 183.136 179.703C178.642 179.698 174.27 178.394 170.676 175.985C167.081 173.576 164.457 170.192 163.196 166.339C163.023 166.618 162.85 166.892 162.685 167.17C164.106 171.014 166.846 174.359 170.517 176.732C174.189 179.105 178.604 180.385 183.136 180.389C183.425 180.389 183.713 180.386 183.998 180.372C184.271 180.365 184.54 180.351 184.809 180.334C190.245 179.955 195.317 177.744 198.997 174.151C198.916 173.897 198.824 173.646 198.731 173.392C195.177 177.012 190.183 179.254 184.809 179.641Z" fill="white"/>
<path d="M161.775 43.2442L54.6591 31.0493C54.3705 31.0162 54.0799 30.9994 53.789 30.9989C53.5022 30.9984 53.2158 31.0146 52.9314 31.0472C52.6474 31.0798 52.3662 31.129 52.0895 31.1944C51.8095 31.2611 51.5346 31.3439 51.2665 31.4423C51.0039 31.5386 50.7481 31.649 50.5006 31.773C50.2496 31.8979 50.0071 32.0359 49.7744 32.1863C49.5363 32.3406 49.3082 32.5069 49.0912 32.6843C48.8672 32.8669 48.6543 33.06 48.4534 33.2629C48.2473 33.4719 48.0533 33.6901 47.8721 33.9168C47.6891 34.1463 47.5174 34.3851 47.357 34.6331C47.1965 34.8819 47.0476 35.1406 46.9103 35.4092C46.773 35.6779 46.6477 35.9556 46.5345 36.2425C46.4173 36.5389 46.3145 36.842 46.2263 37.1517C46.138 37.4614 46.0643 37.7765 46.005 38.097C45.947 38.4171 45.9026 38.7425 45.8717 39.0732C45.8409 39.4038 45.8254 39.7385 45.8254 40.0771C45.8267 40.4155 45.8421 40.7527 45.8717 41.0889C45.9014 41.425 45.9458 41.7584 46.005 42.0891C46.0649 42.4211 46.1389 42.7498 46.2272 43.0752C46.3154 43.4006 46.4182 43.7223 46.5354 44.0403C46.6487 44.3475 46.7739 44.6477 46.9112 44.9409C47.0486 45.2343 47.1974 45.5198 47.3579 45.7972C47.5183 46.0747 47.69 46.3442 47.873 46.6057C48.0557 46.8683 48.2495 47.1209 48.4543 47.3637C48.6592 47.6064 48.8718 47.838 49.0921 48.0584C49.3124 48.2775 49.5402 48.4841 49.7753 48.6784C50.0104 48.8726 50.2525 49.0541 50.5015 49.2227C50.7477 49.3897 51.0034 49.5453 51.2675 49.6889C51.5334 49.8338 51.8081 49.9653 52.0904 50.0828C52.3642 50.1968 52.6454 50.2963 52.9323 50.3808C53.2133 50.4636 53.4997 50.5311 53.7899 50.5829C54.0773 50.634 54.3678 50.6692 54.66 50.6883L161.776 57.6851C162.088 57.7053 162.401 57.6774 162.702 57.6024C162.855 57.5644 163.004 57.5152 163.148 57.4553C163.299 57.3928 163.444 57.3202 163.582 57.2383C163.722 57.1553 163.856 57.0641 163.983 56.9655C164.116 56.862 164.242 56.7516 164.36 56.6349C164.486 56.5115 164.604 56.3824 164.714 56.248C164.827 56.1097 164.937 55.9623 165.042 55.8058C165.147 55.6493 165.246 55.486 165.339 55.316C165.433 55.146 165.52 54.9694 165.602 54.7862C165.684 54.6032 165.759 54.4139 165.829 54.2183C165.898 54.0227 165.961 53.8212 166.018 53.614C166.078 53.3997 166.13 53.1815 166.174 52.9594C166.217 52.7373 166.255 52.5119 166.285 52.2832C166.315 52.0545 166.338 51.8228 166.352 51.588C166.367 51.3533 166.375 51.1159 166.375 50.8759C166.374 50.6362 166.366 50.3976 166.352 50.1601C166.339 49.9225 166.316 49.6868 166.285 49.4529C166.255 49.219 166.218 48.987 166.174 48.7569C166.129 48.5268 166.078 48.2992 166.018 48.0741C165.961 47.8564 165.898 47.6437 165.829 47.436C165.76 47.231 165.684 47.029 165.602 46.8301C165.519 46.6311 165.432 46.4382 165.339 46.2514C165.246 46.0649 165.147 45.8839 165.042 45.7084C164.937 45.5329 164.827 45.3659 164.714 45.2074C164.6 45.049 164.482 44.8988 164.36 44.7569C164.239 44.615 164.113 44.4822 163.983 44.3585C163.856 44.2373 163.722 44.1222 163.582 44.0138C163.444 43.9076 163.3 43.8092 163.148 43.7191C163.006 43.6341 162.856 43.5581 162.702 43.4918C162.554 43.4284 162.401 43.3754 162.243 43.3331C162.09 43.2921 161.934 43.2623 161.775 43.2442" fill="#32877D"/>
<path d="M161.775 70.7484L54.6594 68.4575C54.0783 68.4446 53.4978 68.4975 52.9316 68.6149C52.646 68.6743 52.3648 68.7495 52.0897 68.8402C51.8084 68.9328 51.5336 69.0404 51.2668 69.1625C51.0033 69.2831 50.7476 69.4167 50.5008 69.5626C50.2492 69.7114 50.0068 69.8721 49.7746 70.0441C49.5363 70.2207 49.3083 70.408 49.0914 70.6054C48.8708 70.806 48.6582 71.0192 48.4537 71.2452C48.2491 71.4717 48.0553 71.7077 47.8723 71.9532C47.6894 72.1987 47.5176 72.4533 47.3572 72.7169C47.1968 72.9806 47.0479 73.2531 46.9106 73.5345C46.7733 73.8158 46.648 74.1051 46.5347 74.4024C46.4175 74.7102 46.3147 75.0229 46.2265 75.3406C46.1382 75.6583 46.0645 75.9801 46.0053 76.3061C45.9473 76.632 45.9028 76.9617 45.872 77.2951C45.8411 77.6285 45.8257 77.9646 45.8257 78.3032C45.8269 78.6418 45.8423 78.9777 45.872 79.3108C45.9016 79.6439 45.946 79.9733 46.0053 80.299C46.0651 80.6231 46.1392 80.9437 46.2274 81.2608C46.3157 81.5779 46.4184 81.8901 46.5357 82.1973C46.6489 82.4955 46.7742 82.7848 46.9115 83.0653C47.0488 83.3458 47.1977 83.6174 47.3581 83.8803C47.5186 84.1432 47.6903 84.3968 47.8733 84.6412C48.0559 84.8848 48.2497 85.119 48.4546 85.3438C48.6595 85.5687 48.8721 85.7807 49.0924 85.9799C49.3092 86.1761 49.5372 86.3622 49.7755 86.5374C50.0078 86.7081 50.2502 86.8675 50.5017 87.0148C50.7486 87.1593 51.0043 87.2914 51.2677 87.4104C51.5346 87.531 51.8094 87.6372 52.0906 87.7282C52.3658 87.8172 52.647 87.8908 52.9325 87.9485C53.2152 88.006 53.5016 88.0474 53.7902 88.0725C54.0793 88.0972 54.3699 88.1056 54.6603 88.0977L161.775 85.1876C161.933 85.1833 162.089 85.1671 162.244 85.1392C162.4 85.111 162.553 85.0713 162.702 85.0206C162.856 84.968 163.005 84.905 163.149 84.8322C163.3 84.7554 163.444 84.6695 163.582 84.5751C163.723 84.4789 163.856 84.3754 163.983 84.2651C164.116 84.1494 164.242 84.0274 164.361 83.8997C164.482 83.7697 164.6 83.6299 164.714 83.4802C164.828 83.3306 164.937 83.1732 165.042 83.0078C165.147 82.8414 165.246 82.6689 165.34 82.4904C165.433 82.3118 165.521 82.1272 165.602 81.9365C165.684 81.7428 165.759 81.5457 165.829 81.3451C165.898 81.1445 165.961 80.9379 166.019 80.7252C166.079 80.5075 166.131 80.2855 166.174 80.0593C166.218 79.8331 166.255 79.6043 166.286 79.3728C166.316 79.1405 166.338 78.9063 166.353 78.6702C166.368 78.4341 166.375 78.196 166.375 77.956C166.374 77.7182 166.367 77.4807 166.353 77.2435C166.339 77.0062 166.316 76.772 166.286 76.5409C166.256 76.3089 166.219 76.0803 166.174 75.8552C166.13 75.6301 166.078 75.4073 166.019 75.1869C165.961 74.9742 165.898 74.767 165.828 74.5653C165.759 74.3636 165.683 74.1677 165.602 73.9776C165.521 73.7874 165.434 73.6032 165.34 73.425C165.247 73.2467 165.147 73.0749 165.042 72.9096C164.937 72.744 164.828 72.5869 164.714 72.4384C164.601 72.2899 164.483 72.1506 164.361 72.0206C164.243 71.8935 164.117 71.7723 163.983 71.6573C163.857 71.5478 163.723 71.4451 163.583 71.3498C163.445 71.2561 163.3 71.171 163.149 71.0952C163.005 71.0233 162.856 70.9614 162.702 70.91C162.553 70.8601 162.4 70.8213 162.244 70.7939C162.089 70.7669 161.933 70.7517 161.775 70.7484Z" fill="#E4E4E4"/>
<path d="M161.775 96.5332L54.6591 103.529C54.3669 103.548 54.0763 103.583 53.789 103.634C53.4988 103.686 53.2124 103.753 52.9314 103.836C52.6444 103.921 52.3633 104.02 52.0895 104.134C51.8072 104.252 51.5324 104.383 51.2665 104.528C51.0025 104.672 50.7468 104.827 50.5006 104.994C50.2512 105.164 50.0092 105.346 49.7744 105.539C49.5395 105.732 49.3118 105.939 49.0912 106.159C48.8706 106.378 48.658 106.61 48.4534 106.853C48.2488 107.098 48.0551 107.351 47.8721 107.612C47.6891 107.874 47.5174 108.143 47.357 108.421C47.1965 108.698 47.0476 108.984 46.9103 109.277C46.773 109.57 46.6477 109.87 46.5345 110.178C46.4173 110.495 46.3145 110.817 46.2263 111.143C46.138 111.469 46.0643 111.797 46.005 112.128C45.947 112.459 45.9026 112.792 45.8717 113.128C45.8409 113.464 45.8254 113.801 45.8254 114.14C45.8267 114.479 45.8421 114.813 45.8717 115.144C45.9014 115.475 45.9458 115.8 46.005 116.121C46.0649 116.442 46.1389 116.757 46.2272 117.066C46.3154 117.375 46.4182 117.678 46.5354 117.975C46.6487 118.263 46.7739 118.54 46.9112 118.809C47.0486 119.077 47.1974 119.336 47.3579 119.585C47.5183 119.834 47.69 120.072 47.873 120.301C48.0542 120.528 48.2482 120.746 48.4543 120.955C48.6552 121.158 48.8681 121.351 49.0921 121.534C49.3091 121.711 49.5372 121.877 49.7753 122.032C50.008 122.182 50.2505 122.32 50.5015 122.445C50.7491 122.569 51.0049 122.679 51.2675 122.776C51.5355 122.874 51.8104 122.957 52.0904 123.024C52.3671 123.089 52.6484 123.138 52.9323 123.171C53.2167 123.203 53.5032 123.219 53.7899 123.219C54.0809 123.219 54.3715 123.202 54.66 123.169L161.775 110.977C161.934 110.958 162.09 110.929 162.243 110.888C162.401 110.845 162.554 110.792 162.702 110.729C162.856 110.663 163.006 110.587 163.148 110.502C163.3 110.412 163.444 110.313 163.582 110.207C163.722 110.099 163.856 109.984 163.983 109.862C164.111 109.738 164.237 109.605 164.36 109.464C164.482 109.322 164.6 109.172 164.714 109.013C164.827 108.855 164.937 108.688 165.042 108.512C165.147 108.338 165.246 108.157 165.339 107.969C165.433 107.781 165.52 107.589 165.602 107.391C165.684 107.192 165.759 106.989 165.829 106.781C165.898 106.573 165.961 106.361 166.018 106.143C166.078 105.918 166.13 105.69 166.174 105.46C166.217 105.23 166.255 104.998 166.285 104.764C166.315 104.53 166.338 104.294 166.352 104.057C166.367 103.819 166.375 103.58 166.375 103.34C166.373 103.102 166.366 102.865 166.352 102.63C166.338 102.396 166.316 102.164 166.285 101.935C166.255 101.706 166.218 101.48 166.174 101.258C166.129 101.036 166.078 100.817 166.018 100.603C165.961 100.396 165.898 100.194 165.829 99.9988C165.76 99.8034 165.685 99.6141 165.602 99.4309C165.52 99.2476 165.432 99.071 165.34 98.901C165.246 98.7324 165.146 98.5696 165.041 98.4125C164.936 98.2555 164.826 98.108 164.713 97.9703C164.603 97.8359 164.485 97.7068 164.36 97.5834C164.241 97.4667 164.115 97.3563 163.982 97.2528C163.855 97.1541 163.721 97.063 163.581 96.98C163.443 96.8981 163.298 96.8255 163.147 96.763C163.003 96.7031 162.854 96.6539 162.701 96.6159C162.4 96.5409 162.087 96.5129 161.775 96.5332" fill="#E4E4E4"/>
<path d="M103.391 97.815C104.07 98.8224 105.139 99.5722 106.396 99.9221C107.653 100.272 109.01 100.198 110.209 99.7131C111.408 99.2286 112.367 98.3676 112.902 97.2936C113.438 96.2197 113.513 95.0076 113.114 93.8873L133.874 55.8013L123.937 50.4219L106.008 90.877C105.94 90.9008 105.872 90.9257 105.806 90.9518C105.739 90.9778 105.673 91.0051 105.607 91.0334C105.541 91.0618 105.476 91.0916 105.411 91.123C105.346 91.1543 105.281 91.1872 105.217 91.2218C103.996 91.8799 103.118 92.9442 102.775 94.1805C102.433 95.4168 102.654 96.724 103.391 97.8145L103.391 97.815Z" fill="#9E616A"/>
<path d="M129.911 70.4875L115.163 67.112C115.163 67.112 115.644 66.1399 116.427 64.5296C117.21 62.9192 118.303 60.6737 119.533 58.1242C120.763 55.5747 122.128 52.7261 123.461 49.9103C124.794 47.0944 126.09 44.3123 127.182 41.9009C128.274 39.4894 129.514 38.0452 130.761 37.2357C131.792 36.5355 133.092 36.227 134.377 36.3773C135.375 36.5101 136.33 36.8346 137.175 37.3284C137.575 37.5506 137.951 37.8055 138.298 38.0897L141.718 43.6427L129.911 70.4875Z" fill="#CCCCCC"/>
<path d="M11.8817 67.4713C11.5245 67.4948 11.1691 67.5362 10.8172 67.5953C10.4629 67.6545 10.1126 67.7312 9.76791 67.8251C9.41793 67.9206 9.074 68.0329 8.73763 68.1615C8.39337 68.2932 8.05705 68.4408 7.73004 68.6038C7.41007 68.7644 7.09735 68.9391 6.79187 69.1278C6.4864 69.3166 6.18972 69.5194 5.90183 69.7362C5.61426 69.9525 5.33517 70.1831 5.06456 70.4281C4.79396 70.673 4.53324 70.9314 4.28238 71.203C4.03153 71.4747 3.79378 71.7562 3.56914 72.0474C3.34451 72.3387 3.13376 72.6387 2.93691 72.9476C2.7419 73.257 2.55953 73.5748 2.38983 73.9011C2.22012 74.2273 2.06585 74.5611 1.927 74.9025C1.78229 75.2566 1.65562 75.6143 1.54701 75.9758C1.43839 76.3373 1.34783 76.7019 1.27532 77.0694C1.2025 77.437 1.14789 77.8071 1.11148 78.1796C1.07507 78.5521 1.05687 78.9262 1.05688 79.3017C1.05688 79.6773 1.07508 80.048 1.11148 80.4139C1.14788 80.7798 1.20249 81.1401 1.27532 81.4947C1.34783 81.8493 1.4384 82.1976 1.54701 82.5395C1.65562 82.8815 1.78183 83.2164 1.92561 83.5443C2.0657 83.8609 2.21997 84.1671 2.38844 84.4631C2.55497 84.756 2.73786 85.0412 2.93644 85.3178C3.13191 85.5891 3.34294 85.8512 3.56868 86.103C3.79227 86.3534 4.0305 86.593 4.28237 86.821C4.53008 87.045 4.7912 87.257 5.06456 87.4558C5.33226 87.6505 5.61193 87.8317 5.90229 87.9985C6.47531 88.3278 7.08872 88.5974 7.7305 88.8019C8.3884 89.0119 9.07209 89.1506 9.76697 89.2152C10.1155 89.2473 10.4659 89.2611 10.8162 89.2566C11.1722 89.2521 11.5276 89.2296 11.8807 89.1892C12.2371 89.1487 12.5906 89.0906 12.9397 89.0152C13.2899 88.9396 13.6352 88.847 13.9741 88.7379C14.3169 88.6274 14.653 88.5009 14.9808 88.3589C15.3149 88.2142 15.6405 88.0544 15.9565 87.8803C16.2641 87.7089 16.5637 87.5251 16.8553 87.3289C17.1469 87.1327 17.4294 86.9236 17.7028 86.7015C17.9761 86.4794 18.2401 86.2452 18.4947 85.9989C18.7492 85.7526 18.9939 85.4941 19.2287 85.2236C19.4651 84.9533 19.6876 84.6748 19.8961 84.3883C20.1047 84.1017 20.3 83.8076 20.4821 83.5059C20.6642 83.2041 20.8326 82.8954 20.9875 82.5796C21.1424 82.2639 21.2836 81.9415 21.411 81.6125C21.5431 81.272 21.6586 80.9285 21.7577 80.5821C21.8567 80.2358 21.9394 79.887 22.0058 79.5357C22.0718 79.1841 22.1215 78.8307 22.1548 78.4755C22.1881 78.1204 22.2048 77.7637 22.2048 77.4055C22.2045 77.0473 22.1878 76.6935 22.1548 76.3441C22.1218 75.9947 22.0721 75.6503 22.0058 75.3109C21.9397 74.972 21.857 74.638 21.7577 74.309C21.6583 73.98 21.5428 73.6572 21.411 73.3406C21.283 73.0342 21.1418 72.7371 20.9875 72.4491C20.8311 72.162 20.6618 71.8835 20.4798 71.6134C20.1194 71.0798 19.7003 70.5796 19.2287 70.1202C18.9973 69.8942 18.7529 69.6792 18.4965 69.4758C18.244 69.2763 17.9797 69.0891 17.7046 68.915C17.4322 68.7426 17.1493 68.5838 16.8572 68.4393C16.5653 68.2949 16.2646 68.1652 15.9565 68.0508C15.3204 67.8142 14.6551 67.6456 13.9746 67.5486C13.6321 67.4998 13.2867 67.4691 12.9402 67.4564C12.5872 67.4437 12.2336 67.4489 11.8812 67.4721" fill="#E4E4E4"/>
<path d="M11.8817 106.322C11.5245 106.345 11.1691 106.387 10.8172 106.446C10.4629 106.505 10.1126 106.582 9.76791 106.676C9.41793 106.771 9.074 106.883 8.73763 107.012C8.39337 107.144 8.05705 107.291 7.73004 107.454C7.41007 107.615 7.09735 107.79 6.79187 107.978C6.4864 108.167 6.18972 108.37 5.90183 108.587C5.61426 108.803 5.33517 109.034 5.06456 109.279C4.79396 109.524 4.53324 109.782 4.28238 110.054C4.03153 110.325 3.79378 110.607 3.56914 110.898C3.34451 111.189 3.13376 111.489 2.93691 111.798C2.7419 112.108 2.55953 112.425 2.38983 112.752C2.22012 113.078 2.06585 113.412 1.927 113.753C1.78229 114.107 1.65562 114.465 1.54701 114.826C1.43839 115.188 1.34783 115.552 1.27532 115.92C1.2025 116.288 1.14789 116.658 1.11148 117.03C1.07507 117.403 1.05687 117.777 1.05688 118.152C1.05688 118.528 1.07508 118.899 1.11148 119.264C1.14788 119.63 1.20249 119.991 1.27532 120.345C1.34783 120.7 1.4384 121.048 1.54701 121.39C1.65562 121.732 1.78183 122.067 1.92561 122.395C2.0657 122.711 2.21997 123.018 2.38844 123.314C2.55497 123.607 2.73786 123.892 2.93644 124.168C3.13191 124.44 3.34294 124.702 3.56868 124.954C3.79227 125.204 4.0305 125.444 4.28237 125.672C4.53008 125.896 4.7912 126.108 5.06456 126.306C5.33226 126.501 5.61193 126.682 5.90229 126.849C6.47531 127.178 7.08872 127.448 7.7305 127.653C8.3884 127.862 9.07209 128.001 9.76697 128.066C10.1155 128.098 10.4659 128.112 10.8162 128.107C11.1722 128.103 11.5276 128.08 11.8807 128.04C12.2371 127.999 12.5906 127.941 12.9397 127.866C13.2899 127.79 13.6352 127.698 13.9741 127.588C14.3169 127.478 14.653 127.352 14.9808 127.209C15.3149 127.065 15.6405 126.905 15.9565 126.731C16.2641 126.559 16.5637 126.376 16.8553 126.18C17.1469 125.983 17.4294 125.774 17.7028 125.552C17.9761 125.33 18.2401 125.096 18.4947 124.849C18.7492 124.603 18.9939 124.345 19.2287 124.074C19.4651 123.804 19.6876 123.525 19.8961 123.239C20.1047 122.952 20.3 122.658 20.4821 122.356C20.6642 122.055 20.8326 121.746 20.9875 121.43C21.1424 121.114 21.2836 120.792 21.411 120.463C21.5431 120.123 21.6586 119.779 21.7577 119.433C21.8567 119.086 21.9394 118.738 22.0058 118.386C22.0718 118.035 22.1215 117.681 22.1548 117.326C22.1881 116.971 22.2048 116.614 22.2048 116.256C22.2045 115.898 22.1878 115.544 22.1548 115.195C22.1218 114.845 22.0721 114.501 22.0058 114.161C21.9397 113.823 21.857 113.489 21.7577 113.16C21.6583 112.831 21.5428 112.508 21.411 112.191C21.283 111.885 21.1418 111.588 20.9875 111.3C20.8311 111.013 20.6618 110.734 20.4798 110.464C20.1194 109.93 19.7003 109.43 19.2287 108.971C18.9973 108.745 18.7529 108.53 18.4965 108.326C18.244 108.127 17.9797 107.94 17.7046 107.766C17.4322 107.593 17.1493 107.434 16.8572 107.29C16.5653 107.145 16.2646 107.016 15.9565 106.901C15.3204 106.665 14.6551 106.496 13.9746 106.399C13.6321 106.35 13.2867 106.32 12.9402 106.307C12.5872 106.294 12.2336 106.299 11.8812 106.323" fill="#E4E4E4"/>
<path d="M11.8835 25.3837C11.5283 25.376 11.1729 25.3864 10.819 25.4147C10.4666 25.443 10.1163 25.4894 9.76978 25.5536C9.42133 25.6186 9.07733 25.7014 8.7395 25.8016C8.39646 25.903 8.06007 26.0215 7.73191 26.1566C7.4107 26.2887 7.09754 26.4359 6.79374 26.5976C6.48694 26.7608 6.18986 26.9383 5.9037 27.1291C5.61292 27.323 5.33333 27.5299 5.06597 27.749C4.79414 27.972 4.53295 28.2082 4.2824 28.4579C4.03154 28.7078 3.79379 28.9687 3.56915 29.2407C3.34452 29.5126 3.13378 29.7945 2.93692 30.0863C2.74099 30.3819 2.55816 30.6849 2.38846 30.9951C2.21875 31.3054 2.06448 31.6258 1.92563 31.9565C1.78184 32.2973 1.65564 32.6438 1.54702 32.9959C1.43841 33.3481 1.34784 33.7048 1.27534 34.066C1.20252 34.4283 1.14791 34.7937 1.1115 35.1621C1.07509 35.5305 1.05689 35.9024 1.0569 36.278C1.0569 36.653 1.0751 37.025 1.1115 37.3939C1.14789 37.7628 1.2025 38.1278 1.27534 38.4887C1.34785 38.8497 1.43841 39.2058 1.54702 39.5571C1.65563 39.9084 1.78184 40.2542 1.92563 40.5945C2.06571 40.9232 2.21998 41.2429 2.38846 41.5534C2.55817 41.8628 2.74144 42.163 2.93828 42.454C3.13513 42.745 3.34588 43.0256 3.57053 43.2959C3.79485 43.567 4.03259 43.8266 4.28376 44.0745C4.53493 44.3225 4.79566 44.5567 5.06595 44.7772C5.3319 44.9955 5.61011 45.2016 5.89951 45.3946C6.18571 45.5838 6.4828 45.7594 6.78955 45.9208C7.09341 46.0807 7.40657 46.2261 7.72772 46.3564C8.05596 46.4896 8.39237 46.6062 8.73532 46.7056C9.41016 46.9006 10.1079 47.0255 10.8148 47.0776C11.5227 47.13 12.2349 47.1107 12.9379 47.0202C13.2864 46.9752 13.6318 46.9125 13.9723 46.8325C14.3137 46.7522 14.6498 46.6548 14.979 46.5407C15.312 46.4254 15.6377 46.2939 15.9546 46.1469C16.2637 46.0035 16.5643 45.8461 16.8553 45.6753C17.148 45.5033 17.4308 45.3183 17.7028 45.121C17.9761 44.9226 18.2401 44.7113 18.4947 44.487C18.7492 44.2627 18.9939 44.0255 19.2287 43.7753C19.4651 43.5251 19.6876 43.2659 19.8961 42.9975C20.1047 42.7291 20.3 42.4519 20.4821 42.1659C20.6648 41.8799 20.8332 41.5858 20.9875 41.2835C21.1418 40.9812 21.283 40.6717 21.411 40.3548C21.5431 40.0258 21.6586 39.6924 21.7577 39.3546C21.8567 39.0168 21.9394 38.6751 22.0058 38.3296C22.0718 37.9827 22.1215 37.6331 22.1548 37.2807C22.1881 36.9282 22.2048 36.5729 22.2048 36.2147C22.2045 35.8568 22.1878 35.5017 22.1548 35.1492C22.1218 34.7968 22.0721 34.4481 22.0058 34.1032C21.9397 33.7579 21.857 33.4165 21.7577 33.079C21.6583 32.7415 21.5428 32.4086 21.411 32.0805C21.283 31.7633 21.1418 31.454 20.9875 31.1526C20.8332 30.8512 20.664 30.5576 20.4798 30.2718C20.2977 29.9886 20.1024 29.713 19.8938 29.4452C19.6852 29.1774 19.4635 28.9195 19.2287 28.6715C18.9955 28.4238 18.7514 28.1884 18.4965 27.9652C18.2416 27.742 17.9777 27.5322 17.7046 27.3357C17.4328 27.1396 17.1502 26.9558 16.8576 26.7852C16.5666 26.6159 16.2659 26.4602 15.9569 26.3186C15.6399 26.1732 15.3142 26.0435 14.9813 25.9301C14.652 25.8179 14.3159 25.7224 13.9746 25.6441C13.634 25.566 13.2886 25.5052 12.9402 25.4622C12.5891 25.419 12.2355 25.3936 11.8812 25.3862L11.8835 25.3837ZM11.8812 24.3521C13.436 24.3901 14.9609 24.7425 16.3411 25.3829C17.7127 26.0233 18.9284 26.9003 19.9179 27.9631C20.9522 29.0707 21.7577 30.3337 22.2969 31.6932C23.4515 34.6193 23.4515 37.8098 22.2969 40.7359C21.7572 42.0993 20.9518 43.3667 19.9179 44.4796C18.9283 45.5475 17.7127 46.4307 16.3406 47.0789C14.9622 47.7268 13.4376 48.0881 11.8807 48.1357C10.3143 48.1816 8.75713 47.9044 7.33014 47.3256C5.88956 46.7364 4.60079 45.8878 3.54461 44.833C2.42304 43.716 1.54524 42.4216 0.956433 41.0165C-0.318811 37.9577 -0.318811 34.5912 0.956433 31.5324C1.54581 30.1231 2.42345 28.8239 3.54461 27.7011C4.60047 26.6404 5.8889 25.7846 7.33014 25.1866C8.75602 24.5996 10.314 24.3136 11.8835 24.3504L11.8812 24.3521Z" fill="#32877D"/>
<path d="M11.8826 39.167L8.23682 32.3847L9.10232 31.8813L12.1052 37.453L24.7138 24.219L25.477 24.9452L11.8826 39.167Z" fill="#32877D"/>
<path d="M144.567 173.068L135.541 173.037L138.452 194.096L144.567 194.123V173.068Z" fill="#9E616A"/>
<path d="M146.126 199.422L126.419 199.329V199.107C126.419 198.655 126.468 198.204 126.566 197.761C126.76 196.887 127.146 196.056 127.703 195.317C128.268 194.567 128.992 193.924 129.834 193.423C130.665 192.929 131.597 192.588 132.577 192.419C133.074 192.334 133.579 192.292 134.085 192.295L146.126 192.348V199.422Z" fill="#2F2E41"/>
<path d="M115.668 172.968L106.669 172.937L109.57 193.967L115.668 193.994V172.968Z" fill="#9E616A"/>
<path d="M117.223 199.285L97.5686 199.193V198.971C97.5685 198.52 97.6178 198.07 97.7158 197.627C97.909 196.755 98.2941 195.925 98.8488 195.186C99.412 194.437 100.134 193.794 100.975 193.294C101.804 192.802 102.734 192.461 103.711 192.292C104.207 192.207 104.711 192.166 105.215 192.168L117.223 192.221V199.285Z" fill="#2F2E41"/>
<path d="M115.286 86.8941L100.153 137.326L105.692 185.669L117.957 185.971L115.287 142.32L130.588 120.537L133.906 186.269L145.032 185.566L151.221 129.05C153.323 124.637 154.864 120.028 155.817 115.308C156.565 111.603 156.929 107.845 156.904 104.081C156.891 101.546 156.673 99.0162 156.251 96.5101C156.101 95.5761 155.896 94.6497 155.64 93.7343L151.128 89.6496L115.286 86.8941Z" fill="#2F2E41"/>
<path d="M135.337 95.3289C132.792 95.3289 130.404 95.256 128.238 95.112C126.026 94.9765 123.826 94.7178 121.65 94.3376C119.798 94.0286 117.994 93.5214 116.277 92.8269C114.895 92.2939 113.693 91.4471 112.792 90.3707L112.688 90.2367L116.825 66.1979L121.285 39.169C121.579 37.3803 122.599 35.7505 124.151 34.5898C125.703 33.4291 127.679 32.8186 129.702 32.8744L143.672 33.2566C144.72 33.2853 145.75 33.5015 146.702 33.8924C147.655 34.2834 148.509 34.841 149.216 35.5324C149.922 36.2238 150.466 37.0347 150.815 37.9173C151.164 38.7998 151.311 39.7359 151.247 40.6701L149.413 67.5506L156.178 94.0653L155.699 94.125C155.506 94.1478 154.764 94.2353 153.601 94.3522C152.081 94.5048 150.529 94.6422 148.988 94.7609C146.808 94.9287 144.675 95.0607 142.647 95.1532C140.076 95.2702 137.612 95.3269 135.337 95.3289Z" fill="#CCCCCC"/>
<path d="M127.585 28.0979C127.581 28.0979 127.577 28.0979 127.573 28.0979C127.28 28.0977 126.99 28.046 126.719 27.9457C126.449 27.8454 126.203 27.6984 125.996 27.5133C125.789 27.3281 125.624 27.1083 125.512 26.8664C125.4 26.6246 125.343 26.3654 125.343 26.1037V14.9817C125.341 12.989 125.787 11.0164 126.656 9.18094C128.357 5.59917 131.54 2.74175 135.543 1.20417C138.074 0.234687 140.835 -0.159093 143.578 0.0580845C146.321 0.275262 148.962 1.09662 151.262 2.4486C153.563 3.80059 155.452 5.641 156.761 7.80503C158.07 9.96906 158.757 12.3891 158.762 14.8486V25.9875C158.762 26.2556 158.702 26.521 158.585 26.7679C158.355 27.2494 157.927 27.6332 157.388 27.8391C157.111 27.9445 156.814 27.9992 156.514 27.9999L127.583 28.0979H127.585Z" fill="#2F2E41"/>
<path d="M149.597 11.1673C150.762 13.068 151.271 15.2345 151.058 17.393C150.846 19.5516 149.921 21.6056 148.402 23.2954C146.883 24.9852 144.837 26.2351 142.523 26.8873C140.209 27.5395 137.731 27.5647 135.4 26.9597C133.857 26.5637 132.418 25.8983 131.165 25.002C129.912 24.1057 128.871 22.9962 128.101 21.738C126.939 19.8381 126.432 17.6734 126.645 15.5168C126.859 13.3602 127.782 11.3082 129.299 9.61958C130.817 7.93098 132.86 6.68135 135.172 6.02826C137.483 5.37517 139.959 5.34785 142.288 5.94976C143.833 6.34423 145.274 7.0086 146.529 7.90432C147.783 8.80004 148.826 9.90928 149.597 11.1677V11.1673Z" fill="#9E616A"/>
<path d="M121.393 15.8868C121.391 14.3109 121.744 12.7507 122.431 11.2991C123.776 8.46685 126.294 6.20748 129.459 4.99211C131.082 4.37083 132.83 4.04755 134.596 4.04151L137.089 4.03035C137.117 4.0302 137.145 4.03014 137.173 4.03015C138.899 4.0311 140.608 4.33565 142.203 4.92641C143.797 5.51716 145.245 6.38257 146.465 7.4732C147.685 8.56383 148.652 9.85833 149.312 11.2828C149.971 12.7073 150.31 14.2338 150.309 15.7752V15.998L145.036 16.017L143.238 11.531L142.878 16.0257L140.154 16.0364L139.248 13.7732L139.066 16.0393L121.395 16.11L121.393 15.8868Z" fill="#2F2E41"/>
<path d="M100.162 39.284C99.3508 39.4613 98.592 39.7934 97.938 40.2575C97.4269 40.6186 96.9898 41.0562 96.6462 41.5508C95.9688 42.5297 95.6703 43.6802 95.7967 44.8253C95.8605 45.4039 96.0362 45.9681 96.316 46.493C96.661 47.1471 97.1573 47.7284 97.7724 48.1986C98.3875 48.6688 99.1073 49.0171 99.8842 49.2206C100.661 49.4241 101.478 49.4781 102.28 49.379C103.082 49.28 103.851 49.0301 104.537 48.646C104.588 48.6169 104.638 48.5873 104.687 48.5573C104.737 48.5273 104.785 48.4967 104.833 48.4654C104.881 48.4341 104.929 48.4023 104.975 48.3701C105.021 48.3378 105.068 48.305 105.113 48.2718L134.213 57.5202C135.108 57.8046 136.083 57.8216 136.99 57.5686C137.897 57.3156 138.688 56.8063 139.243 56.1174L146.141 47.5877L137.801 42.5721L133.424 47.0123L106.793 42.2817C106.763 42.2201 106.733 42.1587 106.702 42.0977C106.671 42.0367 106.639 41.976 106.605 41.9155C106.57 41.8552 106.535 41.7952 106.498 41.7356C106.462 41.6759 106.423 41.6167 106.383 41.558C105.747 40.6412 104.803 39.9275 103.686 39.5191C102.569 39.1106 101.335 39.0283 100.162 39.284Z" fill="#9E616A"/>
<path d="M133.893 44.2121C134.764 43.242 135.981 41.9824 137.217 40.7332C138.454 39.4839 139.709 38.2457 140.655 37.3194C141.602 36.3932 142.239 35.7793 142.239 35.7793C143.113 34.5996 144.417 33.7263 145.93 33.3079C147.443 32.8894 149.071 32.9515 150.539 33.4836C152.006 34.0158 153.222 34.9851 153.98 36.2271C154.738 37.469 154.991 38.9069 154.696 40.2965C154.528 41.0965 154.18 41.8579 153.673 42.5347C153.673 42.5347 152.724 43.644 151.291 45.2999C149.858 46.9557 147.941 49.16 146.007 51.3514C144.073 53.5427 142.12 55.7228 140.614 57.332C139.108 58.9412 138.049 59.9808 137.899 59.8918L132.647 45.9501C132.498 45.861 133.023 45.1822 133.893 44.2121Z" fill="#CCCCCC"/>
<path d="M137.011 27.7474C136.928 28.107 136.96 28.48 137.103 28.8241C137.175 29.0002 137.274 29.1664 137.398 29.318C137.503 29.4471 137.626 29.5646 137.762 29.668C138.167 29.9734 138.68 30.14 139.21 30.138C139.243 30.1377 139.276 30.1369 139.309 30.1355C139.342 30.1341 139.375 30.132 139.408 30.1293C139.441 30.1268 139.475 30.1235 139.508 30.1194C139.541 30.1152 139.574 30.1105 139.607 30.1053L141.479 29.8015L144.057 24.8832V29.3882L152.567 28.0202V8.9028L138.301 8.96397L138.653 9.32974C139.824 10.5571 140.593 12.049 140.875 13.6413C141.152 15.2542 141.117 16.8974 140.772 18.4997C140.437 20.1211 139.928 21.7099 139.253 23.2444C138.663 24.6039 137.985 25.9318 137.224 27.2217C137.126 27.3871 137.054 27.5641 137.011 27.7474Z" fill="#2F2E41"/>
<path d="M38.1967 200H214.537C214.66 200 214.778 199.956 214.864 199.879C214.951 199.801 215 199.696 215 199.587C215 199.477 214.951 199.372 214.864 199.294C214.778 199.217 214.66 199.173 214.537 199.173H38.1967C38.074 199.173 37.9562 199.217 37.8694 199.294C37.7826 199.372 37.7339 199.477 37.7339 199.587C37.7339 199.696 37.7826 199.801 37.8694 199.879C37.9562 199.956 38.074 200 38.1967 200Z" fill="#CACACA"/>
</g>
<defs>
<clipPath id="clip0">
<rect width="215" height="200" fill="white"/>
</clipPath>
</defs>
</svg>
