<svg width="289" height="255" viewBox="0 0 289 255" fill="none" xmlns="http://www.w3.org/2000/svg">
<g clip-path="url(#clip0)">
<path d="M289 253.656H93.9782V254.441H289V253.656Z" fill="#3F3D56"/>
<path d="M252.604 120.139C252.98 120.551 253.258 121.032 253.422 121.551C253.586 122.069 253.631 122.614 253.555 123.15C253.478 123.686 253.282 124.201 252.979 124.662C252.676 125.123 252.273 125.519 251.795 125.825L231.612 138.76L222.725 144.29C222.22 144.605 221.608 144.732 221.008 144.648C220.408 144.565 219.863 144.275 219.478 143.837C219.254 143.581 219.093 143.284 219.004 142.964C218.915 142.644 218.902 142.31 218.965 141.986C219.029 141.661 219.167 141.353 219.37 141.082C219.573 140.812 219.837 140.586 220.143 140.42L228.751 135.755L243.774 122.399L234.116 112.716L241.27 107.708L252.604 120.139Z" fill="#A0616A"/>
<path d="M205.143 241.932H200.206L197.273 203.868L209.793 203.535L205.143 241.932Z" fill="#A0616A"/>
<path d="M205.5 254.286C204.184 254.847 203.081 250.303 201.971 251.322C198.865 254.171 194.109 254.791 189.963 253.547L191.414 253.532C191.164 253.457 190.932 253.336 190.734 253.175C190.536 253.014 190.375 252.817 190.26 252.596C190.146 252.375 190.08 252.135 190.068 251.89C190.056 251.645 190.098 251.4 190.19 251.17C190.3 250.896 190.481 250.65 190.715 250.455C190.95 250.259 191.232 250.12 191.537 250.049L194.84 249.278L200.027 240.764L205.322 240.43C206.502 241.834 207.326 243.471 207.731 245.215C208.136 246.96 208.112 248.768 207.661 250.503C207.181 252.333 206.439 253.886 205.5 254.286Z" fill="#2F2E41"/>
<path d="M238.016 241.932H233.078L230.146 203.868L243.023 201.531L238.016 241.932Z" fill="#A0616A"/>
<path d="M238.373 254.286C237.057 254.847 235.954 250.303 234.844 251.322C231.738 254.171 226.981 254.791 222.835 253.547L224.286 253.532C224.036 253.457 223.805 253.336 223.607 253.175C223.408 253.014 223.247 252.817 223.133 252.596C223.018 252.375 222.953 252.135 222.941 251.89C222.929 251.645 222.97 251.4 223.063 251.17C223.173 250.896 223.353 250.65 223.588 250.455C223.823 250.259 224.105 250.12 224.41 250.049L227.713 249.278L232.9 240.764L238.552 240.096L238.695 240.314C239.788 241.958 240.492 243.8 240.761 245.718C241.031 247.637 240.859 249.587 240.257 251.438C239.787 252.844 239.147 253.957 238.373 254.286Z" fill="#2F2E41"/>
<path d="M243.613 108.569C239.073 109.159 235.93 111.48 234.65 116.11L226.304 101.726C225.809 100.812 225.684 99.7624 225.951 98.769C226.218 97.7756 226.86 96.9053 227.758 96.3176C228.712 95.6939 229.885 95.4341 231.037 95.5915C232.189 95.7489 233.233 96.3117 233.956 97.1644L243.613 108.569Z" fill="#37877D"/>
<path d="M252.359 199.862C232.067 208.242 211.301 209.274 190.12 203.869C197.854 175.866 206.987 150.545 206.931 129.745L227.678 128.075L230.872 132.802C238.451 144.018 243.682 156.473 246.289 169.508L252.359 199.862Z" fill="#2F2E41"/>
<path d="M218.377 86.6728C224.304 86.6728 229.108 82.1882 229.108 76.6561C229.108 71.124 224.304 66.6394 218.377 66.6394C212.451 66.6394 207.647 71.124 207.647 76.6561C207.647 82.1882 212.451 86.6728 218.377 86.6728Z" fill="#A0616A"/>
<path d="M230.181 94.3522L216.947 95.02L214.801 84.0015L225.531 82.3323L230.181 94.3522Z" fill="#A0616A"/>
<path d="M228.751 129.745L214.251 130.126L206.931 131.08C203.338 120.001 200.313 108.947 207.647 99.6946L216.231 91.6812L229.108 91.3473L229.279 91.4383C231.324 92.532 232.909 94.2433 233.772 96.2903C234.636 98.3372 234.727 100.598 234.03 102.699C230.834 112.393 228.782 121.546 228.751 129.745Z" fill="#37877D"/>
<path d="M206.574 160.797L205.674 172.27C205.626 172.885 205.342 173.463 204.873 173.897C204.405 174.331 203.784 174.593 203.126 174.634C202.746 174.658 202.365 174.607 202.008 174.486C201.651 174.364 201.324 174.175 201.049 173.929C200.775 173.684 200.558 173.387 200.413 173.059C200.268 172.731 200.197 172.378 200.206 172.023L200.493 160.797L209.435 129.077L209.793 109.711L219.808 109.377L219.093 131.748L206.574 160.797Z" fill="#A0616A"/>
<path d="M220.881 111.047C216.635 109.435 212.669 109.975 209.077 113.384L209.569 97.0333C209.631 96.0107 210.086 95.0433 210.85 94.3083C211.614 93.5733 212.636 93.1198 213.729 93.0311C214.89 92.9369 216.044 93.2604 216.957 93.9353C217.87 94.6101 218.472 95.5852 218.64 96.6609L220.881 111.047Z" fill="#37877D"/>
<path d="M241.091 121.231H208.183C215.86 102.255 218.336 84.6021 208.183 69.4774C208.358 64.9347 214.599 60.9965 219.447 61.4316C225.172 61.9454 232.865 65.8725 233.937 71.1469L241.091 121.231Z" fill="#2F2E41"/>
<path d="M136.215 60.5975H134.714V22.2149C134.714 19.2976 134.098 16.4088 132.902 13.7136C131.706 11.0184 129.953 8.56942 127.743 6.50657C125.534 4.44373 122.91 2.8074 120.023 1.691C117.135 0.574603 114.04 6.51644e-06 110.915 1.52589e-05H23.7988C20.6735 8.81709e-06 17.5788 0.57461 14.6914 1.69101C11.804 2.80741 9.18045 4.44374 6.97054 6.50658C4.76062 8.56942 3.00762 11.0184 1.81162 13.7136C0.615627 16.4088 5.75846e-05 19.2976 6.10352e-05 22.2149V232.785C5.85705e-05 235.702 0.615626 238.591 1.81162 241.286C3.00762 243.982 4.76062 246.431 6.97054 248.493C9.18045 250.556 11.804 252.193 14.6914 253.309C17.5788 254.425 20.6735 255 23.7988 255H110.915C114.04 255 117.135 254.425 120.023 253.309C122.91 252.193 125.534 250.556 127.743 248.493C129.953 246.431 131.706 243.982 132.902 241.286C134.098 238.591 134.714 235.702 134.714 232.785V87.919H136.215V60.5975Z" fill="#3F3D56"/>
<path d="M111.875 5.77956H100.504C101.027 6.97634 101.226 8.2748 101.085 9.56055C100.944 10.8463 100.466 12.0799 99.6936 13.1527C98.9213 14.2254 97.8781 15.1044 96.6561 15.7122C95.4341 16.32 94.0708 16.638 92.6861 16.6381H42.7782C41.3936 16.638 40.0302 16.32 38.8082 15.7122C37.5862 15.1044 36.5431 14.2254 35.7707 13.1527C34.9984 12.0799 34.5205 10.8463 34.3792 9.56056C34.2379 8.2748 34.4375 6.97634 34.9605 5.77956H24.3394C22.0055 5.77955 19.6944 6.20866 17.5382 7.04237C15.3819 7.87608 13.4226 9.09808 11.7723 10.6386C10.122 12.1791 8.81285 14.0079 7.9197 16.0207C7.02654 18.0335 6.56684 20.1907 6.56683 22.3693V232.631C6.56683 234.809 7.02653 236.967 7.91969 238.979C8.81285 240.992 10.122 242.821 11.7723 244.361C13.4226 245.902 15.3819 247.124 17.5382 247.958C19.6944 248.791 22.0055 249.22 24.3394 249.22H111.875C114.209 249.22 116.52 248.791 118.677 247.958C120.833 247.124 122.792 245.902 124.443 244.361C126.093 242.821 127.402 240.992 128.295 238.979C129.188 236.967 129.648 234.809 129.648 232.631V22.3693C129.648 17.9694 127.776 13.7498 124.443 10.6386C121.11 7.52739 116.589 5.77955 111.875 5.77956Z" fill="white"/>
<path d="M114.277 38.6239H21.9379V112.554H114.277V38.6239Z" fill="#E6E6E6"/>
<path d="M49.3393 127.971C53.0708 127.971 56.0958 125.147 56.0958 121.664C56.0958 118.181 53.0708 115.357 49.3393 115.357C45.6078 115.357 42.5828 118.181 42.5828 121.664C42.5828 125.147 45.6078 127.971 49.3393 127.971Z" fill="#37877D"/>
<path d="M52.7177 121.139H49.9025V118.511H48.7764V121.139H45.9612V122.19H48.7764V124.818H49.9025V122.19H52.7177V121.139Z" fill="white"/>
<path d="M84.9987 127.971C88.7302 127.971 91.7552 125.147 91.7552 121.664C91.7552 118.181 88.7302 115.357 84.9987 115.357C81.2672 115.357 78.2422 118.181 78.2422 121.664C78.2422 125.147 81.2672 127.971 84.9987 127.971Z" fill="#37877D"/>
<path d="M88.377 122.19V121.139H81.6205V122.19H88.377Z" fill="white"/>
<path d="M71.5513 47.8441H64.2542C63.9976 47.8441 63.7515 47.9392 63.5701 48.1086C63.3887 48.278 63.2867 48.5077 63.2867 48.7472V51.7369C63.2867 51.9764 63.3887 52.2061 63.5701 52.3755C63.7515 52.5449 63.9976 52.64 64.2542 52.64H65.4634V57.1197H70.3421V52.64H71.5513C71.8079 52.64 72.054 52.5449 72.2354 52.3755C72.4168 52.2061 72.5187 51.9764 72.5187 51.7369V48.7472C72.5187 48.5077 72.4168 48.278 72.2354 48.1086C72.054 47.9393 71.8079 47.8441 71.5513 47.8441Z" fill="#37877D"/>
<path d="M78.8602 75.2064C74.3912 69.1023 72.1066 61.8345 72.3336 54.4441C72.3376 54.2736 72.2783 54.107 72.1658 53.9726C72.0532 53.8383 71.8943 53.7445 71.716 53.7071V52.4152H64.0093V53.6891H63.9031C63.7992 53.6892 63.6964 53.7085 63.6005 53.7457C63.5046 53.7829 63.4175 53.8374 63.3442 53.906C63.2709 53.9746 63.2127 54.0561 63.1731 54.1457C63.1335 54.2353 63.1132 54.3313 63.1133 54.4282C63.1133 54.4462 63.114 54.4641 63.1155 54.482C63.7226 62.3822 61.6724 69.4669 56.9649 75.7363C56.694 76.0965 56.5556 76.5291 56.5705 76.9691L57.4132 101.301C57.4334 101.844 57.6775 102.358 58.0943 102.737C58.5112 103.116 59.0687 103.33 59.6504 103.334H77.0818C77.6702 103.33 78.2335 103.111 78.6516 102.724C79.0698 102.338 79.3098 101.814 79.3204 101.265L79.6452 77.6408C79.6548 76.7737 79.381 75.9245 78.8602 75.2064Z" fill="#3F3D56"/>
<path opacity="0.2" d="M70.0301 48.8183C70.0301 49.335 69.8102 49.8306 69.4188 50.1959C69.0274 50.5613 68.4965 50.7666 67.9429 50.7666C67.3893 50.7666 66.8584 50.5613 66.467 50.1959C66.0756 49.8306 65.8557 49.335 65.8557 48.8183" fill="black"/>
<path d="M76.1007 83.2888H73.9899C73.7884 82.0681 73.1255 80.9551 72.1212 80.1511C71.1169 79.347 69.8375 78.905 68.5144 78.905C67.1913 78.905 65.9119 79.347 64.9076 80.1511C63.9033 80.9551 63.2405 82.0681 63.0389 83.2888H60.928C60.7034 83.2888 60.4815 83.3341 60.2774 83.4217C60.0733 83.5092 59.892 83.6369 59.7457 83.7961C59.5995 83.9552 59.4918 84.1419 59.4301 84.3435C59.3685 84.5451 59.3542 84.7567 59.3884 84.964L61.6812 98.8754H74.8468L77.6318 85.0108C77.6739 84.8008 77.666 84.5847 77.6086 84.3779C77.5511 84.1711 77.4456 83.9786 77.2994 83.8142C77.1532 83.6498 76.97 83.5175 76.7628 83.4267C76.5557 83.3359 76.3296 83.2888 76.1007 83.2888V83.2888Z" fill="#37877D"/>
<path d="M114.277 142.687H21.9379V216.618H114.277V142.687Z" fill="#E6E6E6"/>
<path d="M49.3393 232.034C53.0708 232.034 56.0958 229.211 56.0958 225.728C56.0958 222.244 53.0708 219.421 49.3393 219.421C45.6078 219.421 42.5828 222.244 42.5828 225.728C42.5828 229.211 45.6078 232.034 49.3393 232.034Z" fill="#37877D"/>
<path d="M52.7177 225.202H49.9025V222.574H48.7764V225.202H45.9612V226.253H48.7764V228.881H49.9025V226.253H52.7177V225.202Z" fill="white"/>
<path d="M84.9987 232.034C88.7302 232.034 91.7552 229.211 91.7552 225.728C91.7552 222.244 88.7302 219.421 84.9987 219.421C81.2672 219.421 78.2422 222.244 78.2422 225.728C78.2422 229.211 81.2672 232.034 84.9987 232.034Z" fill="#37877D"/>
<path d="M88.377 226.253V225.202H81.6205V226.253H88.377Z" fill="white"/>
<path d="M86.2855 195.209L86.3364 195.209C88.075 195.222 89.7776 194.746 91.2221 193.843C92.6666 192.94 93.7859 191.651 94.4341 190.146C96.4766 185.325 96.9549 180.049 95.8093 174.977C94.6637 169.904 91.9448 165.258 87.9912 161.617C84.0376 157.976 79.024 155.501 73.5746 154.5C68.1252 153.499 62.4808 154.017 57.3442 155.988C52.2077 157.96 47.8058 161.298 44.6869 165.588C41.5679 169.877 39.8696 174.928 39.8033 180.112C39.7371 185.296 41.306 190.384 44.3145 194.741C47.323 199.099 51.6383 202.535 56.7231 204.62C58.3035 205.273 60.0584 205.465 61.7578 205.171C63.4572 204.877 65.0216 204.11 66.246 202.971C68.8722 200.507 71.9951 198.552 75.4344 197.22C78.8738 195.888 82.5617 195.204 86.2855 195.209Z" fill="white"/>
<path d="M71.7429 187.209C76.9061 187.209 81.0917 183.302 81.0917 178.483C81.0917 173.663 76.9061 169.756 71.7429 169.756C66.5798 169.756 62.3942 173.663 62.3942 178.483C62.3942 183.302 66.5798 187.209 71.7429 187.209Z" fill="#F9A825"/>
</g>
<defs>
<clipPath id="clip0">
<rect width="289" height="255" fill="white"/>
</clipPath>
</defs>
</svg>
