<svg width="25" height="25" viewBox="0 0 25 25" fill="none" xmlns="http://www.w3.org/2000/svg">
<path d="M12.5 0C5.5971 0 0 5.5971 0 12.5C0 19.4029 5.5971 25 12.5 25C19.4029 25 25 19.4029 25 12.5C25 5.5971 19.4029 0 12.5 0ZM10.2679 16.7411C10.2679 16.8638 10.1674 16.9643 10.0446 16.9643H8.70536C8.58259 16.9643 8.48214 16.8638 8.48214 16.7411V8.25893C8.48214 8.13616 8.58259 8.03571 8.70536 8.03571H10.0446C10.1674 8.03571 10.2679 8.13616 10.2679 8.25893V16.7411ZM16.5179 16.7411C16.5179 16.8638 16.4174 16.9643 16.2946 16.9643H14.9554C14.8326 16.9643 14.7321 16.8638 14.7321 16.7411V8.25893C14.7321 8.13616 14.8326 8.03571 14.9554 8.03571H16.2946C16.4174 8.03571 16.5179 8.13616 16.5179 8.25893V16.7411Z" fill="#E6E6E6"/>
</svg>
