<svg width="240" height="180" viewBox="0 0 240 180" fill="none" xmlns="http://www.w3.org/2000/svg">
<g clip-path="url(#clip0)">
<path opacity="0.1" d="M139.442 29.6765C124.056 29.0743 109.404 23.5139 95.4198 17.4237C81.4358 11.3334 67.5664 4.58485 52.5493 1.35881C42.8794 -0.716409 31.8327 -1.0082 24.0501 4.79727C16.5613 10.381 14.1408 20.0218 12.8409 28.9646C11.8618 35.6944 11.2869 42.7791 13.9679 49.0771C15.8302 53.4517 19.1361 57.1282 21.4233 61.3184C29.385 75.8939 23.7606 93.8706 15.1344 108.105C11.089 114.781 6.39781 121.152 3.2773 128.26C0.156796 135.368 -1.2868 143.512 1.44416 150.763C4.15221 157.948 10.5995 163.347 17.5862 167.143C31.7764 174.846 48.4976 177.061 64.8021 178.313C100.896 181.079 137.182 179.881 173.372 178.681C186.764 178.238 200.217 177.787 213.391 175.467C220.709 174.178 228.262 172.134 233.574 167.194C240.317 160.926 241.988 150.312 237.47 142.45C229.891 129.266 208.931 125.993 203.638 111.843C200.721 104.055 203.717 95.3785 207.954 88.1561C217.045 72.6609 232.28 59.0681 233.085 41.3552C233.635 29.191 226.31 17.0105 214.984 11.2424C203.111 5.21045 186.654 5.96911 177.894 15.9554C168.877 26.2497 153.028 30.2064 139.442 29.6765Z" fill="#37877D"/>
<g opacity="0.5">
<path opacity="0.5" d="M104.314 93.9762L97.344 94.1373L96.2046 95.8903V101.948L97.6273 103.064H104.314L105.737 101.311V95.5705L104.314 93.9762Z" fill="#37877D"/>
<path opacity="0.2" d="M104.168 94.9325C104.168 94.9325 97.7669 96.0483 97.1982 94.9325L97.3419 94.1365L104.168 93.9684V94.9325Z" fill="white"/>
<path opacity="0.5" d="M104.883 111.511L106.02 112.788V118.857L104.883 120.113C104.883 120.113 100.758 121.707 98.0544 120.43L96.7732 118.997V112.928L97.9127 111.492L104.883 111.511Z" fill="#37877D"/>
<path opacity="0.2" d="M104.597 112.946C104.597 112.946 99.6188 114.221 97.9127 112.946V111.511H104.883L104.597 112.946Z" fill="white"/>
<path opacity="0.5" d="M102.179 103.021V111.644C102.163 111.985 102.027 112.306 101.8 112.535C101.574 112.764 101.276 112.884 100.971 112.867C100.666 112.884 100.368 112.764 100.141 112.535C99.9149 112.306 99.7787 111.985 99.7625 111.644V103.021C99.7625 102.288 100.387 101.721 101.112 101.805C101.393 101.824 101.657 101.959 101.854 102.184C102.051 102.408 102.167 102.706 102.179 103.021Z" fill="#37877D"/>
<path opacity="0.5" d="M115.478 94.2228L108.507 94.3816L107.368 96.1346V102.192L108.791 103.308H115.478L116.9 101.555V95.8148L115.478 94.2228Z" fill="#37877D"/>
<path opacity="0.2" d="M115.334 95.1775C115.334 95.1775 108.932 96.2933 108.364 95.1775L108.505 94.3815L115.334 94.2228V95.1775Z" fill="white"/>
<path opacity="0.5" d="M116.042 111.756L117.179 113.033V119.102L116.042 120.365C116.042 120.365 111.915 121.959 109.214 120.682L107.933 119.249V113.192L109.072 111.756H116.042Z" fill="#37877D"/>
<path opacity="0.2" d="M115.761 113.192C115.761 113.192 110.782 114.466 109.076 113.192V111.756H116.042L115.761 113.192Z" fill="white"/>
<path opacity="0.5" d="M113.334 103.266V111.889C113.317 112.23 113.181 112.55 112.955 112.779C112.728 113.009 112.43 113.128 112.126 113.112C111.821 113.129 111.522 113.009 111.296 112.78C111.069 112.551 110.932 112.231 110.916 111.889V103.266C110.916 102.533 111.54 101.966 112.267 102.05C112.548 102.069 112.812 102.204 113.009 102.429C113.206 102.653 113.322 102.951 113.334 103.266Z" fill="#37877D"/>
<path opacity="0.5" d="M129.689 98.8331L123.95 98.9662L123.012 100.409V105.395L124.183 106.315H129.689L130.859 104.87V100.145L129.689 98.8331Z" fill="#37877D"/>
<path opacity="0.2" d="M129.57 99.6221C129.57 99.6221 124.302 100.539 123.833 99.6221L123.95 98.9661L129.574 98.8331L129.57 99.6221Z" fill="white"/>
<path opacity="0.5" d="M130.155 113.269L131.093 114.319V119.305L130.155 120.356C130.155 120.356 126.76 121.667 124.531 120.617L123.477 119.436V114.45L124.414 113.269H130.155Z" fill="#37877D"/>
<path opacity="0.2" d="M129.922 114.45C129.922 114.45 125.822 115.5 124.418 114.45V113.269H130.155L129.922 114.45Z" fill="white"/>
<path opacity="0.5" d="M127.93 106.28V113.378C127.917 113.66 127.805 113.923 127.618 114.112C127.431 114.3 127.186 114.398 126.935 114.384C126.684 114.398 126.438 114.3 126.252 114.112C126.066 113.923 125.954 113.659 125.941 113.378V106.28C125.949 106.129 125.985 105.983 126.046 105.849C126.108 105.715 126.194 105.598 126.298 105.503C126.403 105.409 126.524 105.34 126.654 105.302C126.783 105.263 126.919 105.255 127.051 105.278C127.282 105.294 127.5 105.405 127.662 105.59C127.825 105.775 127.92 106.021 127.93 106.28Z" fill="#37877D"/>
<path opacity="0.5" d="M138.877 99.0362L133.138 99.1669L132.203 100.61V105.598L133.374 106.515H138.877L140.048 105.073V100.348L138.877 99.0362Z" fill="#37877D"/>
<path opacity="0.2" d="M138.761 99.8229C138.761 99.8229 133.49 100.743 133.022 99.8229L133.138 99.1669L138.763 99.0362L138.761 99.8229Z" fill="white"/>
<path opacity="0.5" d="M139.346 113.472L140.281 114.52V119.506L139.346 120.556C139.346 120.556 135.948 121.868 133.721 120.82L132.67 119.646V114.653L133.607 113.472H139.346Z" fill="#37877D"/>
<path opacity="0.2" d="M139.111 114.653C139.111 114.653 135.013 115.701 133.607 114.653V113.472H139.346L139.111 114.653Z" fill="white"/>
<path opacity="0.5" d="M137.121 106.48V113.577C137.108 113.858 136.995 114.122 136.809 114.31C136.622 114.499 136.376 114.597 136.125 114.583C135.874 114.597 135.629 114.499 135.442 114.31C135.255 114.122 135.143 113.858 135.13 113.577V106.48C135.13 105.878 135.65 105.411 136.242 105.481C136.473 105.497 136.69 105.607 136.853 105.792C137.015 105.976 137.111 106.222 137.121 106.48Z" fill="#37877D"/>
</g>
<path d="M218.531 124.798C218.084 123.89 217.246 123.292 216.365 123.017C215.473 122.777 214.552 122.712 213.64 122.825C212.168 122.943 210.708 123.212 209.28 123.631C208.395 123.892 207.476 124.242 206.878 125.031C206.862 125.055 206.843 125.083 206.824 125.106C205.91 125.374 205.002 125.788 204.116 126.124C203.228 126.454 202.324 126.729 201.408 126.948C202.606 126.184 203.773 125.377 204.76 124.298C205.227 123.791 205.645 123.231 206.01 122.627C206.686 122.844 207.396 122.897 208.093 122.783C209.503 122.513 210.643 121.383 211.703 120.281L215.113 116.765C215.657 116.205 216.209 115.631 216.571 114.898C217.061 113.878 217.104 112.664 217.117 111.499C217.134 109.898 217.117 108.296 217.075 106.697L218.154 107.631C217.99 105.659 218.318 103.674 219.1 101.898C219.475 101.051 219.967 100.208 219.977 99.258C219.994 97.792 218.869 96.6388 217.717 95.9899C216.565 95.341 215.269 94.9254 214.326 93.9287C212.922 92.4464 212.659 90.0817 211.965 88.0508C211.554 86.9389 211.066 85.8642 210.507 84.8365L209.157 82.1987C208.479 80.8087 207.722 79.4684 206.891 78.186C205.487 76.1108 203.718 74.3997 201.962 72.7073L192.83 63.8906C190.609 61.7453 188.38 59.5977 185.979 57.7209C181.106 53.9136 175.609 51.2992 170.147 48.7104C168.772 48.0568 167.341 47.3939 165.854 47.4732C164.733 47.5546 163.672 48.0637 162.846 48.9158C162.063 48.6494 161.297 48.3234 160.554 47.9401L160.496 47.9098C160.512 47.772 160.531 47.6366 160.544 47.4989C160.562 47.3168 160.573 47.1348 160.585 46.9503C160.997 46.8793 161.395 46.7334 161.764 46.5185C161.952 46.4192 162.118 46.275 162.25 46.096C162.418 45.7843 162.503 45.4258 162.498 45.0619C162.664 42.6225 162.831 40.1598 162.652 37.7321C162.473 35.3044 161.929 32.8463 160.777 30.7828C160.421 30.1432 159.975 29.5199 159.356 29.2421C158.523 28.8686 157.559 29.2165 156.669 29.0484C155.13 28.7566 154.169 27.0689 153.055 25.8247C150.236 22.6757 145.416 22.2018 142.162 24.7509C140.929 25.7196 139.942 27.0339 138.842 28.1917C137.742 29.3495 136.452 30.3976 134.967 30.6241C134.693 30.637 134.425 30.7167 134.182 30.8575C133.878 31.0722 133.74 31.4854 133.624 31.8683C133.207 33.1895 132.807 34.5457 132.68 35.9276C132.665 35.8436 132.653 35.7596 132.64 35.6755C132.584 36.1873 132.572 36.7041 132.605 37.2185C132.647 37.8741 132.816 38.5115 133.101 39.086C133.338 39.6321 133.742 40.0646 134.24 40.3045C134.592 40.4442 134.964 40.5114 135.338 40.5029H135.503C135.442 40.6827 135.384 40.8624 135.33 41.0445C134.866 42.5871 134.63 44.2044 134.632 45.8322C134.632 54.0023 140.45 60.6225 147.633 60.6225C148.497 60.6178 149.359 60.5161 150.205 60.319C150.486 60.4194 150.768 60.5221 151.038 60.6318C151.593 60.8372 152.137 61.0772 152.667 61.3508C152.892 61.4699 153.803 62.0651 154.903 62.8331L154.828 63.0082C153.755 64.1313 152.967 65.554 152.547 67.1304C152.126 68.7068 152.087 70.3802 152.434 71.979C153.23 75.4501 155.84 78.4264 155.578 82.0003C155.54 82.5092 155.444 83.025 155.521 83.5293C155.628 84.2296 156.05 84.7991 156.473 85.3174C156.84 85.7702 157.221 86.2091 157.609 86.6386C157.577 88.9192 157.4 91.1975 157.209 93.4712C157.192 93.6696 157.188 93.8703 157.186 94.0734C157.197 95.0564 157.515 96.0039 158.086 96.7509C158.69 97.5749 158.931 98.8098 158.817 99.9116C158.652 101.49 157.959 102.921 157.494 104.417C155.398 111.147 157.973 118.736 156.523 125.685C156.167 127.396 155.567 129.06 155.482 130.82C155.434 131.92 155.588 133.073 155.211 134.088C154.884 134.971 154.203 135.608 153.559 136.227C152.649 137.1 151.763 138.002 150.901 138.935C149.598 138.136 148.252 137.427 146.872 136.81C146.647 136.709 146.418 136.62 146.185 136.544C144.556 134.835 142.502 133.743 140.573 132.487C138.973 131.448 137.448 130.281 135.915 129.114C134.457 127.994 132.967 126.864 131.734 125.423C131.109 124.695 130.553 123.892 129.88 123.227C129.289 122.675 128.662 122.173 128.005 121.724C125.05 119.578 122.232 117.203 119.573 114.616C117.546 112.645 115.888 110.108 113.721 108.341C112.395 107.258 110.851 106.27 109.226 106.473C108.709 106.542 108.207 106.715 107.745 106.985C107.314 106.78 106.854 106.665 106.387 106.644C105.066 106.597 103.854 107.4 102.721 108.173C96.0546 112.712 89.2844 117.049 82.4102 121.184C81.0228 122.02 79.6271 122.849 78.3023 123.806C75.7172 125.679 73.4268 128.02 71.5238 130.732C71.1738 131.229 70.7322 131.794 70.176 131.719C70.0238 131.693 69.8774 131.634 69.7448 131.546C68.8887 131.026 68.3637 130.02 67.87 129.065C67.5117 128.365 67.1243 127.634 66.5993 127.102C66.4869 126.771 66.3371 126.457 66.1535 126.168C66.893 124.123 67.5305 122.029 68.1221 119.921C68.4304 118.815 68.7283 117.701 69.122 116.628C70.0927 113.971 71.6405 111.565 72.1883 108.754C72.3195 108.075 72.3966 107.377 72.4987 106.69C78.4877 105.369 83.008 99.3747 83.008 92.1756C83.008 84.0055 77.1878 77.3853 70.0073 77.3853C62.8268 77.3853 57.0086 84.0055 57.0086 92.1756C57.0022 94.6624 57.554 97.1111 58.6133 99.2963C59.6726 101.482 61.2054 103.333 63.0705 104.681C63.0705 104.709 63.0705 104.737 63.0705 104.762C63.058 105.232 63.0169 105.7 62.9476 106.163C62.708 107.727 62.1144 109.198 61.5165 110.624C61.1207 111.579 60.7249 112.538 60.3145 113.49C60.1176 113.446 59.9265 113.374 59.7459 113.276C59.3938 113.056 59.2397 112.575 59.1063 112.15C58.5164 110.204 57.7942 108.31 56.9461 106.487C56.6154 105.712 56.1951 104.99 55.6963 104.337C54.8172 103.259 53.6132 102.619 52.4487 101.973C52.2404 101.861 52.0467 101.739 51.8467 101.632C51.6737 101.488 51.4928 101.356 51.3051 101.237C50.3364 100.624 49.2615 100.182 48.4533 99.3233C47.8471 98.679 47.4305 97.841 46.8639 97.1571C45.9202 96.0202 44.6183 95.3713 43.3538 94.7527C42.6955 94.4306 42.004 94.1014 41.2853 94.1458C41.184 94.1513 41.0831 94.1638 40.9832 94.1831C40.8104 94.2162 40.6393 94.2598 40.4708 94.3139C40.3067 94.2163 40.1518 94.1005 40.0083 93.9684C39.2355 93.3008 38.9355 92.1546 38.6835 91.0878C38.2668 89.3044 37.8273 87.4579 38.0856 85.6325C38.1306 85.3175 38.1918 85.0058 38.2689 84.6988C38.3335 84.5797 38.396 84.4653 38.4522 84.3369C40.1107 83.7783 41.626 82.7837 42.872 81.4359C44.1179 80.088 45.0584 78.4261 45.615 76.5884C46.1716 74.7508 46.3283 72.7907 46.0719 70.8714C45.8155 68.9522 45.1536 67.1294 44.1412 65.5549C44.035 65.3915 43.9329 65.2328 43.8142 65.0741L43.9392 64.997C45.0911 64.208 45.3536 62.3219 44.8203 60.9166C44.287 59.5114 43.1538 58.5193 42.006 57.7396C41.8394 57.6252 41.6707 57.5178 41.4998 57.4105L41.354 57.3218C41.2249 57.2424 41.0978 57.1654 40.9686 57.0883L40.8166 57.002C40.6645 56.9156 40.5124 56.8339 40.3604 56.7545L40.2916 56.7172C40.1021 56.6215 39.9125 56.5281 39.7209 56.4394C39.5355 56.353 39.3501 56.2737 39.1626 56.206L39.0855 56.1733C38.9084 56.1009 38.7293 56.0332 38.5501 55.9678L38.5106 55.9538C37.2003 55.4766 35.8343 55.2186 34.4568 55.1882C33.1084 55.1972 31.7644 55.3639 30.4468 55.6854C29.164 55.9457 27.9078 56.35 26.6972 56.8923C24.6965 57.8424 22.9325 59.3246 21.5582 61.2108C21.2685 61.2354 20.9813 61.2885 20.6999 61.3695C19.573 61.6893 18.5585 62.3943 17.6315 63.1926C16.8551 63.8322 16.1672 64.5968 15.59 65.4616C14.9103 66.5697 14.4416 67.8228 14.2131 69.1428C13.4236 73.2816 14.3943 77.5464 15.1088 81.7062C15.8233 85.8659 16.2358 90.3992 14.4839 94.1318C13.8236 95.5324 12.8862 96.7486 12.1925 98.1235C11.4988 99.4984 11.0176 101.158 11.4176 102.682C11.9029 104.534 13.5007 105.698 14.3339 107.379C15.3088 109.338 15.0401 111.968 13.7652 113.682C13.709 113.756 13.6527 113.831 13.5923 113.915C13.5319 113.999 13.4465 114.088 13.3674 114.167C14.6818 114.686 16.1462 114.128 17.3253 113.297C18.2682 112.672 19.0679 111.81 19.6604 110.778C21.1499 108.037 20.4812 104.494 21.0061 101.326C21.6957 97.1781 24.4787 93.4782 24.0954 89.2787C23.8371 86.4612 22.1956 84.1058 20.9062 81.6828C20.049 80.0565 19.3306 78.3434 18.7605 76.566C18.7376 76.4913 18.7147 76.4142 18.6897 76.3325C18.3127 75.1304 18.0231 73.8558 18.2168 72.5976C18.2829 72.1901 18.392 71.7928 18.5418 71.4141C18.5418 71.4585 18.5418 71.5051 18.5418 71.5495C18.5672 72.7664 18.8086 73.9655 19.2522 75.0767C20.5541 78.1113 23.6871 79.5119 25.6765 81.9723C25.7598 82.075 25.839 82.18 25.9181 82.2874C25.941 82.3154 25.9619 82.3458 25.9827 82.3761L26.1514 82.6095L26.2223 82.7192C26.2743 82.8009 26.3264 82.8827 26.3743 82.9667L26.4389 83.0717C26.5056 83.1908 26.5722 83.3052 26.6347 83.4336C27.1409 82.8056 27.6638 82.145 27.8679 81.3327C27.8867 81.2626 27.8992 81.1903 27.9117 81.1179C27.9283 81.1366 27.9429 81.1576 27.9596 81.1786C27.9992 81.4284 28.0304 81.6781 28.0596 81.9302C28.0596 82.2904 28.0938 82.6496 28.1616 83.0017C28.32 85.2427 28.1929 87.5443 28.0596 89.7923C27.9887 90.9944 28.2679 92.7802 27.5846 93.6766L27.5638 93.7023C27.5237 93.7545 27.4798 93.8029 27.4326 93.847C27.3159 93.9824 27.1972 94.1154 27.0868 94.2555C24.7953 97.1501 23.7538 101.258 23.8079 105.194C23.8621 109.674 25.139 114.013 26.5868 118.18C27.0924 119.701 27.6881 121.183 28.37 122.615C28.7219 123.389 29.1874 124.09 29.7469 124.69C30.3323 125.272 31.0447 125.655 31.7467 126.028C31.9217 126.121 32.0987 126.212 32.2737 126.308L32.7216 126.542L36.1316 128.358C36.7566 129.387 37.3607 130.445 37.971 131.504C38.0585 131.654 38.1439 131.808 38.2335 131.957C38.9001 133.124 39.5709 134.292 40.2541 135.426L46.0015 144.964C46.4181 145.664 46.8534 146.365 47.4388 146.883C47.6053 147.03 47.7855 147.156 47.9762 147.259C48.0731 147.311 48.1726 147.357 48.2741 147.396C48.148 147.609 48.094 147.865 48.1221 148.118C48.1989 148.366 48.345 148.579 48.5387 148.727C49.8386 149.932 51.2822 151.201 51.6904 153.053C51.98 154.371 51.6904 155.784 51.9508 157.11C52.4279 159.5 54.5381 160.95 56.5337 161.869C61.0061 163.928 65.9744 164.72 70.726 163.762C75.4775 162.805 79.9917 160.044 83.0684 155.826C84.0142 154.523 84.8203 153.102 85.7181 151.757C86.3431 150.809 87.0305 149.906 87.7409 149.035C88.5074 148.642 89.2462 148.185 89.951 147.667C91.453 146.549 92.7466 145.114 94.1173 143.783C95.1401 142.784 96.2108 141.841 97.1503 140.748C97.9938 139.712 98.7819 138.621 99.5105 137.48C101.177 135.006 102.898 132.58 104.675 130.204C105.624 128.932 106.631 127.636 107.958 126.936L108.018 126.908C108.176 127.954 108.916 128.841 109.434 129.744C111.58 133.479 113.826 137.324 117.142 139.705C118.958 141.007 121.012 141.806 123.062 142.534C128.27 144.378 133.561 145.825 138.856 147.275C139.031 146.902 139.202 146.556 139.394 146.22C139.476 146.317 139.552 146.42 139.623 146.528C139.646 146.565 139.665 146.605 139.688 146.642C139.649 146.651 139.612 146.663 139.575 146.677C139.235 146.855 138.968 147.17 138.827 147.56C138.256 148.841 138.202 150.328 138.175 151.762C138.156 153.162 138.175 154.563 138.175 155.963C138.145 156.486 138.216 157.01 138.383 157.499C138.788 158.433 139.815 158.781 140.733 158.9C142.329 159.098 143.937 158.93 145.524 158.69C145.616 159.11 145.766 159.51 145.968 159.878C146.86 161.512 148.399 162.591 150.001 163.223C151.603 163.856 153.301 164.108 154.965 164.479C157.921 165.137 160.946 166.19 163.885 165.448C165.058 165.151 166.176 164.577 167.349 164.325C170.034 163.755 172.817 164.909 175.521 164.446C176.827 164.213 178.063 163.629 179.246 162.959C179.842 162.666 180.383 162.248 180.839 161.727C181.273 161.181 181.533 160.406 181.354 159.698C181.252 159.292 181.019 158.947 180.862 158.564C180.653 157.952 180.534 157.305 180.51 156.65C180.293 154.17 179.918 151.712 179.39 149.292C179.375 149.224 179.358 149.154 179.342 149.084C181.385 148.176 183.216 146.75 185.024 145.331L188.914 142.282C190.164 141.295 191.445 140.302 192.849 139.611C195.003 138.552 197.388 138.248 199.735 138.251C200.696 138.251 201.658 138.304 202.614 138.402C202.492 138.551 202.401 138.728 202.346 138.921C202.154 139.588 202.458 140.321 202.91 140.809C203.362 141.297 203.952 141.572 204.483 141.911C205.951 142.837 207.173 144.183 208.024 145.811C208.557 146.836 208.945 148.08 208.607 149.208C208.191 150.623 206.706 151.598 206.791 153.088C206.841 153.965 207.472 154.691 208.191 155.016C208.909 155.34 209.707 155.336 210.482 155.31C211.751 155.266 213.057 155.156 214.192 154.509C214.957 154.073 215.605 153.414 216.24 152.763C216.819 152.168 217.411 151.549 217.74 150.746C218.048 149.99 218.096 149.133 218.111 148.302C218.173 144.39 217.571 140.424 218.265 136.591C218.473 135.424 218.806 134.282 218.983 133.106C219.263 131.238 219.156 129.352 219.05 127.475C218.998 126.551 218.936 125.599 218.531 124.798Z" fill="url(#paint0_linear)"/>
<path opacity="0.06" d="M174.519 70.6905C173.701 71.3091 173.415 72.5042 173.311 73.606C172.867 78.291 174.592 82.9293 174.478 87.6377C174.386 91.3843 173.14 94.9581 171.911 98.4433C169.816 104.389 168.724 110.846 168.301 117.221C167.878 123.596 167.26 130.234 164.206 135.627C163.512 136.848 162.704 137.982 162.025 139.21C161.312 140.494 160.748 141.871 160.119 143.206C158.265 147.15 155.876 150.746 153.036 153.867C152.203 154.778 151.32 155.66 150.257 156.185C149.573 156.518 148.835 156.694 148.089 156.703C147.343 156.712 146.603 156.553 145.912 156.237C144.487 155.576 143.287 154.087 143.229 152.359C143.177 150.814 144 149.42 144.824 148.183C147.62 143.992 150.835 140.173 154.407 136.801C155.055 136.189 155.738 135.557 156.073 134.684C156.45 133.678 156.296 132.536 156.344 131.446C156.421 129.707 157.025 128.057 157.386 126.362C158.844 119.478 156.252 111.961 158.361 105.292C158.829 103.81 159.525 102.393 159.69 100.831C159.806 99.7388 159.565 98.518 158.954 97.6986C158.383 96.9624 158.063 96.0226 158.052 95.0468C158.052 94.8461 158.052 94.6477 158.073 94.4516C158.327 91.396 158.579 88.3263 158.442 85.2613C158.304 82.1964 157.761 79.1151 156.498 76.3909C155.844 74.9786 154.998 73.6574 154.594 72.1331C153.944 69.6657 154.544 66.9976 155.513 64.6632C156.269 62.8378 157.277 61.0987 158.686 59.8475C161.302 57.5248 165.218 57.2564 168.082 59.1776C170.195 60.5922 171.64 62.9708 172.813 65.3962C173.655 67.168 174.532 68.6689 174.519 70.6905Z" fill="black"/>
<path d="M167.576 52.0859C167.176 53.2951 166.778 54.5043 166.383 55.7134C166.12 56.5071 165.86 57.3078 165.589 58.1015C164.339 61.7593 162.941 65.3589 160.754 68.3865C161.081 67.9336 158.004 65.6553 155.736 64.1007C154.63 63.3373 153.713 62.7491 153.488 62.6324C152.953 62.3617 152.406 62.1232 151.849 61.9181C150.984 61.5913 150.109 61.3088 149.245 60.9563C147.245 60.1463 148.643 58.9301 149.499 57.6229C152.301 53.3418 152.832 47.4919 156.013 43.5586C157.179 46.0423 159.025 48.0424 161.279 49.266C161.323 49.2917 161.369 49.315 161.414 49.336C163.304 50.3258 165.391 50.753 167.345 51.5817C167.451 51.626 167.574 51.6891 167.61 51.8151C167.623 51.9071 167.611 52.0014 167.576 52.0859Z" fill="#A1616A"/>
<path d="M162.137 138.554C161.232 140.007 160.669 141.692 160.5 143.453C160.33 145.215 160.561 146.996 161.169 148.631C161.322 149.088 161.562 149.503 161.871 149.847C162.264 150.192 162.722 150.431 163.21 150.548C167.347 151.867 171.763 151.608 176 150.781C177.436 150.534 178.846 150.131 180.212 149.579C182.31 148.68 184.183 147.245 186.033 145.811L189.945 142.791C191.211 141.813 192.488 140.83 193.903 140.144C196.069 139.096 198.469 138.794 200.829 138.797C202.856 138.799 204.879 139.016 206.87 139.443C208.197 139.73 209.786 140.027 210.72 138.941C211.253 138.328 211.411 137.429 211.515 136.581C211.928 133.285 211.92 129.939 211.493 126.644C211.482 126.367 211.392 126.101 211.236 125.886C211.089 125.746 210.91 125.654 210.72 125.622C208.876 125.155 207.026 126.124 205.235 126.789C201.512 128.176 197.515 128.341 193.728 129.483C189.753 130.68 186.02 132.947 181.912 133.407C179.954 133.626 177.988 133.435 176.025 133.484C174.205 133.528 172.507 134.233 170.724 134.317C167.287 134.488 164.297 135.16 162.137 138.554Z" fill="#A1616A"/>
<path opacity="0.06" d="M162.137 138.554C161.232 140.007 160.669 141.692 160.5 143.453C160.33 145.215 160.561 146.996 161.169 148.631C161.322 149.088 161.562 149.503 161.871 149.847C162.264 150.192 162.722 150.431 163.21 150.548C167.347 151.867 171.763 151.608 176 150.781C177.436 150.534 178.846 150.131 180.212 149.579C182.31 148.68 184.183 147.245 186.033 145.811L189.945 142.791C191.211 141.813 192.488 140.83 193.903 140.144C196.069 139.096 198.469 138.794 200.829 138.797C202.856 138.799 204.879 139.016 206.87 139.443C208.197 139.73 209.786 140.027 210.72 138.941C211.253 138.328 211.411 137.429 211.515 136.581C211.928 133.285 211.92 129.939 211.493 126.644C211.482 126.367 211.392 126.101 211.236 125.886C211.089 125.746 210.91 125.654 210.72 125.622C208.876 125.155 207.026 126.124 205.235 126.789C201.512 128.176 197.515 128.341 193.728 129.483C189.753 130.68 186.02 132.947 181.912 133.407C179.954 133.626 177.988 133.435 176.025 133.484C174.205 133.528 172.507 134.233 170.724 134.317C167.287 134.488 164.297 135.16 162.137 138.554Z" fill="black"/>
<path d="M165.499 133.619C165.402 134.135 165.314 134.681 165.452 135.186C165.622 135.681 165.91 136.116 166.285 136.441C169.826 139.994 174.886 140.73 179.617 141.306C180.898 141.463 182.202 141.619 183.47 141.36C184.627 141.126 185.706 140.555 186.77 139.99C189.062 138.773 191.365 137.543 193.33 135.755C195.257 134.004 196.802 131.763 198.798 130.113C201.067 128.246 203.856 127.176 205.881 124.978C207.345 123.395 208.318 121.328 208.657 119.081C208.887 117.547 208.812 115.981 208.657 114.436C208.493 112.659 208.228 110.853 207.474 109.279C206.601 107.458 205.135 106.083 203.587 104.954C200.312 102.568 196.457 101.088 192.547 101.125C187.131 101.179 182.131 104.711 178.244 108.677C174.132 112.877 170.805 117.95 168.453 123.6C167.126 126.801 166.135 130.163 165.499 133.619Z" fill="#464353"/>
<path opacity="0.06" d="M165.499 133.619C165.402 134.135 165.314 134.681 165.452 135.186C165.622 135.681 165.91 136.116 166.285 136.441C169.826 139.994 174.886 140.73 179.617 141.306C180.898 141.463 182.202 141.619 183.47 141.36C184.627 141.126 185.706 140.555 186.77 139.99C189.062 138.773 191.365 137.543 193.33 135.755C195.257 134.004 196.802 131.763 198.798 130.113C201.067 128.246 203.856 127.176 205.881 124.978C207.345 123.395 208.318 121.328 208.657 119.081C208.887 117.547 208.812 115.981 208.657 114.436C208.493 112.659 208.228 110.853 207.474 109.279C206.601 107.458 205.135 106.083 203.587 104.954C200.312 102.568 196.457 101.088 192.547 101.125C187.131 101.179 182.131 104.711 178.244 108.677C174.132 112.877 170.805 117.95 168.453 123.6C167.126 126.801 166.135 130.163 165.499 133.619Z" fill="black"/>
<path d="M174.519 70.6905C173.701 71.3091 173.415 72.5042 173.311 73.606C172.867 78.291 174.592 82.9293 174.478 87.6377C174.386 91.3843 173.14 94.9581 171.911 98.4433C169.816 104.389 168.724 110.846 168.301 117.221C167.878 123.596 167.26 130.234 164.206 135.627C163.512 136.848 162.704 137.982 162.025 139.21C161.312 140.494 160.748 141.871 160.119 143.206C158.265 147.15 155.876 150.746 153.036 153.867C152.203 154.778 151.32 155.66 150.257 156.185C149.573 156.518 148.835 156.694 148.089 156.703C147.343 156.712 146.603 156.553 145.912 156.237C144.487 155.576 143.287 154.087 143.229 152.359C143.177 150.814 144 149.42 144.824 148.183C147.62 143.992 150.835 140.173 154.407 136.801C155.055 136.189 155.738 135.557 156.073 134.684C156.45 133.678 156.296 132.536 156.344 131.446C156.421 129.707 157.025 128.057 157.386 126.362C158.844 119.478 156.252 111.961 158.361 105.292C158.829 103.81 159.525 102.393 159.69 100.831C159.806 99.7388 159.565 98.518 158.954 97.6986C158.383 96.9624 158.063 96.0226 158.052 95.0468C158.052 94.8461 158.052 94.6477 158.073 94.4516C158.327 91.396 158.579 88.3263 158.442 85.2613C158.304 82.1964 157.761 79.1151 156.498 76.3909C155.844 74.9786 154.998 73.6574 154.594 72.1331C153.944 69.6657 154.544 66.9976 155.513 64.6632C156.269 62.8378 157.277 61.0987 158.686 59.8475C161.302 57.5248 165.218 57.2564 168.082 59.1776C170.195 60.5922 171.64 62.9708 172.813 65.3962C173.655 67.168 174.532 68.6689 174.519 70.6905Z" fill="#A1616A"/>
<path d="M163.01 86.3725C167.365 86.3725 170.895 80.1655 170.895 72.5089C170.895 64.8523 167.365 58.6453 163.01 58.6453C158.656 58.6453 155.126 64.8523 155.126 72.5089C155.126 80.1655 158.656 86.3725 163.01 86.3725Z" fill="#A1616A"/>
<path d="M142.902 144.955C143.135 145.322 143.293 145.743 143.365 146.187C143.437 146.63 143.421 147.086 143.318 147.522C144.062 148.12 144.965 148.415 145.879 148.358C146.785 148.303 147.677 148.073 148.514 147.679C149.242 147.381 149.931 146.976 150.563 146.474C151.651 145.573 152.438 144.285 153.063 142.95C153.415 142.212 153.715 141.257 153.272 140.594C153.097 140.369 152.885 140.185 152.647 140.053C151.042 139.027 149.37 138.136 147.647 137.389C147.174 137.145 146.66 137.016 146.139 137.011C145.499 137.051 144.918 137.443 144.41 137.882C143.268 138.877 142.346 140.156 141.719 141.617C141.523 142.083 140.931 143.192 141.225 143.673C141.358 143.895 141.85 143.972 142.058 144.112C142.389 144.323 142.677 144.61 142.902 144.955Z" fill="#FBBEBE"/>
<path opacity="0.03" d="M142.902 144.955C143.135 145.322 143.293 145.743 143.365 146.187C143.437 146.63 143.421 147.086 143.318 147.522C144.062 148.12 144.965 148.415 145.879 148.358C146.785 148.303 147.677 148.073 148.514 147.679C149.242 147.381 149.931 146.976 150.563 146.474C151.651 145.573 152.438 144.285 153.063 142.95C153.415 142.212 153.715 141.257 153.272 140.594C153.097 140.369 152.885 140.185 152.647 140.053C151.042 139.027 149.37 138.136 147.647 137.389C147.174 137.145 146.66 137.016 146.139 137.011C145.499 137.051 144.918 137.443 144.41 137.882C143.268 138.877 142.346 140.156 141.719 141.617C141.523 142.083 140.931 143.192 141.225 143.673C141.358 143.895 141.85 143.972 142.058 144.112C142.389 144.323 142.677 144.61 142.902 144.955Z" fill="black"/>
<path d="M151.528 139.546C155.053 140.279 158.294 142.189 161.758 143.218C163.16 143.633 164.604 143.918 165.943 144.53C167.283 145.141 168.545 146.187 169.122 147.677C169.366 148.391 169.528 149.138 169.603 149.899C169.753 150.975 169.876 152.177 169.305 153.06C168.703 153.993 167.566 154.199 166.547 154.336C162.885 154.824 159.223 155.314 155.548 155.66C154.804 155.711 154.064 155.809 153.33 155.956C152.726 156.092 152.136 156.297 151.536 156.456C150.759 156.659 149.97 156.787 149.182 156.923C147.168 157.247 145.131 157.572 143.108 157.324C142.185 157.21 141.152 156.876 140.746 155.942C140.577 155.458 140.506 154.939 140.537 154.42C140.527 153.034 140.517 151.65 140.537 150.265C140.556 148.844 140.619 147.368 141.194 146.101C141.336 145.713 141.605 145.4 141.946 145.225C142.155 145.158 142.374 145.136 142.591 145.16C143.675 145.202 144.795 145.254 145.764 145.795C146.533 146.222 147.158 146.934 147.941 147.322C149.424 148.059 151.213 147.529 152.715 148.223C153.065 147.014 152.986 145.79 152.726 144.551C152.465 143.311 152.101 142.095 151.99 140.83C151.986 140.552 151.938 140.277 151.849 140.018C151.736 139.759 151.774 139.506 151.528 139.546Z" fill="#464353"/>
<path opacity="0.06" d="M151.528 139.546C155.053 140.279 158.294 142.189 161.758 143.218C163.16 143.633 164.604 143.918 165.943 144.53C167.283 145.141 168.545 146.187 169.122 147.677C169.366 148.391 169.528 149.138 169.603 149.899C169.753 150.975 169.876 152.177 169.305 153.06C168.703 153.993 167.566 154.199 166.547 154.336C162.885 154.824 159.223 155.314 155.548 155.66C154.804 155.711 154.064 155.809 153.33 155.956C152.726 156.092 152.136 156.297 151.536 156.456C150.759 156.659 149.97 156.787 149.182 156.923C147.168 157.247 145.131 157.572 143.108 157.324C142.185 157.21 141.152 156.876 140.746 155.942C140.577 155.458 140.506 154.939 140.537 154.42C140.527 153.034 140.517 151.65 140.537 150.265C140.556 148.844 140.619 147.368 141.194 146.101C141.336 145.713 141.605 145.4 141.946 145.225C142.155 145.158 142.374 145.136 142.591 145.16C143.675 145.202 144.795 145.254 145.764 145.795C146.533 146.222 147.158 146.934 147.941 147.322C149.424 148.059 151.213 147.529 152.715 148.223C153.065 147.014 152.986 145.79 152.726 144.551C152.465 143.311 152.101 142.095 151.99 140.83C151.986 140.552 151.938 140.277 151.849 140.018C151.736 139.759 151.774 139.506 151.528 139.546Z" fill="black"/>
<path d="M33.7882 99.7435C33.0778 99.4914 32.3925 100.196 31.9946 100.911C30.3406 103.824 30.476 107.713 31.7988 110.832C32.1135 111.622 32.5476 112.347 33.082 112.972C33.7986 113.763 34.7214 114.27 35.5817 114.84C37.9689 116.42 40.0147 118.572 41.5728 121.142C42.5914 122.825 43.3934 124.676 44.5495 126.243C47.3951 130.099 52.0717 131.845 54.8318 135.767C55.4921 136.701 56.0504 137.784 56.9316 138.463C57.4554 138.867 58.0658 139.106 58.6999 139.157C59.334 139.208 59.9686 139.068 60.5383 138.752C61.108 138.436 61.5921 137.955 61.9406 137.359C62.2891 136.764 62.4893 136.074 62.5206 135.363C63.5934 133.596 64.4704 131.644 65.3057 129.721C66.5416 126.785 67.5859 123.753 68.4304 120.647C68.7408 119.55 69.0407 118.446 69.4365 117.379C70.4135 114.746 71.9696 112.363 72.5195 109.58C72.7403 108.465 72.7945 107.304 73.1153 106.221C73.4026 105.249 73.8941 104.368 74.5485 103.653C76.7149 101.293 77.8815 97.855 79.6042 95.0772C80.3041 93.9544 81.0312 92.8339 81.4936 91.564C81.9561 90.2941 82.1331 88.8399 81.7019 87.556C81.2707 86.2721 80.1437 85.2357 78.923 85.308C78.3767 85.3715 77.8467 85.5539 77.3628 85.8449C75.6805 86.7395 74.1373 87.9312 72.7924 89.3744C72.2043 90.0086 71.648 90.6788 71.1259 91.3819C68.5804 94.7901 66.5889 98.9265 66.4139 103.366C66.3556 104.888 66.4639 106.576 65.6015 107.755C63.2226 111.011 62.4581 115.489 60.4291 119.032C59.4896 120.666 58.4127 122.358 56.8066 123.103C56.5694 123.231 56.3069 123.289 56.0442 123.271C55.4026 123.189 55.0339 122.433 54.7631 121.775C53.7048 119.207 52.4801 116.73 51.0989 114.363C50.5531 113.43 49.9511 112.473 49.0782 111.924C48.4825 111.553 47.7909 111.387 47.2305 110.953C46.4493 110.348 46.041 109.319 45.6348 108.355C44.3183 105.241 42.6515 102.329 40.6749 99.6898C39.7709 98.483 38.5793 97.2364 37.1836 97.4162C35.8546 97.5912 35.0422 99.1576 33.7882 99.7435Z" fill="#FBBEBE"/>
<path opacity="0.03" d="M33.7882 99.7435C33.0778 99.4914 32.3925 100.196 31.9946 100.911C30.3406 103.824 30.476 107.713 31.7988 110.832C32.1135 111.622 32.5476 112.347 33.082 112.972C33.7986 113.763 34.7214 114.27 35.5817 114.84C37.9689 116.42 40.0147 118.572 41.5728 121.142C42.5914 122.825 43.3934 124.676 44.5495 126.243C47.3951 130.099 52.0717 131.845 54.8318 135.767C55.4921 136.701 56.0504 137.784 56.9316 138.463C57.4554 138.867 58.0658 139.106 58.6999 139.157C59.334 139.208 59.9686 139.068 60.5383 138.752C61.108 138.436 61.5921 137.955 61.9406 137.359C62.2891 136.764 62.4893 136.074 62.5206 135.363C63.5934 133.596 64.4704 131.644 65.3057 129.721C66.5416 126.785 67.5859 123.753 68.4304 120.647C68.7408 119.55 69.0407 118.446 69.4365 117.379C70.4135 114.746 71.9696 112.363 72.5195 109.58C72.7403 108.465 72.7945 107.304 73.1153 106.221C73.4026 105.249 73.8941 104.368 74.5485 103.653C76.7149 101.293 77.8815 97.855 79.6042 95.0772C80.3041 93.9544 81.0312 92.8339 81.4936 91.564C81.9561 90.2941 82.1331 88.8399 81.7019 87.556C81.2707 86.2721 80.1437 85.2357 78.923 85.308C78.3767 85.3715 77.8467 85.5539 77.3628 85.8449C75.6805 86.7395 74.1373 87.9312 72.7924 89.3744C72.2043 90.0086 71.648 90.6788 71.1259 91.3819C68.5804 94.7901 66.5889 98.9265 66.4139 103.366C66.3556 104.888 66.4639 106.576 65.6015 107.755C63.2226 111.011 62.4581 115.489 60.4291 119.032C59.4896 120.666 58.4127 122.358 56.8066 123.103C56.5694 123.231 56.3069 123.289 56.0442 123.271C55.4026 123.189 55.0339 122.433 54.7631 121.775C53.7048 119.207 52.4801 116.73 51.0989 114.363C50.5531 113.43 49.9511 112.473 49.0782 111.924C48.4825 111.553 47.7909 111.387 47.2305 110.953C46.4493 110.348 46.041 109.319 45.6348 108.355C44.3183 105.241 42.6515 102.329 40.6749 99.6898C39.7709 98.483 38.5793 97.2364 37.1836 97.4162C35.8546 97.5912 35.0422 99.1576 33.7882 99.7435Z" fill="black"/>
<path d="M33.6423 88.5901C36.675 88.5901 39.1334 86.1037 39.1334 83.0367C39.1334 79.9697 36.675 77.4833 33.6423 77.4833C30.6097 77.4833 28.1512 79.9697 28.1512 83.0367C28.1512 86.1037 30.6097 88.5901 33.6423 88.5901Z" fill="#FBBEBE"/>
<path d="M38.7918 84.1105C39.8836 84.1105 40.7687 83.1187 40.7687 81.8952C40.7687 80.6717 39.8836 79.6799 38.7918 79.6799C37.7 79.6799 36.8149 80.6717 36.8149 81.8952C36.8149 83.1187 37.7 84.1105 38.7918 84.1105Z" fill="#FBBEBE"/>
<path d="M34.3631 83.0367C38.5404 83.0367 41.9269 82.0219 41.9269 80.77C41.9269 79.5182 38.5404 78.5034 34.3631 78.5034C30.1857 78.5034 26.7993 79.5182 26.7993 80.77C26.7993 82.0219 30.1857 83.0367 34.3631 83.0367Z" fill="#FBBEBE"/>
<path d="M27.618 80.2869C27.802 80.9406 27.9468 81.6073 28.0513 82.2827C27.4162 81.5602 26.866 80.7499 26.4139 79.8714C26.2921 79.7199 26.1942 79.5462 26.1244 79.3578C25.4494 77.5977 24.9891 75.8166 24.9891 73.8885C24.9889 71.6529 25.5466 69.4617 26.5991 67.5625C27.6516 65.6633 29.1571 64.1317 30.9454 63.1407C32.7337 62.1497 34.7337 61.7388 36.7194 61.9543C38.7052 62.1698 40.5976 63.0033 42.183 64.3604C43.7683 65.7176 44.9835 67.5445 45.6911 69.6348C46.3988 71.725 46.5709 73.9954 46.1878 76.1894C45.8048 78.3835 44.8819 80.4138 43.5234 82.0511C42.165 83.6884 40.4251 84.8674 38.5002 85.4551C38.8272 84.2739 39.2751 83.1207 39.3334 81.8952C39.3686 81.4865 39.3157 81.0742 39.1793 80.693C38.9965 80.2876 38.7266 79.9395 38.3939 79.68C37.2024 78.6598 35.6692 78.214 34.1694 78.242C32.6678 78.3119 31.1926 78.7083 29.8261 79.4092C29.3949 79.6169 28.8783 79.897 28.3679 80.0885C28.1246 80.1829 27.8733 80.2494 27.618 80.2869Z" fill="#FBBEBE"/>
<path d="M54.7505 106.52C54.0652 107.75 52.6008 108.126 51.3134 108.016C48.9136 107.818 46.7305 106.382 44.8766 104.655C43.0226 102.928 41.4019 100.92 39.5063 99.2579C35.9796 96.1603 32.0071 94.9161 27.5201 94.8437C28.397 94.0291 28.0742 92.0962 28.145 90.8264C28.2991 88.2586 28.445 85.6231 28.145 83.0927C28.1137 82.8196 28.0783 82.5512 28.0367 82.2827C28.1075 82.3668 28.1825 82.4485 28.2596 82.5325C29.5939 83.9674 31.2371 84.9908 33.0291 85.503C34.8211 86.0151 36.7009 85.9986 38.4856 85.4551C38.3708 85.8617 38.281 86.2766 38.2168 86.6969C37.9585 88.5014 38.3918 90.3315 38.8189 92.0986C39.073 93.156 39.3751 94.2905 40.1521 94.9511C40.6562 95.3806 41.2915 95.5487 41.8894 95.7751C43.0811 96.2303 44.1811 96.9442 45.1265 97.876C45.7848 98.5226 46.3764 99.2766 47.0826 99.8392C47.7542 100.315 48.4617 100.725 49.197 101.062C51.0016 101.996 52.7066 103.154 54.2798 104.515C54.5767 104.722 54.8077 105.03 54.9401 105.393C54.979 105.585 54.9823 105.784 54.9496 105.978C54.917 106.172 54.8493 106.357 54.7505 106.52Z" fill="#FBBEBE"/>
<path d="M67.0555 129.137C66.9118 130.202 66.0411 131.033 65.4265 131.859C63.7559 134.119 62.0623 136.385 60.1937 138.454C58.194 140.664 55.9984 142.634 53.8048 144.605L50.9593 147.156C50.6083 147.516 50.1968 147.793 49.749 147.973C49.2244 148.12 48.6701 148.046 48.1908 147.765C48 147.663 47.8192 147.538 47.6513 147.394C47.0618 146.881 46.6285 146.18 46.2056 145.492C44.2808 142.343 42.3539 139.194 40.425 136.045C39.7375 134.919 39.0626 133.764 38.3918 132.608C38.3023 132.459 38.2169 132.307 38.1273 132.158C37.5149 131.108 36.9045 130.057 36.2775 129.042L32.8487 127.242L32.3987 127.008L31.8675 126.731C31.1613 126.359 30.4448 125.981 29.8573 125.407C29.2948 124.815 28.8264 124.119 28.472 123.351C27.7859 121.929 27.186 120.457 26.6764 118.946C25.2182 114.821 23.935 110.521 23.8809 106.081C23.8329 102.176 24.862 98.1141 27.1784 95.2476C27.4951 94.8532 27.8354 94.4835 28.1971 94.1411C28.6429 93.7233 29.1032 93.4782 29.6761 93.5692C30.2489 93.6603 30.7926 93.7536 31.3426 93.8587C32.8591 94.1512 34.3638 94.5092 35.8567 94.9325C37.2024 95.3176 38.596 95.7565 39.9563 95.4507C40.175 95.4017 40.3916 95.3316 40.6083 95.2686C40.7853 95.2172 40.9603 95.1682 41.1416 95.1355C41.2422 95.1161 41.3437 95.1036 41.4457 95.0982C42.1685 95.0562 42.8622 95.3807 43.5288 95.7005C44.8016 96.312 46.1119 96.9563 47.0701 98.0815C47.6409 98.7584 48.0596 99.5894 48.6679 100.227C49.4803 101.079 50.5635 101.515 51.5384 102.125C51.7267 102.242 51.9083 102.372 52.0821 102.514C52.4666 102.837 52.8161 103.209 53.1236 103.623C54.386 105.292 55.1359 107.545 56.5295 109.205C57.6448 110.53 58.6142 112.001 59.4167 113.586C59.548 113.85 59.6751 114.116 59.8 114.387C60.0084 114.837 60.2021 115.295 60.3812 115.757C60.4271 115.876 60.4729 115.99 60.5145 116.114C60.7767 116.814 61.0054 117.528 61.1999 118.255C61.6728 120.017 61.9873 121.92 63.0372 123.334C63.7705 124.317 64.787 124.968 65.6432 125.816C66.1945 126.339 66.6284 127 66.9097 127.746C67.0643 128.188 67.1145 128.667 67.0555 129.137Z" fill="#FBBEBE"/>
<path opacity="0.06" d="M61.2561 115.117C61.0172 115.455 60.7721 115.788 60.5208 116.116C60.4791 116.177 60.4333 116.236 60.3874 116.294C58.1947 119.168 55.6845 121.718 52.9174 123.883C51.2051 125.223 49.399 126.411 47.5971 127.597L44.2641 129.784C42.8705 130.701 41.4582 131.626 39.9125 132.153C39.4167 132.319 38.898 132.452 38.3918 132.609C38.3023 132.459 38.2168 132.307 38.1273 132.158C37.5148 131.108 36.9045 130.057 36.2775 129.042L32.8487 127.242C34.7422 125.901 36.4222 124.214 37.819 122.251C39.9021 119.373 41.504 116.091 43.083 112.83C43.3629 112.303 43.5807 111.738 43.7309 111.149C43.9392 110.171 43.7642 109.144 43.508 108.182C42.57 104.734 40.5979 101.754 37.9252 99.7482C36.0504 98.3476 33.9173 97.4955 31.7967 96.6739C30.3156 96.0996 28.6928 95.544 27.1867 95.7798C27.5029 95.3856 27.8432 95.0166 28.2054 94.6757C28.6512 94.2555 29.1115 94.0104 29.6844 94.1014C30.2573 94.1925 30.801 94.2858 31.3509 94.3932C32.4654 94.7761 33.5611 95.2336 34.6505 95.7051C35.3673 95.9995 36.0635 96.353 36.7337 96.7626C37.4007 97.2189 38.0415 97.7218 38.6522 98.2682C40.4585 99.8111 42.3603 101.208 44.3433 102.449C46.6347 103.866 49.0407 105.017 51.4446 106.184C51.6996 106.331 51.9809 106.41 52.2675 106.417C52.411 106.417 52.5503 106.363 52.6635 106.264C52.7767 106.165 52.8572 106.027 52.8924 105.871C52.9019 105.701 52.8672 105.532 52.7924 105.383C52.3758 104.429 51.43 103.948 50.5739 103.483C47.0201 101.555 43.8954 98.7794 40.8041 96.0249C40.729 95.9582 40.663 95.8796 40.6083 95.7915L41.1415 95.6584C44.6011 98.4429 48.2549 100.911 52.0675 103.04C52.2689 103.155 52.4709 103.267 52.6737 103.376C52.8195 103.457 52.9632 103.537 53.1111 103.609C54.1381 104.174 55.1651 104.776 55.9379 105.71C56.4363 106.354 56.8566 107.069 57.1878 107.837C58.0392 109.639 58.7663 111.512 59.3626 113.439C59.3739 113.48 59.3871 113.521 59.4021 113.56C59.4777 113.855 59.6084 114.128 59.7854 114.361C59.8478 114.439 59.9218 114.505 60.0041 114.555C60.3958 114.814 60.9332 114.786 61.2561 115.117Z" fill="black"/>
<path d="M41.1499 95.1355C44.609 97.9201 48.2628 100.388 52.0758 102.514L52.682 102.853C53.8485 103.492 55.063 104.127 55.9483 105.187C56.4463 105.832 56.8665 106.548 57.1982 107.316C58.0502 109.118 58.7766 110.991 59.3709 112.918C59.5042 113.346 59.6604 113.815 60.0146 114.034C60.3687 114.254 60.9311 114.237 61.2457 114.569C60.9624 114.966 60.6749 115.358 60.377 115.736C58.1849 118.612 55.6746 121.163 52.907 123.327C51.1947 124.667 49.3886 125.855 47.5867 127.041L44.2537 129.228C42.8601 130.143 41.4478 131.068 39.9021 131.595C39.3209 131.794 38.7064 131.943 38.1169 132.135C37.5044 131.084 36.8941 130.034 36.267 129.018L32.3883 126.983C34.4714 125.662 36.2879 123.782 37.8044 121.693C39.8875 118.817 41.4894 115.535 43.0684 112.274C43.348 111.748 43.5657 111.183 43.7163 110.593C43.9246 109.615 43.7496 108.586 43.4934 107.624C42.555 104.187 40.5886 101.217 37.9252 99.2136C36.0504 97.813 33.9173 96.9633 31.7967 96.1393C30.3156 95.5674 28.6928 95.0095 27.1867 95.2476C27.5034 94.8532 27.8437 94.4835 28.2054 94.1411C28.6512 93.7233 29.1115 93.4782 29.6844 93.5692C30.2573 93.6603 30.801 93.7536 31.3509 93.8587C32.4654 94.2438 33.5611 94.7014 34.6505 95.1729C35.3676 95.4663 36.064 95.8198 36.7337 96.2303C37.4007 96.6867 38.0415 97.1896 38.6522 97.736C40.4614 99.2753 42.366 100.669 44.3516 101.905C46.643 103.324 49.049 104.485 51.453 105.64C51.7078 105.787 51.9892 105.867 52.2758 105.873C52.4195 105.874 52.5592 105.82 52.6725 105.721C52.7858 105.622 52.8662 105.484 52.9007 105.327C52.9101 105.158 52.8753 104.989 52.8007 104.842C52.3841 103.887 51.4384 103.404 50.5822 102.942C47.0284 101.013 43.9037 98.2355 40.8124 95.4717C40.7367 95.4057 40.6706 95.327 40.6166 95.2383L41.1499 95.1355Z" fill="#37877D"/>
<path d="M70.3364 107.809C77.558 107.809 83.4122 101.248 83.4122 93.156C83.4122 85.0636 77.558 78.5034 70.3364 78.5034C63.1149 78.5034 57.2607 85.0636 57.2607 93.156C57.2607 101.248 63.1149 107.809 70.3364 107.809Z" fill="#37877D"/>
<path d="M83.3372 151.472C85.7848 150.611 88.27 149.733 90.4197 148.157C91.93 147.051 93.2319 145.627 94.6026 144.31C95.6338 143.321 96.7087 142.387 97.6544 141.295C98.5017 140.272 99.2946 139.195 100.029 138.068C101.701 135.616 103.428 133.21 105.21 130.851C106.166 129.593 107.176 128.311 108.512 127.611C110.884 126.362 113.669 127.205 116.173 128.061C119.923 129.345 123.654 130.706 127.162 132.66C129.157 133.773 131.09 135.015 133.105 136.082C136.788 138.031 140.698 139.369 144.593 140.699C144.883 140.837 145.204 140.867 145.51 140.783C145.728 140.671 145.916 140.495 146.054 140.274C146.561 139.571 146.968 138.784 147.26 137.94C147.315 137.844 147.336 137.728 147.318 137.616C147.299 137.504 147.244 137.403 147.162 137.336C145.495 135.517 143.333 134.399 141.312 133.103C139.704 132.074 138.165 130.918 136.627 129.763C135.15 128.654 133.661 127.534 132.422 126.107C131.797 125.386 131.234 124.59 130.557 123.932C129.959 123.384 129.325 122.886 128.662 122.442C125.692 120.318 122.858 117.964 120.179 115.4C118.142 113.448 116.473 110.934 114.296 109.184C112.961 108.11 111.407 107.132 109.774 107.328C107.787 107.561 106.32 109.429 104.935 111.039C100.279 116.457 94.4047 120.335 89.2095 125.099C84.9682 128.983 81.0041 133.598 75.8379 135.648C76.0692 136.507 76.1504 137.366 76.3837 138.216C76.6745 139.397 77.0371 140.554 77.469 141.68C77.8973 142.676 78.3794 143.643 78.9126 144.574L80.9832 148.363C81.3999 149.133 81.8352 149.915 82.431 150.527C82.7435 150.863 83.3372 150.984 83.3372 151.472Z" fill="#464353"/>
<path opacity="0.06" d="M83.3372 151.472C85.7848 150.611 88.27 149.733 90.4197 148.157C91.93 147.051 93.2319 145.627 94.6026 144.31C95.6338 143.321 96.7087 142.387 97.6544 141.295C98.5017 140.272 99.2946 139.195 100.029 138.068C101.701 135.616 103.428 133.21 105.21 130.851C106.166 129.593 107.176 128.311 108.512 127.611C110.884 126.362 113.669 127.205 116.173 128.061C119.923 129.345 123.654 130.706 127.162 132.66C129.157 133.773 131.09 135.015 133.105 136.082C136.788 138.031 140.698 139.369 144.593 140.699C144.883 140.837 145.204 140.867 145.51 140.783C145.728 140.671 145.916 140.495 146.054 140.274C146.561 139.571 146.968 138.784 147.26 137.94C147.315 137.844 147.336 137.728 147.318 137.616C147.299 137.504 147.244 137.403 147.162 137.336C145.495 135.517 143.333 134.399 141.312 133.103C139.704 132.074 138.165 130.918 136.627 129.763C135.15 128.654 133.661 127.534 132.422 126.107C131.797 125.386 131.234 124.59 130.557 123.932C129.959 123.384 129.325 122.886 128.662 122.442C125.692 120.318 122.858 117.964 120.179 115.4C118.142 113.448 116.473 110.934 114.296 109.184C112.961 108.11 111.407 107.132 109.774 107.328C107.787 107.561 106.32 109.429 104.935 111.039C100.279 116.457 94.4047 120.335 89.2095 125.099C84.9682 128.983 81.0041 133.598 75.8379 135.648C76.0692 136.507 76.1504 137.366 76.3837 138.216C76.6745 139.397 77.0371 140.554 77.469 141.68C77.8973 142.676 78.3794 143.643 78.9126 144.574L80.9832 148.363C81.3999 149.133 81.8352 149.915 82.431 150.527C82.7435 150.863 83.3372 150.984 83.3372 151.472Z" fill="black"/>
<path d="M140.365 147.025C140.597 147.393 140.755 147.814 140.827 148.257C140.899 148.701 140.883 149.157 140.781 149.593C141.522 150.193 142.423 150.49 143.335 150.436C144.243 150.38 145.137 150.151 145.976 149.759C146.704 149.46 147.393 149.055 148.026 148.554C149.116 147.653 149.901 146.365 150.536 145.027C150.888 144.292 151.188 143.337 150.734 142.674C150.561 142.448 150.348 142.264 150.109 142.133C148.508 141.107 146.84 140.217 145.12 139.469C144.647 139.225 144.133 139.096 143.612 139.089C142.971 139.128 142.389 139.523 141.881 139.962C140.739 140.957 139.819 142.236 139.192 143.697C138.996 144.163 138.404 145.275 138.696 145.755C138.829 145.977 139.321 146.054 139.529 146.192C139.857 146.401 140.141 146.685 140.365 147.025Z" fill="#FBBEBE"/>
<path d="M149.903 141.502C153.428 142.238 156.669 144.145 160.133 145.174C161.535 145.59 162.979 145.874 164.318 146.486C165.658 147.098 166.92 148.143 167.497 149.633C167.741 150.348 167.903 151.094 167.978 151.855C168.128 152.931 168.251 154.133 167.68 155.016C167.078 155.949 165.941 156.157 164.922 156.293C161.26 156.783 157.598 157.271 153.924 157.616C153.181 157.668 152.442 157.767 151.709 157.913C151.105 158.05 150.516 158.253 149.916 158.412C149.141 158.618 148.349 158.744 147.562 158.879C145.547 159.201 143.51 159.528 141.487 159.278C140.565 159.164 139.531 158.83 139.125 157.896C138.956 157.412 138.885 156.893 138.917 156.374C138.917 154.99 138.896 153.603 138.917 152.219C138.936 150.798 138.998 149.322 139.573 148.055C139.716 147.667 139.985 147.354 140.325 147.179C140.535 147.112 140.754 147.09 140.971 147.114C142.054 147.156 143.175 147.207 144.143 147.749C144.912 148.176 145.466 146.899 146.249 147.282C147.735 148.017 146.728 145.788 148.228 146.481C148.578 145.272 150.066 145.991 149.807 144.752C149.549 143.512 150.476 144.051 150.37 142.777C150.365 142.499 150.317 142.224 150.228 141.964C150.111 141.715 150.149 141.463 149.903 141.502Z" fill="#464353"/>
<path opacity="0.06" d="M44.3225 66.8155C43.5142 67.343 42.5122 67.245 41.5707 67.2216C40.7472 67.2026 39.9236 67.2502 39.1063 67.364C38.812 67.3871 38.5243 67.4726 38.2585 67.6161C37.9124 67.8663 37.6388 68.224 37.4711 68.6456C37.1377 69.3631 36.9132 70.1378 36.8066 70.9379C36.6899 71.8366 36.7024 72.8194 36.2025 73.5313C35.5213 74.5001 34.4589 74.3507 33.4944 74.5421C32.655 74.7226 31.8505 75.0671 31.1176 75.5599C30.3949 76.0489 29.7748 76.7068 29.2995 77.4887C28.8243 78.2706 28.5051 79.1581 28.3637 80.0908C28.3366 80.3032 28.3179 80.5133 28.3095 80.7257C28.2887 81.328 28.3429 81.9419 28.272 82.5325C28.2549 82.6799 28.2284 82.8258 28.1929 82.969C28.1837 83.0111 28.1718 83.0525 28.1575 83.0927C28.1262 82.8196 28.0908 82.5512 28.0491 82.2827C27.4141 81.5602 26.8638 80.7499 26.4118 79.8714C26.29 79.7198 26.192 79.5462 26.1223 79.3578C25.4473 77.5977 24.987 75.8166 24.987 73.8885C24.9868 71.3599 25.7003 68.896 27.0253 66.8492C28.3503 64.8024 30.2189 63.2776 32.364 62.4928C34.5091 61.7081 36.8207 61.7036 38.9681 62.48C41.1156 63.2563 42.989 64.7739 44.3204 66.8155H44.3225Z" fill="black"/>
<path d="M45.0078 62.2215C44.4724 60.8326 43.3413 59.8475 42.1789 59.0749C39.8875 57.5435 37.2503 56.5818 34.5755 56.5421C33.226 56.5425 31.8802 56.699 30.5593 57.009C29.2721 57.2668 28.0112 57.668 26.7951 58.2065C24.7886 59.1416 23.0149 60.6092 21.6269 62.483C21.3353 62.5078 21.0461 62.5601 20.7624 62.6394C19.6292 62.9568 18.6085 63.6548 17.6773 64.4461C16.8981 65.0787 16.206 65.8361 15.6234 66.6941C14.9414 67.7899 14.4697 69.0322 14.2381 70.3427C13.4444 74.4417 14.4214 78.6715 15.138 82.787C15.8546 86.9024 16.2733 91.3983 14.5131 95.0959C13.8485 96.4965 12.9049 97.687 12.1966 99.0502C11.4884 100.413 11.0176 102.054 11.4196 103.567C11.8987 105.407 13.5111 106.574 14.3527 108.229C14.8681 109.311 15.052 110.554 14.8763 111.765C14.7005 112.976 14.1748 114.089 13.3798 114.933C14.7026 115.447 16.1754 114.893 17.3669 114.072C18.3117 113.455 19.1154 112.601 19.7146 111.576C21.2124 108.859 20.5478 105.351 21.0686 102.211C21.7623 98.1025 24.562 94.4376 24.1766 90.2778C23.9162 87.4766 22.2664 85.154 20.9686 82.7519C20.103 81.15 19.3755 79.4593 18.7959 77.7028C18.3793 76.4493 18.0419 75.1023 18.2481 73.7858C18.3163 73.3838 18.4261 72.9921 18.5751 72.6186C18.5751 72.663 18.5751 72.7073 18.5751 72.7517C18.5989 73.9608 18.8412 75.152 19.2876 76.2532C20.8374 79.8013 24.9641 81.1086 26.7118 84.5377C27.2221 83.9144 27.7533 83.2608 27.9617 82.4485C28.145 81.7248 28.0512 80.9545 28.0783 80.2029C28.1512 78.102 29.2907 76.1224 30.8864 75.0393C31.6187 74.5457 32.4235 74.2019 33.2632 74.0239C34.2256 73.8301 35.288 73.9772 35.9712 73.0085C36.4712 72.3082 36.4587 71.3137 36.5774 70.4173C36.683 69.6163 36.9076 68.8406 37.2419 68.1227C37.409 67.7014 37.6828 67.3442 38.0294 67.0956C38.2955 66.9509 38.5841 66.8653 38.8793 66.8435C39.6959 66.7296 40.5188 66.682 41.3415 66.7011C42.2935 66.7268 43.3121 66.8225 44.1287 66.2739C45.2786 65.4896 45.5432 63.6221 45.0078 62.2215Z" fill="#464353"/>
<path opacity="0.06" d="M161.414 49.336C161.414 49.3687 161.414 49.399 161.414 49.4317C161.037 53.0732 157.913 52.9052 157.184 58.6429C156.896 60.8909 153.851 61.3064 151.849 61.911C150.984 61.5842 150.109 61.3017 149.245 60.9493C147.245 60.1392 148.643 58.9231 149.499 57.6158C152.301 53.3347 152.832 47.4849 156.013 43.5515C157.179 46.0352 159.025 48.0353 161.279 49.2589C161.323 49.2916 161.369 49.315 161.414 49.336Z" fill="black"/>
<path d="M161.487 47.2468C161.487 47.799 161.459 48.3508 161.404 48.8995C161.02 52.6896 159.333 56.1627 156.7 58.5806C154.068 60.9985 150.697 62.1707 147.305 61.848C143.914 61.5253 140.768 59.7333 138.537 56.8526C136.306 53.9719 135.165 50.2298 135.357 46.4215C135.549 42.6131 137.058 39.0388 139.565 36.4581C142.072 33.8774 145.377 32.4937 148.78 32.6012C152.183 32.7087 155.414 34.2988 157.787 37.0336C160.159 39.7685 161.487 43.4324 161.487 47.2468Z" fill="#A1616A"/>
<path d="M166.747 48.8855C168.245 48.8038 169.684 49.4621 171.068 50.1087C176.552 52.6764 182.083 55.2652 186.985 59.0352C189.401 60.9026 191.64 63.0222 193.876 65.1488L203.06 73.8932C204.824 75.5715 206.601 77.2663 208.018 79.3205C208.852 80.5874 209.612 81.9129 210.295 83.2888L211.657 85.8916C212.215 86.9103 212.703 87.9756 213.115 89.078C213.815 91.0878 214.076 93.4315 215.488 94.8998C216.436 95.8872 217.742 96.2887 218.9 96.94C220.058 97.5913 221.192 98.7351 221.173 100.187C221.173 101.121 220.669 101.961 220.29 102.801C219.504 104.557 219.175 106.525 219.34 108.481L204.32 95.6188C203.723 95.1075 203.098 94.58 202.362 94.4072C201.408 94.1738 200.435 94.5776 199.515 94.9418C192.256 97.8103 184.543 98.9465 176.869 98.2775C173.476 97.9788 170.03 97.2948 167.06 95.4343C165.416 94.4072 163.962 93.0463 162.518 91.6994C160.717 90.0094 158.908 88.3146 157.311 86.3818C156.894 85.8659 156.461 85.2987 156.355 84.6077C156.275 84.1082 156.373 83.5993 156.411 83.0951C156.673 79.5539 154.049 76.6057 153.249 73.1672C152.893 71.5459 152.942 69.8462 153.391 68.2542C153.84 66.6621 154.67 65.239 155.792 64.1403C157.581 65.8958 157.517 68.9794 157.309 71.6335C157.027 75.2074 157.919 76.9791 157.638 80.5553C158.771 80.5086 158.565 81.3257 159.048 80.1748C159.531 79.024 159.625 77.7261 159.717 76.4586C160.051 71.874 160.458 67.2971 160.935 62.7281C161.173 60.4428 161.444 58.1621 161.704 55.8791C161.862 54.4902 161.841 53.1923 162.496 51.9598C163.404 50.2534 164.947 48.9812 166.747 48.8855Z" fill="#37877D"/>
<path d="M168.707 53.0499C169.661 52.7138 170.688 53.0219 171.647 53.3417C173.341 53.905 175.026 54.5003 176.7 55.1274C178.069 55.6387 179.456 56.1872 180.615 57.1513C181.816 58.1504 182.698 59.5393 183.57 60.9049C184.195 61.8877 184.82 62.8821 185.237 63.9979C185.779 65.4592 185.924 67.0605 186.07 68.6339C186.166 69.3128 186.158 70.005 186.047 70.6811C185.852 71.4151 185.507 72.0886 185.041 72.6489C184.324 73.6001 183.493 74.4352 182.571 75.1303C180.119 76.9791 177.154 77.7494 174.267 78.4287C171.69 79.0333 169.095 79.5959 166.466 79.7779C165.443 79.8503 164.256 79.7779 163.631 78.8722C163.453 78.5899 163.313 78.2801 163.214 77.9525C161.678 73.3937 161.013 68.5243 161.262 63.6594C161.285 62.7727 161.407 61.8927 161.627 61.0403C161.843 60.3582 162.112 59.6983 162.429 59.0678C163.218 57.3941 164.05 55.662 165.41 54.5415C166.833 53.3744 168.676 53.0055 170.441 53.0802" fill="#A1616A"/>
<path opacity="0.06" d="M178.304 70.3613C177.486 70.9799 177.2 72.1751 177.096 73.2769C176.652 77.9619 178.377 82.6002 178.263 87.3085C178.171 91.0434 176.925 94.629 175.696 98.1141C173.601 104.06 172.509 110.516 172.086 116.891C171.663 123.267 171.045 129.905 167.991 135.298C167.297 136.518 166.489 137.653 165.81 138.881C165.097 140.165 164.533 141.542 163.904 142.877C162.05 146.821 159.661 150.417 156.821 153.538C155.988 154.448 155.105 155.331 154.042 155.856C153.358 156.189 152.62 156.365 151.874 156.374C151.128 156.383 150.388 156.224 149.697 155.907C148.272 155.247 147.072 153.757 147.014 152.03C146.962 150.485 147.785 149.091 148.61 147.854C151.405 143.662 154.62 139.844 158.192 136.472C158.84 135.86 159.523 135.228 159.858 134.355C160.235 133.348 160.081 132.207 160.129 131.117C160.206 129.378 160.81 127.727 161.171 126.033C162.629 119.149 160.038 111.632 162.146 104.963C162.614 103.481 163.31 102.064 163.475 100.502C163.591 99.4097 163.348 98.1888 162.739 97.3695C162.168 96.6329 161.848 95.6935 161.835 94.7177C161.835 94.5169 161.835 94.3185 161.858 94.1224C162.112 91.0668 162.364 87.9971 162.227 84.9322C162.089 81.8672 161.546 78.7859 160.283 76.0617C159.629 74.6495 158.783 73.3282 158.379 71.8039C157.729 69.3365 158.329 66.6684 159.298 64.3341C160.054 62.5086 161.062 60.7695 162.471 59.5183C165.087 57.1957 169.003 56.9272 171.868 58.8484C173.98 60.263 175.425 62.6417 176.598 65.067C177.44 66.8388 178.327 68.3398 178.304 70.3613Z" fill="black"/>
<path d="M178.779 70.3613C177.961 70.9799 177.675 72.1751 177.571 73.2769C177.127 77.9619 178.852 82.6002 178.738 87.3085C178.646 91.0434 177.4 94.629 176.171 98.1141C174.076 104.06 172.986 110.516 172.561 116.891C172.136 123.267 171.52 129.905 168.466 135.298C167.772 136.518 166.966 137.653 166.285 138.881C165.574 140.165 165.008 141.542 164.379 142.877C162.525 146.82 160.135 150.417 157.296 153.538C156.463 154.448 155.578 155.331 154.515 155.856C153.831 156.189 153.093 156.365 152.347 156.374C151.601 156.383 150.861 156.224 150.17 155.907C148.747 155.247 147.547 153.757 147.489 152.03C147.435 150.485 148.257 149.091 149.084 147.854C151.88 143.662 155.095 139.843 158.667 136.472C159.315 135.86 160 135.228 160.333 134.355C160.712 133.348 160.556 132.207 160.604 131.117C160.681 129.378 161.285 127.727 161.646 126.033C163.104 119.149 160.512 111.632 162.621 104.963C163.089 103.481 163.787 102.064 163.952 100.502C164.066 99.4097 163.825 98.1888 163.216 97.3695C162.634 96.638 162.305 95.6975 162.287 94.7177C162.287 94.5169 162.287 94.3185 162.31 94.1224C162.562 91.0668 162.814 87.9971 162.677 84.9322C162.539 81.8672 161.996 78.7859 160.733 76.0617C160.079 74.6495 159.233 73.3282 158.829 71.8039C158.179 69.3365 158.779 66.6684 159.748 64.3341C160.506 62.5086 161.512 60.7695 162.921 59.5183C165.537 57.1957 169.453 56.9272 172.317 58.8484C174.43 60.263 175.875 62.6417 177.048 65.067C177.911 66.8388 178.794 68.3398 178.779 70.3613Z" fill="#A1616A"/>
<path d="M199.846 131.318L199.667 131.378L199.846 131.318Z" fill="#464353"/>
<path d="M163.36 141.733C163.368 141.655 163.38 141.577 163.398 141.5L163.36 141.733Z" fill="#464353"/>
<path d="M208.022 125.715C208.622 124.938 209.547 124.59 210.436 124.331C211.87 123.916 213.334 123.649 214.811 123.533C215.728 123.422 216.655 123.486 217.552 123.722C218.44 123.995 219.281 124.588 219.731 125.486C220.129 126.28 220.192 127.223 220.244 128.131C220.352 129.999 220.452 131.866 220.177 133.706C220 134.873 219.669 136.003 219.454 137.16C218.758 140.956 219.363 144.885 219.3 148.76C219.285 149.586 219.238 150.433 218.927 151.183C218.596 151.979 218 152.583 217.419 153.181C216.78 153.828 216.13 154.479 215.359 154.911C214.217 155.553 212.903 155.66 211.626 155.704C210.849 155.73 210.049 155.732 209.334 155.413C208.62 155.093 207.976 154.374 207.924 153.503C207.841 152.025 209.328 151.059 209.753 149.658C210.091 148.543 209.703 147.31 209.166 146.295C208.304 144.676 207.074 143.343 205.601 142.431C205.056 142.095 204.475 141.813 204.02 141.339C203.566 140.865 203.258 140.13 203.452 139.471C203.683 138.675 204.51 138.304 205.254 138.225C205.997 138.146 206.783 138.206 207.451 137.835C208.047 137.506 208.462 136.871 208.747 136.201C209.354 134.771 209.439 133.132 208.982 131.633C208.802 131.063 208.54 130.529 208.207 130.052C207.895 129.604 207.253 129.226 207.03 128.736C206.635 127.853 207.491 126.416 208.022 125.715Z" fill="#37877D"/>
<path opacity="0.06" d="M195.917 91.8861C192.476 88.478 187.678 87.5513 183.179 86.5172C180.861 85.9865 178.554 85.3951 176.259 84.7431C174.751 84.3136 173.238 83.856 171.676 83.737C170.114 83.6179 168.505 83.863 167.168 84.7547C165.831 85.6465 164.822 87.2618 164.814 89.0056C164.814 89.7059 164.962 90.3921 164.916 91.0854C164.843 92.2013 164.291 93.1863 163.914 94.2298C163.338 95.8792 163.249 97.6927 163.662 99.4027C164.329 102.127 166.249 104.527 166.083 107.339C165.806 112.048 165.891 116.968 166.753 121.579C167.616 126.189 168.693 130.82 168.668 135.538C168.643 140.256 167.368 145.216 164.225 148.358C166.354 150.599 168.959 152.194 171.793 152.992C174.215 153.671 177.096 153.603 178.821 151.58C179.221 151.113 179.552 150.489 179.469 149.847C179.383 149.442 179.231 149.059 179.021 148.715C177.836 146.337 177.979 143.405 178.504 140.748C179.029 138.092 179.927 135.51 180.154 132.798C180.321 130.83 180.133 128.829 180.469 126.887C180.727 125.4 181.285 123.999 181.621 122.531C182.61 118.175 181.571 113.602 180.537 109.263C181.402 111.492 183.037 113.231 184.729 114.744C187.295 117.036 190.399 119.06 193.661 118.654C196.565 118.29 199.038 116.028 200.744 113.374C200.758 110.304 201.708 107.402 201.539 104.34C201.431 102.994 201.216 101.663 200.898 100.36C200.579 98.9031 200.252 97.4325 199.648 96.0949C198.85 94.3185 197.246 93.2003 195.917 91.8861Z" fill="black"/>
<path d="M196.63 91.8861C193.188 88.478 188.393 87.5513 183.891 86.5172C181.573 85.9865 179.267 85.3951 176.973 84.7431C175.465 84.3136 173.951 83.856 172.39 83.737C170.83 83.6179 169.222 83.863 167.885 84.7547C166.547 85.6465 165.537 87.2618 165.531 89.0056C165.531 89.7059 165.677 90.3921 165.631 91.0854C165.56 92.2013 164.995 93.1863 164.629 94.2298C164.053 95.8795 163.965 97.6929 164.379 99.4027C165.043 102.127 166.964 104.527 166.799 107.339C166.52 112.048 166.606 116.968 167.468 121.579C168.33 126.189 169.407 130.82 169.382 135.538C169.357 140.256 168.074 145.2 164.929 148.337C167.059 150.578 169.663 152.172 172.497 152.971C174.919 153.65 177.802 153.582 179.525 151.559C179.925 151.092 180.256 150.468 180.173 149.826C180.087 149.421 179.935 149.038 179.725 148.694C178.54 146.316 178.683 143.384 179.208 140.727C179.733 138.071 180.631 135.489 180.86 132.777C181.025 130.809 180.837 128.808 181.175 126.866C181.431 125.379 181.991 123.978 182.325 122.51C183.314 118.154 182.277 113.581 181.242 109.242C182.106 111.471 183.741 113.21 185.435 114.723C188.001 117.015 191.103 119.039 194.365 118.633C197.269 118.269 199.742 116.007 201.448 113.353C201.46 110.283 202.41 107.381 202.241 104.319C202.133 102.973 201.918 101.642 201.6 100.339C201.283 98.8821 200.954 97.4115 200.35 96.0739C199.575 94.3185 197.959 93.2003 196.63 91.8861Z" fill="#A1616A"/>
<path d="M172.724 150.793C171.195 149.75 169.876 148.365 168.847 146.724C168.476 146.136 168.143 145.51 167.68 145.011C167.218 144.511 166.591 144.14 165.951 144.215C165.229 144.299 164.65 144.915 164.191 145.55C162.962 147.256 162.171 149.343 160.806 150.919C159.231 152.742 157.034 153.72 154.84 154.346C152.647 154.971 150.382 155.3 148.232 156.092C147.558 156.339 146.847 156.675 146.483 157.359C146.02 158.23 146.274 159.372 146.762 160.235C147.66 161.869 149.205 162.922 150.818 163.548C152.43 164.173 154.136 164.423 155.817 164.792C158.788 165.443 161.831 166.487 164.787 165.751C165.966 165.457 167.078 164.888 168.27 164.64C170.978 164.075 173.771 165.217 176.49 164.759C177.804 164.537 179.046 163.949 180.24 163.286C180.838 162.996 181.382 162.582 181.844 162.065C182.279 161.524 182.541 160.756 182.362 160.055C182.26 159.652 182.025 159.311 181.869 158.93C181.623 158.342 181.573 157.681 181.514 157.035C181.29 154.574 180.908 152.133 180.373 149.733C180.187 148.895 179.91 147.961 179.213 147.595C179.07 147.509 178.904 147.488 178.748 147.536C178.5 147.642 178.419 147.978 178.344 148.26C178.139 149.041 177.748 149.744 177.212 150.293C176.676 150.842 176.016 151.216 175.303 151.375C174.591 151.533 173.853 151.47 173.171 151.191C172.488 150.913 171.887 150.43 171.432 149.796" fill="#37877D"/>
<path opacity="0.06" d="M161.487 47.2468C161.487 47.799 161.459 48.3508 161.404 48.8995C160.748 49.0097 160.077 48.9447 159.447 48.7099C158.818 48.475 158.246 48.0769 157.779 47.5479C157.34 47.0251 157.011 46.3924 156.575 45.8649C156.14 45.3373 155.534 44.8985 154.909 44.9545C154.376 44.9989 153.913 45.377 153.549 45.8159C153.074 46.3872 152.727 47.0758 152.534 47.8257C152.395 48.3556 152.326 48.9579 151.934 49.3104C151.543 49.6628 151.061 49.6395 150.597 49.6208C149.995 49.5975 149.37 49.5648 148.839 49.2473C147.839 48.6427 147.501 47.2585 147.131 46.054C146.506 44.0301 145.099 40.2018 142.914 39.7933C141.873 39.5996 140.606 40.2158 139.79 40.8811C138.558 41.8825 137.65 42.5315 136.059 42.5035C137.062 39.2221 139.072 36.446 141.73 34.6688C144.388 32.8916 147.523 32.2286 150.576 32.7977C153.629 33.3668 156.404 35.1311 158.406 37.7768C160.407 40.4226 161.507 43.7782 161.508 47.2468H161.487Z" fill="black"/>
<path d="M136.04 41.9688C135.664 41.9779 135.291 41.9115 134.936 41.7728C133.926 41.3292 133.434 40.022 133.349 38.8105C133.215 36.964 133.765 35.1526 134.317 33.4042C134.434 33.0237 134.573 32.6152 134.878 32.4028C135.124 32.2673 135.393 32.1917 135.667 32.181C137.163 31.9476 138.461 30.9228 139.565 29.7743C140.669 28.6258 141.664 27.3233 142.898 26.3662C146.168 23.8381 151.022 24.3096 153.851 27.4283C154.971 28.6608 155.934 30.3322 157.488 30.6217C158.384 30.7874 159.344 30.4419 160.196 30.8154C160.821 31.0885 161.267 31.7071 161.625 32.3397C162.787 34.3846 163.333 36.8076 163.514 39.2237C163.695 41.6397 163.529 44.0697 163.36 46.4858C163.37 46.8475 163.286 47.2047 163.121 47.5152C162.987 47.6943 162.82 47.8378 162.631 47.9354C161.839 48.3729 160.944 48.5199 160.073 48.3557C159.203 48.1915 158.4 47.7243 157.779 47.0203C157.338 46.4998 157.011 45.8672 156.575 45.3373C156.14 44.8074 155.534 44.3732 154.909 44.4292C154.378 44.4736 153.911 44.8517 153.549 45.2906C153.074 45.8619 152.727 46.5505 152.534 47.3004C152.397 47.8303 152.326 48.4326 151.934 48.7827C151.543 49.1329 151.061 49.1142 150.595 49.0955C149.995 49.0699 149.37 49.0395 148.839 48.7197C147.837 48.1175 147.499 46.7332 147.131 45.5287C146.506 43.5048 145.102 39.6742 142.914 39.268C141.873 39.0719 140.606 39.6905 139.79 40.3558C138.54 41.3502 137.64 41.9992 136.04 41.9688Z" fill="#464353"/>
<path opacity="0.06" d="M67.0555 129.137C66.9118 130.202 66.0411 131.033 65.4265 131.859C63.7559 134.119 62.0623 136.385 60.1937 138.454C58.194 140.664 55.9984 142.634 53.8048 144.605L50.9593 147.156C50.6083 147.516 50.1968 147.793 49.749 147.973C49.2244 148.12 48.6701 148.046 48.1908 147.765C48.2325 147.672 48.2762 147.586 48.3241 147.499L51.7363 141.091C52.4071 139.836 52.8466 138.692 53.6111 137.513C54.7631 135.748 55.9254 133.974 57.344 132.478C59.1376 130.585 61.4374 129.21 63.5705 127.842C63.8788 126.805 65.1703 126.518 66.0431 127.008C66.3666 127.196 66.6579 127.447 66.9035 127.748C67.0598 128.189 67.1122 128.667 67.0555 129.137Z" fill="black"/>
<path d="M51.9738 141.355L48.5616 147.765C48.4221 148.024 48.2783 148.319 48.3387 148.613C48.4154 148.86 48.5616 149.072 48.7553 149.217C50.0635 150.41 51.5134 151.668 51.9238 153.501C52.2175 154.808 51.9238 156.209 52.1862 157.52C52.6674 159.887 54.7901 161.325 56.7983 162.236C61.2978 164.276 66.2931 165.06 71.0739 164.103C75.8546 163.146 80.3916 160.42 83.4871 156.227C84.437 154.939 85.2495 153.529 86.1514 152.198C88.6512 148.522 91.8238 145.503 94.9714 142.515C99.023 138.668 101.41 132.931 104.97 128.509C105.618 127.704 106.333 126.875 107.262 126.609C107.783 126.462 108.512 126.679 108.532 127.282C108.58 128.449 109.418 129.403 109.991 130.379C112.149 134.077 114.407 137.889 117.742 140.246C119.567 141.54 121.635 142.331 123.698 143.048C128.926 144.873 134.257 146.316 139.581 147.744C139.85 147.142 140.173 146.572 140.544 146.043C141.096 145.284 141.823 144.705 142.377 143.942C143.391 142.567 143.748 140.748 144.072 139.002C140.892 136.82 137.627 134.567 134.49 132.298C132.911 131.159 131.322 129.994 130.043 128.453C129.209 127.44 128.51 126.28 127.674 125.26C126.82 124.27 125.899 123.355 124.92 122.522L117.421 115.792C115.267 113.862 113.072 111.824 110.963 109.825C109.778 108.7 108.464 107.517 106.914 107.463C105.587 107.416 104.366 108.212 103.225 108.978C96.5198 113.477 89.715 117.774 82.8101 121.868C81.4124 122.695 80.0083 123.516 78.6751 124.466C76.0812 126.316 73.7781 128.633 71.8592 131.325C71.5071 131.817 71.0614 132.377 70.5031 132.303C70.3496 132.277 70.2018 132.22 70.0677 132.132C69.2074 131.616 68.6804 130.62 68.1929 129.674C67.7055 128.729 67.1618 127.734 66.2889 127.244C65.4161 126.754 64.1267 127.041 63.8163 128.08C61.6728 129.488 59.3813 130.851 57.5857 132.744C56.1671 134.24 55.0047 136.012 53.8527 137.779C53.0841 138.958 52.6424 140.102 51.9738 141.355Z" fill="#464353"/>
<path opacity="0.06" d="M46.3848 102.26C46.3848 102.26 49.8157 103.966 52.2758 105.892L46.3848 102.26Z" fill="black"/>
<path d="M218.213 105.768C218.275 107.946 218.325 110.129 218.302 112.304C218.29 113.458 218.246 114.66 217.752 115.671C217.4 116.397 216.844 116.964 216.294 117.519L212.863 121.005C211.799 122.085 210.651 123.213 209.232 123.481C207.61 123.789 206.024 122.905 204.464 122.314C202.893 121.721 201.248 121.411 199.59 121.397C198.64 121.397 197.681 121.481 196.744 121.313C196.066 121.168 195.401 120.956 194.757 120.68L191.659 119.476C191.747 118.6 192.492 118.042 193.117 117.489C195.336 115.472 196.309 112.23 197.009 109.127C197.578 106.705 197.983 104.239 198.221 101.749C198.327 100.516 198.375 99.2626 198.144 98.0511C197.926 97.0737 197.619 96.1241 197.227 95.2172L196.138 92.465C195.513 90.9104 194.263 90.2194 192.99 89.302C194.911 90.119 197.252 90.4388 198.713 92.0588C198.994 92.4178 199.328 92.7208 199.7 92.9552C200.098 93.1676 200.55 93.1887 200.985 93.268C203.154 93.6322 204.997 95.1588 206.789 96.5711C208.982 98.3016 211.236 99.9271 213.551 101.448C214.592 102.134 215.667 102.808 216.544 103.744C217.421 104.681 218.109 105.927 218.165 107.283" fill="#464353"/>
<path opacity="0.06" d="M31.4071 101.945C28.6762 102.549 27.2555 106.147 27.4159 109.258C27.57 112.038 28.5887 114.668 30.2947 116.693C31.4342 118.035 32.8549 119.072 33.884 120.521C35.4046 122.66 35.9337 125.486 37.294 127.758C38.2814 129.406 39.6667 130.699 41.0436 131.939C44.2183 134.777 47.4964 137.464 50.878 139.999C52.2529 141.028 53.7569 142.07 55.4109 142.03C56.9691 141.992 58.4043 140.968 59.4209 139.642C60.4374 138.316 61.0874 136.705 61.7477 135.118C64.1266 129.305 66.5222 123.43 67.6596 117.165C68.0158 115.197 68.2554 113.168 69.0511 111.368C69.6761 109.968 70.601 108.768 71.4259 107.503C73.3748 104.501 74.7427 101.075 75.4421 97.4465C75.8963 95.0795 76.0483 92.5444 75.3026 90.2801C74.5568 88.0158 72.7466 86.0526 70.5906 85.8752C68.8845 85.7352 67.2097 86.7156 66.0639 88.1419C64.9182 89.5682 64.2433 91.3913 63.7829 93.2377C63.123 95.8941 62.8694 98.6566 63.033 101.408C63.1663 103.628 63.5704 105.869 63.2288 108.063C62.9872 109.611 62.3852 111.056 61.7894 112.48C60.25 116.154 58.6855 119.875 56.3587 122.984C55.6004 123.997 54.5568 125.022 53.3965 124.784C51.7925 124.457 51.3676 122.181 50.576 120.582C49.6052 118.621 47.7638 117.442 46.3202 115.885C44.2662 113.668 43.0351 110.694 41.5748 107.949C40.1146 105.203 38.2252 102.493 35.5338 101.441C32.8424 100.388 29.2553 101.739 28.5637 104.839" fill="black"/>
<path opacity="0.06" d="M33.4673 104.076C30.7343 104.681 27.2555 105.075 27.4263 108.191C27.5787 110.971 28.5976 113.603 30.3052 115.626C31.4446 116.971 32.8653 118.007 33.8944 119.457C35.4151 121.595 35.9442 124.42 37.3044 126.693C38.2918 128.344 39.6771 129.637 41.0541 130.874C44.2287 133.714 47.5069 136.401 50.8884 138.934C52.2633 139.966 53.7673 141.007 55.4213 140.968C56.9795 140.93 58.4147 139.903 59.4313 138.58C60.4479 137.256 61.0978 135.643 61.7581 134.053C64.1371 128.241 66.5326 122.365 67.67 116.1C68.0262 114.135 68.2658 112.104 69.0615 110.306C69.6865 108.906 70.6114 107.706 71.4363 106.438C73.3855 103.437 74.7535 100.013 75.4525 96.3844C75.9067 94.015 76.0587 91.4823 75.313 89.2156C74.5672 86.949 72.757 84.9905 70.601 84.8108C68.8949 84.6707 67.2201 85.6535 66.0744 87.0774C64.9286 88.5013 64.2537 90.3268 63.7933 92.1756C63.1332 94.8319 62.8797 97.5944 63.0434 100.346C63.1767 102.568 63.5809 104.809 63.2392 107.001C62.9976 108.551 62.3956 109.996 61.7998 111.42C60.2604 115.094 58.696 118.813 56.3691 121.924C55.6109 122.937 54.5672 123.96 53.4069 123.724C51.8029 123.395 51.378 121.119 50.5864 119.522C49.6157 117.561 47.7742 116.383 46.3306 114.826C44.2766 112.61 43.0455 109.634 41.5852 106.889C40.125 104.144 38.2356 101.436 35.5442 100.381C32.8528 99.3256 36.2233 106.083 35.5296 109.183" fill="black"/>
<path d="M31.4071 101.41C28.6762 102.015 27.2555 105.612 27.4159 108.724C27.5695 111.504 28.5883 114.135 30.2947 116.161C31.4342 117.503 32.8549 118.539 33.884 119.989C35.4046 122.127 35.9337 124.954 37.294 127.226C38.2814 128.876 39.6667 130.169 41.0436 131.409C44.2183 134.247 47.4964 136.933 50.878 139.467C52.2529 140.499 53.7569 141.54 55.4109 141.5C56.9691 141.463 58.4043 140.438 59.4209 139.112C60.4374 137.786 61.0874 136.175 61.7477 134.588C64.1266 128.776 66.5222 122.9 67.6596 116.632C68.0158 114.667 68.2554 112.636 69.0511 110.839C69.6761 109.438 70.601 108.238 71.4259 106.971C73.3751 103.969 74.7431 100.545 75.4421 96.9166C75.8963 94.5473 76.0483 92.0145 75.3026 89.7479C74.5568 87.4813 72.7466 85.5228 70.5906 85.3454C68.8845 85.203 67.2097 86.1857 66.0639 87.612C64.9182 89.0383 64.2433 90.8614 63.7829 92.7078C63.123 95.3642 62.8694 98.1267 63.033 100.878C63.1663 103.098 63.5704 105.339 63.2288 107.531C62.9872 109.081 62.3852 110.526 61.7894 111.95C60.25 115.624 58.6855 119.345 56.3587 122.454C55.6004 123.467 54.5568 124.49 53.3965 124.254C51.7925 123.925 51.3676 121.651 50.576 120.052C49.6052 118.089 47.7638 116.91 46.3202 115.355C44.2662 113.138 43.0351 110.164 41.5748 107.419C40.1146 104.674 38.2252 101.966 35.5338 100.913C32.8424 99.8602 29.2553 101.212 28.5637 104.312" fill="#FBBEBE"/>
<g opacity="0.06">
<path opacity="0.06" d="M20.9687 82.7636C20.103 81.1617 19.3755 79.471 18.796 77.7144L18.7252 77.481C18.2856 76.9522 17.9159 76.3556 17.6274 75.7093C17.1808 74.6082 16.9384 73.4169 16.9149 72.2078C16.9149 72.1634 16.9149 72.1191 16.9149 72.0747C16.7659 72.4482 16.6561 72.8399 16.5879 73.2419C16.3796 74.5584 16.7233 75.903 17.1357 77.1589C17.7157 78.9152 18.4432 80.6059 19.3084 82.208C20.602 84.6311 22.254 86.9654 22.5102 89.7456C22.8956 93.9053 20.0958 97.5679 19.4042 101.679C18.8751 104.818 19.5459 108.327 18.0481 111.044C17.4495 112.068 16.6456 112.922 15.7005 113.537C15.1077 113.96 14.4587 114.275 13.7778 114.471C13.6536 114.636 13.52 114.792 13.3778 114.938C14.7006 115.451 16.1733 114.898 17.3649 114.076C18.3096 113.46 19.1134 112.606 19.7126 111.581C21.2103 108.864 20.5458 105.355 21.0666 102.216C21.7603 98.1071 24.56 94.4422 24.1746 90.2825C23.9163 87.4859 22.2665 85.1539 20.9687 82.7636Z" fill="black"/>
<path opacity="0.06" d="M45.0078 62.2215C44.4725 60.8326 43.3413 59.8475 42.179 59.0748C40.7055 58.084 39.102 57.3593 37.4274 56.9272C38.5021 57.3476 39.5363 57.888 40.5145 58.5403C41.6769 59.3153 42.806 60.298 43.3455 61.6893C43.885 63.0805 43.6163 64.9573 42.4581 65.7323C41.6415 66.2809 40.6229 66.1829 39.6709 66.1595C38.8482 66.1384 38.0252 66.1852 37.2086 66.2996C36.9138 66.3234 36.6255 66.4089 36.3587 66.5517C36.0111 66.804 35.7373 67.1652 35.5713 67.5905C35.2364 68.3083 35.011 69.0839 34.9047 69.8851C34.7881 70.7815 34.7985 71.7642 34.2985 72.4762C33.6194 73.4449 32.557 73.2979 31.5905 73.4893C30.7511 73.6698 29.9466 74.0143 29.2136 74.5071C27.618 75.5879 26.4785 77.5627 26.4056 79.6706C26.3806 80.4223 26.4723 81.1902 26.291 81.9139C26.1741 82.3361 25.9907 82.7313 25.7494 83.081C26.1185 83.5232 26.4414 84.0111 26.7118 84.5353C27.2222 83.9121 27.7534 83.2585 27.9617 82.4461C28.145 81.7225 28.0513 80.9521 28.0783 80.2005C28.1512 78.0996 29.2907 76.1201 30.8864 75.037C31.6187 74.5434 32.4235 74.1996 33.2632 74.0215C34.2256 73.8278 35.288 73.9748 35.9713 73.0061C36.4712 72.3058 36.4587 71.3114 36.5775 70.415C36.6831 69.6139 36.9077 68.8383 37.242 68.1203C37.4091 67.699 37.6829 67.3419 38.0294 67.0932C38.2955 66.9485 38.5841 66.8629 38.8793 66.8411C39.6959 66.7272 40.5188 66.6796 41.3415 66.6987C42.2935 66.7244 43.3122 66.8201 44.1288 66.2716C45.2786 65.4896 45.5432 63.6221 45.0078 62.2215Z" fill="black"/>
</g>
<path opacity="0.06" d="M31.3676 84.526C31.3676 84.526 33.8277 86.8977 38.5001 85.4597C38.5001 85.4551 35.6067 86.7319 31.3676 84.526Z" fill="black"/>
<path opacity="0.06" d="M163.314 44.5156C163.319 44.8761 163.232 45.2307 163.064 45.5381C162.931 45.7165 162.764 45.8592 162.575 45.9559C161.783 46.3939 160.889 46.5414 160.018 46.3776C159.148 46.2137 158.346 45.7469 157.725 45.0432C157.284 44.5203 156.957 43.876 156.521 43.3601C156.086 42.8442 155.48 42.3937 154.855 42.4497C154.324 42.4964 153.859 42.8746 153.494 43.3111C153.022 43.8844 152.675 44.5723 152.48 45.321C152.345 45.8532 152.272 46.4531 151.882 46.8056C151.493 47.1581 151.009 47.1347 150.543 47.1161C149.941 47.0927 149.316 47.0624 148.787 46.7426C147.785 46.1403 147.447 44.7537 147.076 43.5515C146.451 41.5254 145.047 37.6971 142.862 37.2885C141.821 37.0948 140.552 37.7134 139.738 38.3763C138.506 39.3778 137.598 40.0267 136.005 40.0104C135.629 40.0185 135.255 39.9521 134.901 39.8143C133.984 39.4104 133.494 38.2946 133.347 37.1882C133.29 37.6953 133.278 38.2074 133.311 38.7172C133.399 39.9263 133.89 41.2336 134.901 41.6794C135.255 41.8172 135.629 41.8836 136.005 41.8755C137.598 41.9035 138.504 41.2546 139.738 40.2531C140.556 39.5902 141.821 38.9693 142.862 39.1653C145.039 39.5622 146.456 43.3905 147.068 45.4143C147.439 46.6189 147.776 48.0054 148.778 48.6077C149.307 48.9252 149.932 48.9578 150.534 48.9812C151.001 48.9999 151.513 49.0022 151.874 48.6707C152.234 48.3393 152.336 47.716 152.472 47.1861C152.666 46.4372 153.014 45.7491 153.486 45.1762C153.851 44.7397 154.319 44.3616 154.846 44.3149C155.488 44.2588 156.096 44.6954 156.513 45.2253C156.929 45.7552 157.275 46.3924 157.717 46.9083C158.337 47.612 159.14 48.0789 160.01 48.2427C160.881 48.4065 161.775 48.259 162.566 47.821C162.755 47.7236 162.922 47.5809 163.056 47.4032C163.224 47.0951 163.311 46.7397 163.306 46.3784C163.469 44.4122 163.538 42.4377 163.514 40.4632C163.498 41.8148 163.408 43.1664 163.314 44.5156Z" fill="black"/>
<path d="M18.7085 144.098C18.7085 144.098 19.0397 143.685 18.4168 143.521V142.842H18.7918C18.791 142.021 18.5388 141.226 18.0773 140.589C17.6159 139.951 16.9732 139.511 16.2567 139.341V138.517H16.3546V137.445H13.9444V138.517H14.0131V139.35C13.3033 139.528 12.669 139.972 12.2145 140.609C11.7601 141.245 11.5128 142.036 11.5134 142.851H11.8446V143.503C11.8446 143.503 11.0551 143.921 11.8446 144.67C12.6341 145.419 12.5112 145.961 12.5112 145.961C12.5112 145.961 12.18 147.361 11.5155 147.543V160.529C11.5152 160.908 11.5816 161.284 11.7109 161.634C11.8401 161.985 12.0298 162.303 12.2689 162.571C12.508 162.839 12.7919 163.052 13.1044 163.197C13.4169 163.342 13.7519 163.417 14.0902 163.417H16.1254C16.8088 163.417 17.4643 163.113 17.9475 162.571C18.4307 162.03 18.7022 161.295 18.7022 160.529V147.543C18.7022 147.543 17.5378 146.565 17.7461 145.961C18.0255 145.314 18.3472 144.692 18.7085 144.098Z" fill="#464353"/>
</g>
<defs>
<linearGradient id="paint0_linear" x1="115.615" y1="165.707" x2="115.615" y2="23.1028" gradientUnits="userSpaceOnUse">
<stop stop-color="#808080" stop-opacity="0.25"/>
<stop offset="0.54" stop-color="#808080" stop-opacity="0.12"/>
<stop offset="1" stop-color="#808080" stop-opacity="0.1"/>
</linearGradient>
<clipPath id="clip0">
<rect width="240" height="180" fill="white"/>
</clipPath>
</defs>
</svg>
