<svg width="50" height="50" viewBox="0 0 50 50" fill="none" xmlns="http://www.w3.org/2000/svg">
<path d="M41.6667 4.16669H16.6667C15.5616 4.16669 14.5018 4.60567 13.7204 5.38708C12.939 6.16848 12.5 7.22828 12.5 8.33335V33.3334C12.5 34.4384 12.939 35.4982 13.7204 36.2796C14.5018 37.061 15.5616 37.5 16.6667 37.5H41.6667C42.7717 37.5 43.8315 37.061 44.6129 36.2796C45.3943 35.4982 45.8333 34.4384 45.8333 33.3334V8.33335C45.8333 7.22828 45.3943 6.16848 44.6129 5.38708C43.8315 4.60567 42.7717 4.16669 41.6667 4.16669ZM29.1667 9.37502C30.548 9.37502 31.8728 9.92375 32.8495 10.9005C33.8263 11.8773 34.375 13.202 34.375 14.5834C34.375 15.9647 33.8263 17.2894 32.8495 18.2662C31.8728 19.243 30.548 19.7917 29.1667 19.7917C27.7853 19.7917 26.4606 19.243 25.4838 18.2662C24.5071 17.2894 23.9583 15.9647 23.9583 14.5834C23.9583 13.202 24.5071 11.8773 25.4838 10.9005C26.4606 9.92375 27.7853 9.37502 29.1667 9.37502ZM39.5833 31.25H18.75V30.7292C18.75 26.8771 23.4458 22.9167 29.1667 22.9167C34.8875 22.9167 39.5833 26.8771 39.5833 30.7292V31.25Z" fill="white"/>
<path d="M8.33333 16.6667H4.16666V41.6667C4.16666 43.9646 6.03541 45.8334 8.33333 45.8334H33.3333V41.6667H8.33333V16.6667Z" fill="white"/>
</svg>
