<svg width="25" height="25" viewBox="0 0 25 25" fill="none" xmlns="http://www.w3.org/2000/svg">
<path d="M12.5 16.6666C14.2406 16.6666 15.625 15.2802 15.625 13.5416C15.625 11.8031 14.2406 10.4166 12.5 10.4166C10.7594 10.4166 9.375 11.8031 9.375 13.5416C9.375 15.2802 10.7594 16.6666 12.5 16.6666Z" fill="#3F3D56"/>
<path d="M21.6844 11.6521C21.4389 10.4525 20.9593 9.31304 20.2729 8.299C19.5985 7.30137 18.7393 6.44215 17.7417 5.76775C16.7275 5.08163 15.5881 4.60201 14.3885 4.35629C13.7584 4.22851 13.1169 4.16568 12.474 4.16879V2.08337L8.33333 5.20837L12.474 8.33337V6.25212C12.9781 6.25004 13.4823 6.29796 13.9687 6.39796C14.9011 6.58901 15.7866 6.96172 16.575 7.49483C17.3525 8.01904 18.0216 8.68819 18.5458 9.46567C19.3597 10.669 19.7937 12.089 19.7917 13.5417C19.7915 14.5166 19.5967 15.4816 19.2188 16.3802C19.0349 16.8131 18.8103 17.2275 18.5479 17.6177C18.2845 18.0057 17.9853 18.368 17.6542 18.7C16.6458 19.7065 15.3657 20.3968 13.9708 20.6865C13.0008 20.8823 12.0013 20.8823 11.0312 20.6865C10.0985 20.4953 9.21254 20.1222 8.42396 19.5886C7.64738 19.0648 6.97895 18.3964 6.45521 17.6198C5.64225 16.4152 5.20803 14.995 5.20833 13.5417H3.125C3.12611 15.4101 3.68426 17.2358 4.72812 18.7855C5.40297 19.7814 6.26131 20.6398 7.25729 21.3146C8.80481 22.362 10.6314 22.9202 12.5 22.9167C13.1347 22.9167 13.7677 22.8528 14.3896 22.7261C15.5883 22.4786 16.727 21.9991 17.7417 21.3146C18.2399 20.9789 18.7042 20.5955 19.1281 20.1698C19.5526 19.7442 19.9362 19.2796 20.274 18.7823C21.3204 17.2352 21.8782 15.4095 21.875 13.5417C21.8749 12.907 21.8111 12.274 21.6844 11.6521Z" fill="#3F3D56"/>
</svg>
