<svg width="375" height="255" viewBox="0 0 375 255" fill="none" xmlns="http://www.w3.org/2000/svg">
<path opacity="0.1" d="M7.26158 81.3042C4.43805 90.1771 12.7395 98.1571 19.2689 104.584C28.2063 113.4 35.2583 124.069 39.9675 135.897C42.8057 143.045 44.78 150.735 44.2505 158.448C42.7505 180.323 22.905 194.897 7.04834 209.388C4.80202 211.46 2.55569 213.628 1.24687 216.422C-2.95534 225.386 4.18805 235.717 12.0557 241.434C40.0741 261.783 80.5153 255.73 107.692 234.187C121.765 223.028 133.861 207.854 150.916 202.893C161.82 199.737 173.394 201.233 184.677 202.206C201.595 203.661 218.591 203.87 235.537 202.832C241.486 202.45 247.706 201.855 252.688 198.462C265.302 189.883 263.173 169.542 272.276 157.062C278.82 148.094 290.001 144.636 299.732 139.679C314.711 132.006 327.21 119.967 335.699 105.034C343.512 91.2304 347.559 75.5377 351.508 60.0662C354.486 48.4417 357.475 36.2676 354.953 24.5247C352.431 12.7818 342.475 1.8175 330.931 2.84791C322.067 3.63789 315.015 10.908 306.478 13.5108C286.03 19.7619 266.177 -1.94923 244.964 0.145941C231.607 1.46258 220.835 11.9766 212.692 23.044C204.548 34.1113 197.655 46.5717 186.901 54.9066C170.173 67.8821 147.254 68.3401 126.776 64.1383C106.298 59.9365 86.6513 51.6665 65.9454 48.9111C53.7469 47.2892 44.3976 54.834 33.4123 58.9824C23.3314 62.7911 10.9969 69.5689 7.26158 81.3042Z" fill="#32877D"/>
<path opacity="0.1" d="M50.7169 255C65.4865 255 77.4596 251.224 77.4596 246.566C77.4596 241.908 65.4865 238.132 50.7169 238.132C35.9474 238.132 23.9743 241.908 23.9743 246.566C23.9743 251.224 35.9474 255 50.7169 255Z" fill="#32877D"/>
<path opacity="0.1" d="M303.577 143.613C343.023 143.613 375 141.41 375 138.693C375 135.976 343.023 133.774 303.577 133.774C264.132 133.774 232.154 135.976 232.154 138.693C232.154 141.41 264.132 143.613 303.577 143.613Z" fill="#32877D"/>
<g opacity="0.5">
<path opacity="0.5" d="M260.397 26.1037C261.388 26.1037 262.338 26.5122 263.038 27.2394C263.739 27.9665 264.132 28.9528 264.132 29.9811V137.793H256.662V29.9773C256.663 28.9496 257.057 27.9644 257.757 27.238C258.457 26.5117 259.407 26.1037 260.397 26.1037Z" fill="#32877D"/>
<path opacity="0.5" d="M342.357 26.1037C343.347 26.1037 344.297 26.5123 344.998 27.2394C345.698 27.9666 346.092 28.9528 346.092 29.9811V137.793H338.603V29.9773C338.603 29.4669 338.701 28.9615 338.89 28.4903C339.079 28.019 339.356 27.5912 339.705 27.2313C340.053 26.8714 340.467 26.5865 340.922 26.393C341.377 26.1995 341.865 26.1012 342.357 26.1037Z" fill="#32877D"/>
<path opacity="0.5" d="M364.158 50.2039C366.221 50.2039 367.893 48.4679 367.893 46.3265C367.893 44.1851 366.221 42.4491 364.158 42.4491L238.599 42.4491C236.536 42.4491 234.864 44.1851 234.864 46.3265C234.864 48.4679 236.536 50.2039 238.599 50.2039L364.158 50.2039Z" fill="#32877D"/>
<path opacity="0.5" d="M254.441 34.7974C254.441 33.1196 253.131 31.7596 251.515 31.7596C249.898 31.7596 248.588 33.1196 248.588 34.7974V57.848C248.588 59.5258 249.898 60.8858 251.515 60.8858C253.131 60.8858 254.441 59.5258 254.441 57.848V34.7974Z" fill="#32877D"/>
<path opacity="0.5" d="M248.588 37.5222C248.588 35.8445 247.278 34.4844 245.662 34.4844C244.045 34.4844 242.735 35.8445 242.735 37.5222V55.127C242.735 56.8047 244.045 58.1648 245.662 58.1648C247.278 58.1648 248.588 56.8047 248.588 55.127V37.5222Z" fill="#32877D"/>
<path opacity="0.5" d="M348.312 57.848C348.312 59.5258 349.623 60.8858 351.239 60.8858C352.855 60.8858 354.165 59.5258 354.165 57.848V34.7974C354.165 33.1196 352.855 31.7596 351.239 31.7596C349.623 31.7596 348.312 33.1196 348.312 34.7974V57.848Z" fill="#32877D"/>
<path opacity="0.5" d="M354.165 55.1232C354.165 56.8009 355.476 58.161 357.092 58.161C358.708 58.161 360.018 56.8009 360.018 55.1232V37.5184C360.018 35.8407 358.708 34.4806 357.092 34.4806C355.476 34.4806 354.165 35.8407 354.165 37.5184V55.1232Z" fill="#32877D"/>
</g>
<g opacity="0.5">
<path opacity="0.5" d="M293.919 71.2281H309.191C310.848 71.2281 312.438 71.9116 313.61 73.1283C314.782 74.345 315.441 75.9952 315.441 77.7159V104.949H287.683V77.7159C287.683 75.9979 288.34 74.35 289.509 73.1337C290.678 71.9175 292.264 71.2322 293.919 71.2281Z" fill="#32877D"/>
<path opacity="0.5" d="M303.577 102.503H299.515V116.559H303.577V102.503Z" fill="#32877D"/>
<path opacity="0.5" d="M295.452 118.314H291.39V132.37H295.452V118.314Z" fill="#32877D"/>
<path opacity="0.5" d="M312.379 118.314H308.316V132.37H312.379V118.314Z" fill="#32877D"/>
<path opacity="0.5" d="M315.427 115.501H287.669V119.367H315.427V115.501Z" fill="#32877D"/>
</g>
<path opacity="0.1" d="M173.93 232.159C258.056 232.159 326.254 226.968 326.254 220.565C326.254 214.162 258.056 208.971 173.93 208.971C89.8042 208.971 21.6066 214.162 21.6066 220.565C21.6066 226.968 89.8042 232.159 173.93 232.159Z" fill="#32877D"/>
<path d="M213.368 179.276C213.368 179.276 223.86 184.196 228.938 184.196C228.938 184.196 234.353 185.6 237.393 187.008C240.434 188.416 252.287 189.115 252.287 189.115C252.287 189.115 266.165 194.385 267.857 196.847C269.548 199.308 274.625 188.069 274.625 188.069L271.915 181.043L220.812 170.854L213.368 179.276Z" fill="#FFB9B9"/>
<path opacity="0.05" d="M213.368 179.276C213.368 179.276 223.86 184.196 228.938 184.196C228.938 184.196 234.353 185.6 237.393 187.008C240.434 188.416 252.287 189.115 252.287 189.115C252.287 189.115 266.165 194.385 267.857 196.847C269.548 199.308 274.625 188.069 274.625 188.069L271.915 181.043L220.812 170.854L213.368 179.276Z" fill="black"/>
<path d="M265.158 194.74C265.158 194.74 271.588 203.518 268.882 208.796C266.176 214.074 267.191 214.066 268.882 214.417C270.573 214.768 280.051 216.879 281.07 209.147C282.088 201.415 284.118 184.199 284.118 184.199L270.221 182.791C270.221 182.791 273.96 195.793 265.158 194.74Z" fill="#737A9D"/>
<path d="M185.272 167.682L214.382 181.738C214.382 181.738 223.522 174.357 222.838 170.495L188.989 162.061L185.272 167.682Z" fill="#4C4C78"/>
<path opacity="0.1" d="M185.272 167.682L214.382 181.738C214.382 181.738 223.522 174.357 222.838 170.495L188.989 162.061L185.272 167.682Z" fill="black"/>
<path d="M307.471 185.955L304.412 193.683L297.316 195.431C295.328 193.708 293.201 192.166 290.96 190.821C287.14 188.531 282.114 186.291 277.357 186.646C277.357 186.646 258.401 183.482 257.386 182.066C257.386 182.066 245.199 179.253 242.493 179.604C241.187 179.772 238.382 178.799 235.831 177.742C233.092 176.597 230.643 175.387 230.643 175.387L239.445 160.981C240.471 161.439 241.528 161.822 242.607 162.126C245.971 163.148 252.026 164.476 260.772 164.476C274.989 164.476 294.621 179.585 294.621 179.585C294.621 179.585 294.816 179.654 295.151 179.757C296.621 180.219 300.812 181.307 302.746 179.585C305.099 177.521 307.471 185.955 307.471 185.955Z" fill="#FFB9B9"/>
<path opacity="0.1" d="M307.471 185.955L304.412 193.683L297.316 195.431C295.328 193.708 293.201 192.166 290.96 190.821C301.283 191.626 295.118 179.795 295.118 179.795H295.14C296.61 180.257 300.801 181.345 302.735 179.624C305.099 177.521 307.471 185.955 307.471 185.955Z" fill="black"/>
<path d="M291 191.118C291 191.118 299.187 203.037 295.743 209.75C292.298 216.463 293.588 216.459 295.743 216.909C297.897 217.359 309.967 220.042 311.257 210.2C312.25 202.632 311.379 188.107 310.923 181.803C310.894 181.405 310.789 181.017 310.614 180.661C310.439 180.306 310.198 179.99 309.904 179.732C309.611 179.474 309.271 179.28 308.904 179.159C308.537 179.039 308.151 178.996 307.768 179.032L295.794 180.177C295.794 180.177 302.206 192.462 291 191.118Z" fill="#737A9D"/>
<path d="M96.5846 202.819L96.9228 220.039L100.647 222.847H113.511L115.879 219.336V202.819L112.154 199.304H99.9706L96.5846 202.819Z" fill="#32877D"/>
<path opacity="0.2" d="M98.614 203.17C98.614 203.17 100.985 218.981 98.614 220.39L96.9228 220.039L96.5846 203.174L98.614 203.17Z" fill="white"/>
<path d="M126.371 201.766L129.081 198.953H141.949L144.658 201.766C144.658 201.766 148.044 211.956 145.335 218.63L142.279 221.794H129.412L126.364 218.981L126.371 201.766Z" fill="#32877D"/>
<path opacity="0.1" d="M96.5846 202.819L96.9228 220.039L100.647 222.847H113.511L115.879 219.336V202.819L112.154 199.304H99.9706L96.5846 202.819Z" fill="black"/>
<path opacity="0.1" d="M126.371 201.766L129.081 198.953H141.949L144.658 201.766C144.658 201.766 148.044 211.956 145.335 218.63L142.279 221.794H129.412L126.364 218.981L126.371 201.766Z" fill="black"/>
<path opacity="0.2" d="M129.412 202.468C129.412 202.468 132.121 214.768 129.412 218.981H126.364V201.766L129.412 202.468Z" fill="white"/>
<path d="M115.879 143.437C115.879 143.437 117.232 157.142 117.232 158.897C117.232 160.653 116.555 172.254 118.585 183.493C120.614 194.732 117.232 208.788 117.232 208.788H128.401L133.14 170.838L129.754 150.81L128.401 144.487L115.879 143.437Z" fill="#FFB9B9"/>
<path opacity="0.05" d="M115.879 143.437C115.879 143.437 117.232 157.142 117.232 158.897C117.232 160.653 116.555 172.254 118.585 183.493C120.614 194.732 117.232 208.788 117.232 208.788H128.401L133.14 170.838L129.754 150.81L128.401 144.487L115.879 143.437Z" fill="black"/>
<path d="M113.849 108.651C113.849 108.651 98.9559 109.002 110.801 134.652C110.801 134.652 113.849 145.193 113.849 146.952C113.849 148.711 129.081 148.707 130.761 146.952C132.441 145.196 128.051 130.79 128.051 124.111C128.051 117.432 123.665 106.544 113.849 108.651Z" fill="#CBCDDA"/>
<path opacity="0.05" d="M113.849 108.651C113.849 108.651 98.9559 109.002 110.801 134.652C110.801 134.652 113.849 145.193 113.849 146.952C113.849 148.711 129.081 148.707 130.761 146.952C132.441 145.196 128.051 130.79 128.051 124.111C128.051 117.432 123.665 106.544 113.849 108.651Z" fill="black"/>
<path d="M95.9081 93.5346C95.9081 93.5346 108.776 107.941 119.603 97.4005L118.25 134.648C118.25 134.648 100.647 112.513 88.4706 114.269L95.9081 93.5346Z" fill="#FFB9B9"/>
<path opacity="0.1" d="M242.592 162.168C242.077 166.285 240.46 174.956 235.816 177.765C233.077 176.62 230.629 175.41 230.629 175.41L239.43 161.004C240.456 161.469 241.513 161.858 242.592 162.168Z" fill="black"/>
<path d="M241.801 159.939C241.801 159.939 240.787 177.158 232.662 178.563L183.588 169.373C181.207 168.924 178.967 167.875 177.066 166.32C175.085 164.702 172.654 162.503 171.217 160.488C170.437 159.389 169.967 158.34 170.044 157.474C170.382 153.608 185.276 144.471 180.199 128.309C180.92 127.716 181.723 127.237 182.581 126.889C186.82 125.061 196.577 123.718 210.662 138.85C210.662 138.869 236.724 160.656 241.801 159.939Z" fill="#4C4C78"/>
<path d="M109.11 204.224L109.449 221.443L113.169 224.256H126.033L128.404 220.741V204.224L124.68 200.713H112.493L109.11 204.224Z" fill="#32877D"/>
<path opacity="0.2" d="M111.14 204.59C111.14 204.59 113.511 220.401 111.14 221.809L109.449 221.458L109.11 204.59H111.14Z" fill="white"/>
<path d="M146.346 202.819L149.055 200.007H161.923L164.632 202.819C164.632 202.819 168.018 213.009 165.309 219.684L162.261 222.847H149.393L146.346 220.035V202.819Z" fill="#32877D"/>
<path opacity="0.2" d="M149.39 203.521C149.39 203.521 152.099 215.821 149.39 220.035H146.342V202.819L149.39 203.521Z" fill="white"/>
<path d="M128.309 209.498H146.621C148.055 209.498 149.217 210.834 149.217 212.486C149.217 214.135 148.055 215.474 146.621 215.474H128.309C126.754 215.474 125.548 213.913 125.735 212.139C125.886 210.631 126.996 209.498 128.309 209.498Z" fill="#32877D"/>
<path opacity="0.1" d="M181.21 154.68C177.588 157.313 173.772 159.038 171.213 160.507C170.434 159.408 169.963 158.359 170.04 157.493C170.379 153.627 185.272 144.49 180.195 128.328C180.917 127.735 181.72 127.256 182.577 126.908C183.373 126.891 184.163 126.778 184.934 126.573C184.934 126.573 187.978 149.761 181.21 154.68Z" fill="black"/>
<path d="M105.217 120.772C105.217 120.772 110.294 126.042 115.202 129.381C119.732 132.461 111.647 101.446 111.647 101.446C111.647 101.446 116.662 97.2479 119.607 94.7558C121.573 93.0763 124.079 92.231 126.621 92.3897C133.397 92.8438 145.809 95.8015 155.824 110.059C170.379 130.79 183.581 126.573 183.581 126.573C183.581 126.573 186.629 149.765 179.857 154.684C173.085 159.603 165.64 161.359 166.989 164.171C168.338 166.984 160.897 150.467 143.971 147.658C127.044 144.849 108.426 132.549 108.768 126.576C108.772 126.573 103.864 122.539 105.217 120.772Z" fill="#CBCDDA"/>
<path opacity="0.1" d="M101.662 102.694C101.66 101.678 101.574 100.664 101.404 99.6636C96.9706 97.3738 97.5993 94.2597 97.5993 94.2597L90.1508 114.99C92.875 114.608 95.8714 115.402 98.8787 116.898C102.838 113.651 101.662 108.3 101.662 102.694Z" fill="black"/>
<path d="M86.7684 119.898C96.1166 119.898 103.695 112.031 103.695 102.327C103.695 92.6236 96.1166 84.757 86.7684 84.757C77.4202 84.757 69.8419 92.6236 69.8419 102.327C69.8419 112.031 77.4202 119.898 86.7684 119.898Z" fill="#FFB9B9"/>
<path opacity="0.1" d="M71.3897 106.289C71.0772 107.331 70.5956 108.403 69.6875 108.96C68.5846 109.64 67.0625 109.304 66.0809 108.426C65.0993 107.548 64.5699 106.235 64.2941 104.923C63.897 103.022 63.9601 101.048 64.478 99.179C64.9191 97.5952 65.6802 96.1259 66 94.504C66.3419 92.779 66.1691 90.9738 66.5515 89.2565C67.0699 86.9285 68.5478 84.9784 69.989 83.1122C70.4406 82.3999 71.026 81.7894 71.7101 81.3173C72.3943 80.8451 73.1631 80.5211 73.9706 80.3644L81.0552 78.1471C82.3983 77.6802 83.7787 77.3379 85.1802 77.1244C86.9818 76.9329 88.8021 77.0987 90.5442 77.6128C91.9314 77.975 93.2475 78.5845 94.4339 79.4142C95.6093 80.3206 96.6445 81.4081 97.5037 82.639C101.25 87.7223 103.386 96.0381 107.25 101.041C105.724 101.53 104.199 99.8964 102.673 100.393C102.456 100.49 102.214 100.51 101.985 100.45C101.758 100.322 101.581 100.117 101.482 99.8697C100.137 97.4316 98.021 95.5519 95.4927 94.5498C93.6177 93.8132 91.0809 93.817 90.0552 95.6031C89.3603 96.809 89.6397 98.3317 89.8236 99.7247C90.0074 101.118 89.9743 102.778 88.9118 103.636C88.3246 104.048 87.6413 104.288 86.9339 104.331C83.6363 104.78 80.2835 104.439 77.1324 103.335C76.0294 102.953 74.9081 101.759 73.7427 102.14C72.1691 102.656 71.8052 104.903 71.3897 106.289Z" fill="black"/>
<path d="M71.0184 105.903C70.7059 106.945 70.2243 108.018 69.3162 108.575C68.2133 109.254 66.6912 108.918 65.7096 108.041C64.728 107.163 64.1985 105.85 63.9228 104.537C63.5256 102.636 63.5888 100.663 64.1066 98.7935C64.5478 97.2097 65.3088 95.7405 65.6287 94.1185C65.9706 92.3935 65.7978 90.5884 66.1802 88.871C66.6985 86.5431 68.1765 84.5929 69.6177 82.7267C70.0693 82.0144 70.6547 81.4039 71.3388 80.9318C72.0229 80.4597 72.7918 80.1356 73.5993 79.979L80.6838 77.7617C82.0271 77.296 83.4075 76.955 84.8088 76.7427C86.6105 76.5513 88.4308 76.717 90.1728 77.2312C91.5601 77.5934 92.8762 78.2029 94.0625 79.0325C95.238 79.939 96.2732 81.0265 97.1324 82.2573C100.879 87.3407 103.015 95.6565 106.879 100.66C105.353 101.148 103.827 99.5148 102.302 100.011C102.085 100.108 101.843 100.128 101.614 100.068C101.384 99.9417 101.204 99.7368 101.103 99.4881C99.7584 97.05 97.6423 95.1703 95.114 94.1681C93.239 93.4316 90.7022 93.4354 89.6765 95.2214C88.9817 96.4274 89.2611 97.9501 89.4449 99.3431C89.6287 100.736 89.5956 102.396 88.5331 103.255C87.946 103.667 87.2627 103.907 86.5552 103.949C83.2576 104.398 79.9048 104.057 76.7537 102.953C75.6508 102.572 74.5294 101.377 73.364 101.759C71.7978 102.27 71.4338 104.518 71.0184 105.903Z" fill="#B96B6B"/>
<g opacity="0.1">
<path opacity="0.1" d="M112.794 100.488L111.647 101.45C111.647 101.45 116.386 119.627 116.574 126.767C118.993 126.088 114.338 106.64 112.794 100.488Z" fill="black"/>
<path opacity="0.1" d="M180.515 151.871C173.746 156.79 166.298 158.546 167.647 161.359C168.996 164.171 161.555 147.654 144.629 144.845C128.75 142.208 111.382 131.221 109.574 124.939C107.037 122.688 105.191 120.776 105.191 120.776C103.838 122.531 108.746 126.573 108.746 126.573C108.408 132.545 127.026 144.845 143.949 147.654C160.871 150.463 168.32 166.98 166.967 164.167C165.614 161.355 173.059 159.588 179.835 154.68C181.772 153.272 182.904 150.367 183.537 146.937C182.882 149.108 181.912 150.867 180.515 151.871Z" fill="black"/>
</g>
<path d="M146.346 185.604C145.331 187.008 144.654 201.415 144.654 201.415C144.654 201.415 148.699 222.145 136.199 220.039C123.699 217.932 134.507 203.174 134.507 203.174L132.816 182.795C126.386 165.24 127.739 152.577 127.739 152.577L126.537 141.101L126.044 136.415L140.599 132.9C140.202 133.45 140.371 136.877 140.728 140.857C141.283 147.093 142.29 154.684 142.29 154.684C145.327 158.195 147.36 184.196 146.346 185.604Z" fill="#FFB9B9"/>
<path opacity="0.1" d="M125.695 101.274C125.695 101.274 110.801 101.625 122.647 127.275C122.647 127.275 125.695 137.816 125.695 139.575C125.695 141.334 140.926 141.33 142.607 139.575C144.287 137.819 139.897 123.413 139.897 116.734C139.897 110.056 135.511 99.1637 125.695 101.274Z" fill="black"/>
<path opacity="0.1" d="M140.717 140.857C137.555 141.754 129.805 141.834 126.522 141.101L126.029 136.415L140.585 132.9C140.195 133.446 140.364 136.873 140.717 140.857Z" fill="black"/>
<path d="M125.018 101.274C125.018 101.274 110.125 101.625 121.971 127.275C121.971 127.275 125.018 137.816 125.018 139.575C125.018 141.334 140.25 141.33 141.93 139.575C143.61 137.819 139.221 123.413 139.221 116.734C139.221 110.056 134.835 99.1637 125.018 101.274Z" fill="#CBCDDA"/>
<g opacity="0.5">
<path opacity="0.5" d="M27.5882 156.279L16.8088 156.508L15.0515 159.019V167.697L17.25 169.296H27.5882L29.7904 166.785V158.565L27.5882 156.279Z" fill="#32877D"/>
<path opacity="0.2" d="M27.3713 157.649C27.3713 157.649 17.4706 159.248 16.5919 157.649L16.8125 156.504L27.3713 156.275V157.649Z" fill="white"/>
<path opacity="0.5" d="M28.4706 181.398L30.2316 183.226V191.905L28.4706 193.733C28.4706 193.733 22.0919 196.022 17.9118 194.19L15.9301 192.133V183.455L17.6912 181.398H28.4706Z" fill="#32877D"/>
<path opacity="0.2" d="M28.0294 183.455C28.0294 183.455 20.3309 185.283 17.6912 183.455V181.398H28.4706L28.0294 183.455Z" fill="white"/>
<path opacity="0.5" d="M24.2904 169.235V181.589C24.2648 182.078 24.0535 182.537 23.7029 182.866C23.3523 183.194 22.8907 183.365 22.4191 183.341C21.9475 183.365 21.486 183.194 21.1353 182.866C20.7847 182.537 20.5735 182.078 20.5478 181.589V169.235C20.5478 168.186 21.5257 167.373 22.636 167.495C23.0701 167.522 23.4793 167.715 23.7847 168.036C24.0902 168.357 24.2703 168.785 24.2904 169.235Z" fill="#32877D"/>
<path opacity="0.5" d="M44.8529 156.63L34.0735 156.859L32.3125 159.37V168.049L34.5147 169.648H44.8529L47.0515 167.136V158.916L44.8529 156.63Z" fill="#32877D"/>
<path opacity="0.2" d="M44.6323 158.004C44.6323 158.004 34.7316 159.603 33.8529 158.004L34.0735 156.859L44.6323 156.63V158.004Z" fill="white"/>
<path opacity="0.5" d="M45.7316 181.753L47.4926 183.581V192.259L45.7316 194.087C45.7316 194.087 39.3529 196.377 35.1728 194.545L33.1912 192.488V183.806L34.9522 181.749L45.7316 181.753Z" fill="#32877D"/>
<path opacity="0.2" d="M45.2941 183.806C45.2941 183.806 37.5956 185.634 34.9559 183.806V181.749H45.7353L45.2941 183.806Z" fill="white"/>
<path opacity="0.5" d="M41.5441 169.587V181.94C41.5185 182.429 41.3072 182.888 40.9566 183.217C40.6059 183.545 40.1444 183.716 39.6728 183.692C39.2012 183.716 38.7397 183.545 38.389 183.217C38.0384 182.888 37.8272 182.429 37.8015 181.94V169.587C37.8015 168.537 38.7794 167.724 39.8897 167.846C40.3238 167.873 40.733 168.066 41.0384 168.387C41.3439 168.708 41.524 169.136 41.5441 169.587Z" fill="#32877D"/>
<path opacity="0.5" d="M66.8309 163.24L57.9559 163.427L56.5074 165.495V172.64L58.3199 173.952H66.8309L68.6397 171.884V165.118L66.8309 163.24Z" fill="#32877D"/>
<path opacity="0.2" d="M66.6471 164.366C66.6471 164.366 58.4963 165.682 57.7721 164.366L57.9522 163.427L66.6434 163.24L66.6471 164.366Z" fill="white"/>
<path opacity="0.5" d="M67.5552 183.917L69.0037 185.421V192.565L67.5552 194.068C67.5552 194.068 62.3052 195.95 58.864 194.45L57.2316 192.759V185.608L58.6802 183.917H67.5552Z" fill="#32877D"/>
<path opacity="0.2" d="M67.1912 185.608C67.1912 185.608 60.8529 187.111 58.6801 185.608V183.917H67.5551L67.1912 185.608Z" fill="white"/>
<path opacity="0.5" d="M64.114 173.903V184.073C64.0912 184.475 63.9166 184.851 63.6281 185.12C63.3396 185.389 62.9606 185.528 62.5735 185.508C62.1852 185.528 61.8051 185.387 61.5165 185.117C61.2278 184.847 61.054 184.469 61.0331 184.066V173.903C61.0459 173.688 61.1019 173.478 61.1974 173.286C61.293 173.095 61.4261 172.927 61.5882 172.792C61.7502 172.657 61.9376 172.559 62.1383 172.504C62.339 172.449 62.5486 172.438 62.7537 172.472C63.1106 172.494 63.447 172.652 63.6981 172.917C63.9492 173.181 64.0974 173.532 64.114 173.903Z" fill="#32877D"/>
<path opacity="0.5" d="M81.0404 163.526L72.1654 163.717L70.7169 165.782V172.926L72.5294 174.243H81.0404L82.8529 172.174V165.408L81.0404 163.526Z" fill="#32877D"/>
<path opacity="0.2" d="M80.8603 164.656C80.8603 164.656 72.7096 165.973 71.9853 164.656L72.1654 163.717L80.8566 163.53L80.8603 164.656Z" fill="white"/>
<path opacity="0.5" d="M81.7647 184.207L83.2133 185.711V192.855L81.7647 194.358C81.7647 194.358 76.5147 196.24 73.0736 194.74L71.4449 193.049V185.89L72.8934 184.199L81.7647 184.207Z" fill="#32877D"/>
<path opacity="0.2" d="M81.4044 185.89C81.4044 185.89 75.0662 187.394 72.8934 185.89V184.199H81.7647L81.4044 185.89Z" fill="white"/>
<path opacity="0.5" d="M78.3088 174.193V184.363C78.2879 184.766 78.1141 185.144 77.8254 185.415C77.5368 185.685 77.1567 185.826 76.7684 185.806C76.3801 185.826 76 185.685 75.7113 185.415C75.4227 185.144 75.2489 184.766 75.2279 184.363V174.193C75.2407 173.978 75.2967 173.768 75.3923 173.576C75.4879 173.385 75.621 173.217 75.783 173.082C75.945 172.947 76.1324 172.849 76.3332 172.794C76.5339 172.739 76.7435 172.728 76.9485 172.762C77.3054 172.784 77.6418 172.942 77.893 173.207C78.1441 173.471 78.2922 173.822 78.3088 174.193Z" fill="#32877D"/>
</g>
<g opacity="0.8">
<path opacity="0.8" d="M43.0809 224.817C43.0809 224.817 37.8713 222.985 35.3603 227.751C34.6988 229.043 34.362 230.488 34.3813 231.951C34.4006 233.414 34.7753 234.848 35.4706 236.121C37.1177 239.212 40.511 243.223 46.9412 242.868C52.3971 242.566 54.2096 238.242 54.7022 234.224C54.8906 232.717 54.7032 231.184 54.1579 229.774C53.6125 228.363 52.7275 227.121 51.5875 226.167C50.4475 225.213 49.0907 224.579 47.647 224.325C46.2033 224.071 44.721 224.206 43.3419 224.717L43.0809 224.817Z" fill="#32877D"/>
<path opacity="0.1" d="M36.5772 236.544C35.8819 235.272 35.5072 233.837 35.4879 232.374C35.4686 230.911 35.8054 229.467 36.4669 228.175C38.9743 223.408 44.1875 225.24 44.1875 225.24L44.4559 225.141C46.442 224.395 48.625 224.445 50.5772 225.282C49.4988 224.614 48.291 224.204 47.041 224.08C45.791 223.956 44.5301 224.121 43.3493 224.565L43.0809 224.664C43.0809 224.664 37.8713 222.832 35.3603 227.599C34.6988 228.891 34.362 230.335 34.3813 231.798C34.4006 233.261 34.7753 234.695 35.4706 235.968C36.5735 238.002 38.4118 240.433 41.353 241.757C39.3333 240.504 37.6819 238.701 36.5772 236.544Z" fill="white"/>
<path opacity="0.2" d="M40.3897 227.106C40.3897 227.106 42.3199 228.682 47.0074 227.106H40.3897Z" fill="black"/>
<path opacity="0.8" d="M39.978 215.657C39.978 215.657 43.2868 224.969 43.0147 227.404L45.6361 227.118C45.6361 227.118 41.2243 218.955 42.3272 215.669L39.978 215.657Z" fill="#32877D"/>
<path opacity="0.2" d="M39.978 215.657C39.978 215.657 43.2868 224.969 43.0147 227.404L45.6361 227.118C45.6361 227.118 41.2243 218.955 42.3272 215.669L39.978 215.657Z" fill="black"/>
<path opacity="0.8" d="M53.4927 216.421C53.4927 216.421 48.2794 213.654 45.9486 215.94C43.6177 218.226 43.2574 224.069 43.2574 224.069C43.2574 224.069 51.7574 225.286 53.4927 216.421Z" fill="#32877D"/>
<path opacity="0.1" d="M53.4927 216.421C53.4927 216.421 48.2794 213.654 45.9486 215.94C43.6177 218.226 43.2574 224.069 43.2574 224.069C43.2574 224.069 51.7574 225.286 53.4927 216.421Z" fill="white"/>
<path opacity="0.8" d="M43.2574 224.053C43.2574 224.053 44.625 217.272 53.4927 216.421" stroke="#32877D" stroke-miterlimit="10"/>
</g>
<path d="M65.0735 233.247C65.0735 233.247 59.864 231.415 57.3529 236.182C56.6914 237.474 56.3546 238.918 56.3739 240.381C56.3932 241.844 56.7679 243.278 57.4632 244.551C59.1103 247.642 62.5037 251.653 68.9338 251.298C74.3897 250.997 76.2022 246.673 76.6948 242.654C76.8833 241.147 76.6958 239.614 76.1505 238.204C75.6051 236.793 74.7201 235.551 73.5801 234.598C72.4401 233.644 71.0833 233.009 69.6396 232.755C68.1959 232.502 66.7136 232.637 65.3345 233.148L65.0735 233.247Z" fill="#32877D"/>
<path opacity="0.1" d="M58.5809 244.978C57.8855 243.706 57.5108 242.271 57.4916 240.808C57.4723 239.345 57.809 237.901 58.4706 236.609C60.9779 231.842 66.1912 233.674 66.1912 233.674L66.4595 233.575C68.4457 232.829 70.6286 232.879 72.5809 233.716C71.5025 233.049 70.2946 232.638 69.0446 232.514C67.7946 232.39 66.5337 232.555 65.3529 232.999L65.0845 233.098C65.0845 233.098 59.875 231.266 57.3639 236.033C56.7024 237.325 56.3657 238.769 56.3849 240.232C56.4042 241.695 56.7789 243.129 57.4742 244.402C58.5772 246.436 60.4154 248.867 63.3566 250.191C61.3369 248.938 59.6855 247.135 58.5809 244.978Z" fill="white"/>
<path opacity="0.2" d="M62.3934 235.537C62.3934 235.537 64.3236 237.113 69.0111 235.537H62.3934Z" fill="black"/>
<path d="M61.978 224.08C61.978 224.08 65.2868 233.392 65.0147 235.827L67.6361 235.541C67.6361 235.541 63.2243 227.377 64.3272 224.091L61.978 224.08Z" fill="#32877D"/>
<path opacity="0.2" d="M61.978 224.08C61.978 224.08 65.2868 233.392 65.0147 235.827L67.6361 235.541C67.6361 235.541 63.2243 227.377 64.3272 224.091L61.978 224.08Z" fill="black"/>
<path d="M75.4963 224.855C75.4963 224.855 70.2831 222.088 67.9522 224.374C65.6213 226.66 65.261 232.503 65.261 232.503C65.261 232.503 73.761 233.716 75.4963 224.855Z" fill="#32877D"/>
<path opacity="0.1" d="M75.4963 224.855C75.4963 224.855 70.2831 222.088 67.9522 224.374C65.6213 226.66 65.261 232.503 65.261 232.503C65.261 232.503 73.761 233.716 75.4963 224.855Z" fill="white"/>
<path d="M65.261 232.503C65.261 232.503 66.6287 225.721 75.4963 224.87" stroke="#32877D" stroke-miterlimit="10"/>
<path d="M23.1618 211.143C23.1618 211.143 23.6728 210.551 22.7132 210.315V209.341H23.2904C23.29 208.165 22.9005 207.024 22.1872 206.11C21.4738 205.196 20.4798 204.564 19.3713 204.319V203.14H19.5221V201.613H15.8088V203.14H15.9154V204.334C14.8216 204.592 13.8446 205.228 13.1446 206.138C12.4445 207.047 12.063 208.177 12.0625 209.341H12.5772V210.276C12.5772 210.276 11.3566 210.876 12.5772 211.944C13.7978 213.013 13.6066 213.81 13.6066 213.81C13.6066 213.81 13.0919 215.81 12.0662 216.077V234.682C12.0662 235.778 12.4857 236.829 13.2324 237.604C13.9791 238.379 14.9918 238.815 16.0478 238.815H19.1949C20.2477 238.811 21.2561 238.374 21.9995 237.6C22.7429 236.826 23.1608 235.779 23.1618 234.686V216.077C23.1618 216.077 21.364 214.677 21.6912 213.81C22.1179 212.885 22.6094 211.993 23.1618 211.143Z" fill="#32877D"/>
</svg>
